{"glyphs":{"0":{"ha":1174,"x_min":211,"x_max":1013,"o":"m 706 974 q 934 881 856 974 q 1013 618 1013 789 q 953 294 1013 435 q 783 75 894 153 q 517 -3 671 -3 q 290 90 368 -3 q 211 353 211 182 q 270 676 211 536 q 441 895 329 817 q 706 974 553 974 m 700 946 q 453 872 557 946 q 294 665 349 797 q 239 358 239 532 q 311 112 239 199 q 521 25 383 25 q 769 99 664 25 q 929 306 874 174 q 985 613 985 439 q 912 859 985 772 q 700 946 839 946 z "},"1":{"ha":621,"x_min":190,"x_max":482,"o":"m 196 971 l 482 971 l 293 0 l 267 0 l 450 943 l 190 943 l 196 971 z "},"2":{"ha":907,"x_min":50,"x_max":790,"o":"m 83 28 l 722 28 l 717 0 l 50 0 l 60 40 l 536 456 q 761 781 761 650 q 702 902 761 858 q 536 946 643 946 q 381 915 461 946 q 233 828 300 883 l 218 847 q 375 940 289 907 q 542 974 461 974 q 724 923 658 974 q 790 785 790 872 q 551 436 790 644 l 83 28 z "},"3":{"ha":928,"x_min":49,"x_max":842,"o":"m 836 946 l 375 547 l 443 547 q 679 490 593 547 q 765 331 765 432 q 712 160 765 236 q 561 41 658 85 q 340 -3 464 -3 q 181 19 258 -3 q 49 79 104 42 l 69 101 q 194 46 121 67 q 346 25 268 25 q 550 65 461 25 q 688 172 639 104 q 736 324 736 240 q 659 469 736 419 q 439 519 582 519 l 331 519 l 335 544 l 799 943 l 260 943 l 265 971 l 842 971 l 836 946 z "},"4":{"ha":926,"x_min":100,"x_max":810,"o":"m 810 317 l 804 289 l 636 289 l 581 0 l 553 0 l 608 289 l 100 289 l 107 324 l 638 971 l 669 971 l 135 317 l 614 317 l 675 628 l 703 628 l 642 317 l 810 317 z "},"5":{"ha":996,"x_min":119,"x_max":915,"o":"m 378 943 l 300 540 q 424 569 360 558 q 539 579 489 579 q 751 517 674 579 q 829 353 829 456 q 777 170 829 251 q 633 43 725 89 q 424 -3 540 -3 q 264 23 346 -3 q 119 92 182 49 l 138 114 q 276 49 197 74 q 428 25 356 25 q 621 67 536 25 q 753 182 706 108 q 801 347 801 256 q 729 496 801 440 q 533 551 657 551 q 403 538 476 551 q 264 501 329 524 l 356 971 l 915 971 l 910 943 l 378 943 z "},"6":{"ha":1053,"x_min":208,"x_max":931,"o":"m 526 -3 q 290 86 372 -3 q 208 340 208 175 q 269 660 208 515 q 433 890 329 806 q 663 974 538 974 q 798 953 726 974 q 931 899 869 933 l 913 874 q 793 926 860 907 q 665 946 726 946 q 456 876 547 946 q 307 674 364 806 q 235 360 250 542 q 369 542 276 476 q 588 607 463 607 q 799 540 722 607 q 875 356 875 472 q 831 170 875 251 q 707 43 786 89 q 526 -3 628 -3 m 521 26 q 689 68 615 26 q 804 184 763 110 q 846 353 846 258 q 777 518 846 457 q 590 579 708 579 q 419 538 499 579 q 294 425 340 496 q 247 272 247 354 q 282 145 247 201 q 379 58 317 89 q 521 26 442 26 z "},"7":{"ha":892,"x_min":194,"x_max":915,"o":"m 231 971 l 915 971 l 908 936 l 251 0 l 221 0 l 885 943 l 253 943 l 222 788 l 194 788 l 231 971 z "},"8":{"ha":1065,"x_min":171,"x_max":907,"o":"m 653 974 q 840 924 774 974 q 907 783 907 874 q 847 619 907 685 q 676 522 788 554 q 813 447 764 500 q 861 314 861 393 q 812 147 861 218 q 672 36 763 75 q 464 -3 582 -3 q 248 56 325 -3 q 171 222 171 115 q 246 415 171 339 q 453 522 321 492 q 346 590 383 544 q 308 703 308 636 q 351 846 308 785 q 472 940 394 907 q 653 974 550 974 m 647 946 q 422 881 507 946 q 338 706 338 815 q 398 578 338 625 q 567 532 458 532 q 793 598 708 532 q 878 775 878 664 q 817 900 878 854 q 647 946 757 946 m 561 504 q 372 470 454 504 q 244 374 290 436 q 199 231 199 313 q 269 80 199 135 q 468 25 340 25 q 659 60 576 25 q 787 160 742 96 q 832 308 832 224 q 760 451 832 399 q 561 504 689 504 z "},"9":{"ha":1051,"x_min":171,"x_max":893,"o":"m 189 97 q 308 44 242 64 q 436 25 375 25 q 646 95 554 25 q 794 297 738 165 q 867 611 851 429 q 732 429 825 494 q 514 364 639 364 q 303 431 379 364 q 226 615 226 499 q 271 801 226 719 q 394 928 315 882 q 575 974 474 974 q 811 885 729 974 q 893 631 893 796 q 833 310 893 456 q 668 81 772 165 q 439 -3 564 -3 q 303 17 375 -3 q 171 72 232 38 l 189 97 m 581 944 q 413 903 486 944 q 297 787 339 861 q 256 618 256 713 q 324 453 256 514 q 511 392 393 392 q 682 433 603 392 q 808 546 761 475 q 854 699 854 617 q 819 826 854 769 q 722 913 785 882 q 581 944 660 944 z "},"\u0000":{"ha":0,"x_min":0,"x_max":0,"o":""},"\r":{"ha":413,"x_min":0,"x_max":0,"o":""}," ":{"ha":413,"x_min":0,"x_max":0,"o":""},"A":{"ha":953,"x_min":-58,"x_max":867,"o":"m 835 0 l 747 296 l 158 296 l -25 0 l -58 0 l 547 971 l 578 971 l 867 0 l 835 0 m 175 324 l 739 324 l 557 939 l 175 324 z "},"Á":{"ha":953,"x_min":-58,"x_max":867,"o":"m 835 0 l 747 296 l 158 296 l -25 0 l -58 0 l 547 971 l 578 971 l 867 0 l 835 0 m 175 324 l 739 324 l 557 939 l 175 324 m 738 1238 l 764 1224 l 585 1078 l 549 1085 l 738 1238 z "},"Ă":{"ha":953,"x_min":-58,"x_max":867,"o":"m 835 0 l 747 296 l 158 296 l -25 0 l -58 0 l 547 971 l 578 971 l 867 0 l 835 0 m 175 324 l 739 324 l 557 939 l 175 324 m 496 1217 q 494 1197 494 1210 q 521 1126 494 1154 q 590 1099 547 1099 q 680 1133 639 1099 q 732 1217 721 1167 l 760 1217 q 696 1113 746 1154 q 586 1071 646 1071 q 499 1104 533 1071 q 465 1190 465 1138 q 468 1217 465 1200 l 496 1217 z "},"Ắ":{"ha":953,"x_min":-58,"x_max":867,"o":"m 835 0 l 747 296 l 158 296 l -25 0 l -58 0 l 547 971 l 578 971 l 867 0 l 835 0 m 175 324 l 739 324 l 557 939 l 175 324 z "},"Ặ":{"ha":953,"x_min":-58,"x_max":867,"o":"m 835 0 l 747 296 l 158 296 l -25 0 l -58 0 l 547 971 l 578 971 l 867 0 l 835 0 m 175 324 l 739 324 l 557 939 l 175 324 m 385 -111 q 406 -120 397 -111 q 414 -142 414 -129 q 400 -171 414 -158 q 369 -183 386 -183 q 349 -174 357 -183 q 340 -153 340 -165 q 354 -124 340 -136 q 385 -111 368 -111 m 483 1217 q 482 1197 482 1210 q 508 1126 482 1154 q 578 1099 535 1099 q 667 1133 626 1099 q 719 1217 708 1167 l 747 1217 q 683 1113 733 1154 q 574 1071 633 1071 q 487 1104 521 1071 q 453 1190 453 1138 q 456 1217 453 1200 l 483 1217 z "},"Ằ":{"ha":953,"x_min":-58,"x_max":867,"o":"m 835 0 l 747 296 l 158 296 l -25 0 l -58 0 l 547 971 l 578 971 l 867 0 l 835 0 m 175 324 l 739 324 l 557 939 l 175 324 z "},"Ẳ":{"ha":953,"x_min":-58,"x_max":867,"o":"m 835 0 l 747 296 l 158 296 l -25 0 l -58 0 l 547 971 l 578 971 l 867 0 l 835 0 m 175 324 l 739 324 l 557 939 l 175 324 z "},"Ẵ":{"ha":953,"x_min":-58,"x_max":867,"o":"m 835 0 l 747 296 l 158 296 l -25 0 l -58 0 l 547 971 l 578 971 l 867 0 l 835 0 m 175 324 l 739 324 l 557 939 l 175 324 z "},"Â":{"ha":953,"x_min":-58,"x_max":867,"o":"m 835 0 l 747 296 l 158 296 l -25 0 l -58 0 l 547 971 l 578 971 l 867 0 l 835 0 m 175 324 l 739 324 l 557 939 l 175 324 m 744 1078 l 708 1078 l 611 1206 l 464 1078 l 428 1078 l 593 1231 l 638 1231 l 744 1078 z "},"Ấ":{"ha":953,"x_min":-58,"x_max":867,"o":"m 835 0 l 747 296 l 158 296 l -25 0 l -58 0 l 547 971 l 578 971 l 867 0 l 835 0 m 175 324 l 739 324 l 557 939 l 175 324 z "},"Ậ":{"ha":953,"x_min":-58,"x_max":867,"o":"m 835 0 l 747 296 l 158 296 l -25 0 l -58 0 l 547 971 l 578 971 l 867 0 l 835 0 m 175 324 l 739 324 l 557 939 l 175 324 m 385 -111 q 406 -120 397 -111 q 414 -142 414 -129 q 400 -171 414 -158 q 369 -183 386 -183 q 349 -174 357 -183 q 340 -153 340 -165 q 354 -124 340 -136 q 385 -111 368 -111 m 732 1078 l 696 1078 l 599 1206 l 451 1078 l 415 1078 l 581 1231 l 625 1231 l 732 1078 z "},"Ầ":{"ha":953,"x_min":-58,"x_max":867,"o":"m 835 0 l 747 296 l 158 296 l -25 0 l -58 0 l 547 971 l 578 971 l 867 0 l 835 0 m 175 324 l 739 324 l 557 939 l 175 324 z "},"Ẩ":{"ha":953,"x_min":-58,"x_max":867,"o":"m 835 0 l 747 296 l 158 296 l -25 0 l -58 0 l 547 971 l 578 971 l 867 0 l 835 0 m 175 324 l 739 324 l 557 939 l 175 324 z "},"Ẫ":{"ha":953,"x_min":-58,"x_max":867,"o":"m 835 0 l 747 296 l 158 296 l -25 0 l -58 0 l 547 971 l 578 971 l 867 0 l 835 0 m 175 324 l 739 324 l 557 939 l 175 324 z "},"Ȁ":{"ha":953,"x_min":-58,"x_max":867,"o":"m 835 0 l 747 296 l 158 296 l -25 0 l -58 0 l 547 971 l 578 971 l 867 0 l 835 0 m 175 324 l 739 324 l 557 939 l 175 324 m 440 1231 l 550 1078 l 517 1071 l 414 1215 l 440 1231 m 606 1231 l 715 1078 l 682 1071 l 579 1215 l 606 1231 z "},"Ä":{"ha":953,"x_min":-58,"x_max":867,"o":"m 835 0 l 747 296 l 158 296 l -25 0 l -58 0 l 547 971 l 578 971 l 867 0 l 835 0 m 175 324 l 739 324 l 557 939 l 175 324 m 497 1150 q 518 1141 510 1150 q 526 1119 526 1132 q 513 1090 526 1103 q 482 1078 499 1078 q 461 1087 469 1078 q 453 1108 453 1096 q 467 1138 453 1125 q 497 1150 481 1150 m 706 1150 q 726 1141 718 1150 q 735 1119 735 1132 q 721 1090 735 1103 q 690 1078 707 1078 q 669 1087 678 1078 q 661 1108 661 1096 q 675 1138 661 1125 q 706 1150 689 1150 z "},"Ạ":{"ha":953,"x_min":-58,"x_max":867,"o":"m 835 0 l 747 296 l 158 296 l -25 0 l -58 0 l 547 971 l 578 971 l 867 0 l 835 0 m 175 324 l 739 324 l 557 939 l 175 324 m 385 -111 q 406 -120 397 -111 q 414 -142 414 -129 q 400 -171 414 -158 q 369 -183 386 -183 q 349 -174 357 -183 q 340 -153 340 -165 q 354 -124 340 -136 q 385 -111 368 -111 z "},"À":{"ha":953,"x_min":-58,"x_max":867,"o":"m 835 0 l 747 296 l 158 296 l -25 0 l -58 0 l 547 971 l 578 971 l 867 0 l 835 0 m 175 324 l 739 324 l 557 939 l 175 324 m 489 1238 l 678 1085 l 642 1078 l 463 1224 l 489 1238 z "},"Ả":{"ha":953,"x_min":-58,"x_max":867,"o":"m 835 0 l 747 296 l 158 296 l -25 0 l -58 0 l 547 971 l 578 971 l 867 0 l 835 0 m 175 324 l 739 324 l 557 939 l 175 324 m 604 1282 q 668 1259 646 1282 q 690 1201 690 1236 q 663 1125 690 1164 q 589 1056 636 1086 l 563 1067 q 635 1131 608 1096 q 663 1196 663 1165 q 646 1238 663 1221 q 599 1254 629 1254 q 521 1229 564 1254 l 510 1251 q 604 1282 564 1282 z "},"Ȃ":{"ha":953,"x_min":-58,"x_max":867,"o":"m 835 0 l 747 296 l 158 296 l -25 0 l -58 0 l 547 971 l 578 971 l 867 0 l 835 0 m 175 324 l 739 324 l 557 939 l 175 324 m 704 1078 q 706 1097 706 1085 q 679 1168 706 1140 q 610 1196 653 1196 q 520 1162 561 1196 q 468 1078 479 1128 l 440 1078 q 504 1182 454 1140 q 614 1224 554 1224 q 701 1190 667 1224 q 735 1104 735 1157 q 732 1078 735 1094 l 704 1078 z "},"Ā":{"ha":953,"x_min":-58,"x_max":867,"o":"m 835 0 l 747 296 l 158 296 l -25 0 l -58 0 l 547 971 l 578 971 l 867 0 l 835 0 m 175 324 l 739 324 l 557 939 l 175 324 m 372 1113 l 813 1113 l 807 1085 l 367 1085 l 372 1113 z "},"Ą":{"ha":953,"x_min":-58,"x_max":867,"o":"m 717 -268 q 806 -240 757 -268 l 814 -262 q 710 -296 760 -296 q 649 -274 671 -296 q 628 -214 628 -253 q 676 -103 628 -151 q 832 8 724 -54 l 747 296 l 158 296 l -25 0 l -58 0 l 547 971 l 578 971 l 867 0 q 705 -111 753 -65 q 657 -210 657 -157 q 674 -253 657 -237 q 717 -268 690 -268 m 175 324 l 739 324 l 557 939 l 175 324 z "},"Å":{"ha":953,"x_min":-58,"x_max":867,"o":"m 835 0 l 747 296 l 158 296 l -25 0 l -58 0 l 547 971 l 578 971 l 867 0 l 835 0 m 175 324 l 739 324 l 557 939 l 175 324 m 617 1301 q 696 1269 664 1301 q 728 1192 728 1238 q 684 1099 728 1140 q 586 1058 640 1058 q 507 1090 539 1058 q 475 1165 475 1121 q 518 1260 475 1218 q 617 1301 561 1301 m 613 1275 q 537 1243 571 1275 q 503 1169 503 1211 q 528 1109 503 1133 q 590 1085 553 1085 q 667 1116 632 1085 q 701 1189 701 1147 q 676 1250 701 1225 q 613 1275 650 1275 z "},"Ǻ":{"ha":953,"x_min":-58,"x_max":867,"o":"m 835 0 l 747 296 l 158 296 l -25 0 l -58 0 l 547 971 l 578 971 l 867 0 l 835 0 m 175 324 l 739 324 l 557 939 l 175 324 m 592 1301 q 671 1269 639 1301 q 703 1192 703 1238 q 659 1099 703 1140 q 561 1058 615 1058 q 482 1090 514 1058 q 450 1165 450 1121 q 493 1260 450 1218 q 592 1301 536 1301 m 588 1275 q 512 1243 546 1275 q 478 1169 478 1211 q 503 1109 478 1133 q 565 1085 528 1085 q 642 1116 607 1085 q 676 1189 676 1147 q 651 1250 676 1225 q 588 1275 625 1275 m 757 1501 l 781 1483 l 579 1371 l 544 1383 l 757 1501 z "},"Ã":{"ha":953,"x_min":-58,"x_max":867,"o":"m 835 0 l 747 296 l 158 296 l -25 0 l -58 0 l 547 971 l 578 971 l 867 0 l 835 0 m 175 324 l 739 324 l 557 939 l 175 324 m 790 1185 q 747 1103 779 1133 q 669 1072 715 1072 q 626 1083 643 1072 q 585 1119 610 1094 q 551 1151 567 1140 q 514 1163 535 1163 q 458 1140 481 1163 q 428 1078 435 1118 l 401 1078 q 442 1160 413 1131 q 515 1190 471 1190 q 558 1179 542 1190 q 600 1143 575 1168 q 634 1111 618 1122 q 671 1100 650 1100 q 731 1123 704 1100 q 764 1185 757 1146 l 790 1185 z "},"Æ":{"ha":1371,"x_min":-58,"x_max":1383,"o":"m 799 943 l 713 514 l 1228 514 l 1222 486 l 707 486 l 615 28 l 1214 28 l 1208 0 l 582 0 l 644 310 l 224 310 l -25 0 l -58 0 l 721 971 l 1383 971 l 1378 943 l 799 943 m 650 338 l 771 943 l 731 943 l 246 338 l 650 338 z "},"Ǽ":{"ha":1371,"x_min":-58,"x_max":1383,"o":"m 799 943 l 713 514 l 1228 514 l 1222 486 l 707 486 l 615 28 l 1214 28 l 1208 0 l 582 0 l 644 310 l 224 310 l -25 0 l -58 0 l 721 971 l 1383 971 l 1378 943 l 799 943 m 650 338 l 771 943 l 731 943 l 246 338 l 650 338 m 1125 1238 l 1151 1224 l 972 1078 l 936 1085 l 1125 1238 z "},"B":{"ha":1018,"x_min":106,"x_max":943,"o":"m 701 506 q 849 442 797 494 q 901 306 901 389 q 793 82 901 164 q 496 0 685 0 l 106 0 l 300 971 l 690 971 q 877 919 811 971 q 943 776 943 868 q 878 597 943 669 q 701 506 814 524 m 238 517 l 599 517 q 831 585 746 517 q 915 769 915 653 q 856 898 915 853 q 685 943 796 943 l 322 943 l 238 517 m 501 28 q 775 101 676 28 q 874 300 874 174 q 801 441 874 392 q 594 490 729 490 l 232 490 l 139 28 l 501 28 z "},"C":{"ha":1017,"x_min":96,"x_max":965,"o":"m 643 976 q 822 943 739 976 q 965 850 904 910 l 946 832 q 810 919 888 889 q 643 950 732 950 q 399 888 514 950 q 211 719 285 825 q 125 486 138 613 q 122 442 122 456 q 178 230 122 326 q 332 78 235 133 q 549 22 429 22 q 724 53 639 22 q 876 142 808 85 l 894 124 q 731 29 819 63 q 549 -4 642 -4 q 318 55 422 -4 q 155 217 214 114 q 96 442 96 319 q 99 489 96 456 q 190 733 111 621 q 389 910 268 844 q 643 976 510 976 z "},"Ć":{"ha":1017,"x_min":96,"x_max":965,"o":"m 643 976 q 822 943 739 976 q 965 850 904 910 l 946 832 q 810 919 888 889 q 643 950 732 950 q 399 888 514 950 q 211 719 285 825 q 125 486 138 613 q 122 442 122 456 q 178 230 122 326 q 332 78 235 133 q 549 22 429 22 q 724 53 639 22 q 876 142 808 85 l 894 124 q 731 29 819 63 q 549 -4 642 -4 q 318 55 422 -4 q 155 217 214 114 q 96 442 96 319 q 99 489 96 456 q 190 733 111 621 q 389 910 268 844 q 643 976 510 976 m 808 1238 l 835 1224 l 656 1078 l 619 1085 l 808 1238 z "},"Č":{"ha":1017,"x_min":96,"x_max":965,"o":"m 643 976 q 822 943 739 976 q 965 850 904 910 l 946 832 q 810 919 888 889 q 643 950 732 950 q 399 888 514 950 q 211 719 285 825 q 125 486 138 613 q 122 442 122 456 q 178 230 122 326 q 332 78 235 133 q 549 22 429 22 q 724 53 639 22 q 876 142 808 85 l 894 124 q 731 29 819 63 q 549 -4 642 -4 q 318 55 422 -4 q 155 217 214 114 q 96 442 96 319 q 99 489 96 456 q 190 733 111 621 q 389 910 268 844 q 643 976 510 976 m 808 1231 l 844 1231 l 679 1078 l 635 1078 l 528 1231 l 564 1231 l 661 1103 l 808 1231 z "},"Ç":{"ha":1017,"x_min":96,"x_max":965,"o":"m 643 950 q 399 888 514 950 q 211 719 285 825 q 125 486 138 613 q 122 442 122 456 q 178 230 122 326 q 332 78 235 133 q 549 22 429 22 q 724 53 639 22 q 876 142 808 85 l 894 124 q 731 29 819 63 q 549 -4 642 -4 q 522 -3 531 -4 l 488 -75 q 558 -101 533 -76 q 582 -162 582 -126 q 563 -226 582 -194 q 510 -276 544 -257 q 433 -296 476 -296 q 379 -287 407 -296 q 338 -265 351 -279 l 356 -237 q 393 -258 369 -250 q 439 -267 417 -267 q 520 -236 489 -267 q 551 -168 551 -206 q 534 -120 551 -139 q 486 -101 517 -101 l 446 -101 l 493 -1 q 289 73 379 11 q 147 231 199 135 q 96 440 96 326 q 99 489 96 456 q 190 733 111 621 q 389 910 268 844 q 643 976 510 976 q 822 943 739 976 q 965 850 904 910 l 946 832 q 810 919 888 889 q 643 950 732 950 z "},"Ḉ":{"ha":1017,"x_min":96,"x_max":965,"o":"m 854 1224 l 675 1078 l 639 1085 l 828 1238 l 854 1224 m 643 950 q 399 888 514 950 q 211 719 285 825 q 125 486 138 613 q 122 442 122 456 q 178 230 122 326 q 332 78 235 133 q 549 22 429 22 q 724 53 639 22 q 876 142 808 85 l 894 124 q 731 29 819 63 q 549 -4 642 -4 q 522 -3 531 -4 l 488 -75 q 558 -101 533 -76 q 582 -162 582 -126 q 563 -226 582 -194 q 510 -276 544 -257 q 433 -296 476 -296 q 379 -287 407 -296 q 338 -265 351 -279 l 356 -237 q 393 -258 369 -250 q 439 -267 417 -267 q 520 -236 489 -267 q 551 -168 551 -206 q 534 -120 551 -139 q 486 -101 517 -101 l 446 -101 l 493 -1 q 289 73 379 11 q 147 231 199 135 q 96 440 96 326 q 99 489 96 456 q 190 733 111 621 q 389 910 268 844 q 643 976 510 976 q 822 943 739 976 q 965 850 904 910 l 946 832 q 810 919 888 889 q 643 950 732 950 z "},"Ĉ":{"ha":1017,"x_min":96,"x_max":965,"o":"m 643 976 q 822 943 739 976 q 965 850 904 910 l 946 832 q 810 919 888 889 q 643 950 732 950 q 399 888 514 950 q 211 719 285 825 q 125 486 138 613 q 122 442 122 456 q 178 230 122 326 q 332 78 235 133 q 549 22 429 22 q 724 53 639 22 q 876 142 808 85 l 894 124 q 731 29 819 63 q 549 -4 642 -4 q 318 55 422 -4 q 155 217 214 114 q 96 442 96 319 q 99 489 96 456 q 190 733 111 621 q 389 910 268 844 q 643 976 510 976 m 815 1078 l 779 1078 l 682 1206 l 535 1078 l 499 1078 l 664 1231 l 708 1231 l 815 1078 z "},"Ċ":{"ha":1017,"x_min":96,"x_max":965,"o":"m 643 976 q 822 943 739 976 q 965 850 904 910 l 946 832 q 810 919 888 889 q 643 950 732 950 q 399 888 514 950 q 211 719 285 825 q 125 486 138 613 q 122 442 122 456 q 178 230 122 326 q 332 78 235 133 q 549 22 429 22 q 724 53 639 22 q 876 142 808 85 l 894 124 q 731 29 819 63 q 549 -4 642 -4 q 318 55 422 -4 q 155 217 214 114 q 96 442 96 319 q 99 489 96 456 q 190 733 111 621 q 389 910 268 844 q 643 976 510 976 m 672 1150 q 693 1141 685 1150 q 701 1119 701 1132 q 688 1090 701 1103 q 657 1078 674 1078 q 636 1087 644 1078 q 628 1108 628 1096 q 642 1138 628 1125 q 672 1150 656 1150 z "},"D":{"ha":1128,"x_min":107,"x_max":1088,"o":"m 658 971 q 878 917 781 971 q 1032 768 976 863 q 1088 557 1088 674 q 1082 483 1088 517 q 978 242 1063 353 q 771 65 894 131 q 513 0 647 0 l 107 0 l 300 971 l 658 971 m 1056 486 q 1061 551 1061 531 q 1008 751 1061 661 q 863 892 956 840 q 654 943 771 943 l 322 943 l 140 28 l 517 28 q 760 90 643 28 q 957 256 878 151 q 1056 486 1036 361 z "},"Ǆ":{"ha":2044,"x_min":107,"x_max":2057,"o":"m 658 971 q 878 917 781 971 q 1032 768 976 863 q 1088 557 1088 674 q 1082 483 1088 517 q 978 242 1063 353 q 771 65 894 131 q 513 0 647 0 l 107 0 l 300 971 l 658 971 m 1056 486 q 1061 551 1061 531 q 1008 751 1061 661 q 863 892 956 840 q 654 943 771 943 l 322 943 l 140 28 l 517 28 q 760 90 643 28 q 957 256 878 151 q 1056 486 1036 361 m 2057 971 l 2051 936 l 1175 28 l 1906 28 l 1900 0 l 1142 0 l 1147 35 l 2024 943 l 1317 943 l 1322 971 l 2057 971 m 1856 1231 l 1892 1231 l 1726 1078 l 1682 1078 l 1575 1231 l 1611 1231 l 1708 1103 l 1856 1231 z "},"Ð":{"ha":1128,"x_min":93,"x_max":1088,"o":"m 658 971 q 878 917 781 971 q 1032 768 976 863 q 1088 557 1088 674 q 1082 483 1088 517 q 978 242 1063 353 q 771 65 894 131 q 513 0 647 0 l 107 0 l 201 472 l 93 472 l 99 500 l 207 500 l 300 971 l 658 971 m 1056 486 q 1061 551 1061 531 q 1008 751 1061 661 q 863 892 956 840 q 654 943 771 943 l 322 943 l 235 500 l 599 500 l 593 472 l 229 472 l 140 28 l 517 28 q 760 90 643 28 q 957 256 878 151 q 1056 486 1036 361 z "},"Ď":{"ha":1128,"x_min":107,"x_max":1088,"o":"m 658 971 q 878 917 781 971 q 1032 768 976 863 q 1088 557 1088 674 q 1082 483 1088 517 q 978 242 1063 353 q 771 65 894 131 q 513 0 647 0 l 107 0 l 300 971 l 658 971 m 1056 486 q 1061 551 1061 531 q 1008 751 1061 661 q 863 892 956 840 q 654 943 771 943 l 322 943 l 140 28 l 517 28 q 760 90 643 28 q 957 256 878 151 q 1056 486 1036 361 m 831 1231 l 867 1231 l 701 1078 l 657 1078 l 550 1231 l 586 1231 l 683 1103 l 831 1231 z "},"Đ":{"ha":1128,"x_min":93,"x_max":1088,"o":"m 658 971 q 878 917 781 971 q 1032 768 976 863 q 1088 557 1088 674 q 1082 483 1088 517 q 978 242 1063 353 q 771 65 894 131 q 513 0 647 0 l 107 0 l 201 472 l 93 472 l 99 500 l 207 500 l 300 971 l 658 971 m 1056 486 q 1061 551 1061 531 q 1008 751 1061 661 q 863 892 956 840 q 654 943 771 943 l 322 943 l 235 500 l 599 500 l 593 472 l 229 472 l 140 28 l 517 28 q 760 90 643 28 q 957 256 878 151 q 1056 486 1036 361 z "},"Ḍ":{"ha":1128,"x_min":107,"x_max":1088,"o":"m 658 971 q 878 917 781 971 q 1032 768 976 863 q 1088 557 1088 674 q 1082 483 1088 517 q 978 242 1063 353 q 771 65 894 131 q 513 0 647 0 l 107 0 l 300 971 l 658 971 m 1056 486 q 1061 551 1061 531 q 1008 751 1061 661 q 863 892 956 840 q 654 943 771 943 l 322 943 l 140 28 l 517 28 q 760 90 643 28 q 957 256 878 151 q 1056 486 1036 361 m 457 -111 q 478 -120 469 -111 q 486 -142 486 -129 q 472 -171 486 -158 q 442 -183 458 -183 q 421 -174 429 -183 q 413 -153 413 -165 q 426 -124 413 -136 q 457 -111 440 -111 z "},"Ḏ":{"ha":1128,"x_min":107,"x_max":1088,"o":"m 658 971 q 878 917 781 971 q 1032 768 976 863 q 1088 557 1088 674 q 1082 483 1088 517 q 978 242 1063 353 q 771 65 894 131 q 513 0 647 0 l 107 0 l 300 971 l 658 971 m 1056 486 q 1061 551 1061 531 q 1008 751 1061 661 q 863 892 956 840 q 654 943 771 943 l 322 943 l 140 28 l 517 28 q 760 90 643 28 q 957 256 878 151 q 1056 486 1036 361 m 303 -125 l 604 -125 l 599 -153 l 297 -153 l 303 -125 z "},"ǅ":{"ha":1836,"x_min":107,"x_max":1826,"o":"m 658 971 q 878 917 781 971 q 1032 768 976 863 q 1088 557 1088 674 q 1082 483 1088 517 q 978 242 1063 353 q 771 65 894 131 q 513 0 647 0 l 107 0 l 300 971 l 658 971 m 1056 486 q 1061 551 1061 531 q 1008 751 1061 661 q 863 892 956 840 q 654 943 771 943 l 322 943 l 140 28 l 517 28 q 760 90 643 28 q 957 256 878 151 q 1056 486 1036 361 m 1826 717 l 1819 682 l 1175 28 l 1699 26 l 1693 -1 l 1142 0 l 1149 35 l 1793 689 l 1292 690 l 1297 718 l 1826 717 m 1735 1019 l 1771 1019 l 1606 867 l 1561 867 l 1454 1019 l 1490 1019 l 1588 892 l 1735 1019 z "},"E":{"ha":894,"x_min":106,"x_max":907,"o":"m 901 943 l 322 943 l 236 514 l 751 514 l 746 486 l 231 486 l 139 28 l 738 28 l 732 0 l 106 0 l 300 971 l 907 971 l 901 943 z "},"É":{"ha":894,"x_min":106,"x_max":907,"o":"m 901 943 l 322 943 l 236 514 l 751 514 l 746 486 l 231 486 l 139 28 l 738 28 l 732 0 l 106 0 l 300 971 l 907 971 l 901 943 m 783 1238 l 810 1224 l 631 1078 l 594 1085 l 783 1238 z "},"Ĕ":{"ha":894,"x_min":106,"x_max":907,"o":"m 901 943 l 322 943 l 236 514 l 751 514 l 746 486 l 231 486 l 139 28 l 738 28 l 732 0 l 106 0 l 300 971 l 907 971 l 901 943 m 542 1217 q 540 1197 540 1210 q 567 1126 540 1154 q 636 1099 593 1099 q 726 1133 685 1099 q 778 1217 767 1167 l 806 1217 q 742 1113 792 1154 q 632 1071 692 1071 q 545 1104 579 1071 q 511 1190 511 1138 q 514 1217 511 1200 l 542 1217 z "},"Ě":{"ha":894,"x_min":106,"x_max":907,"o":"m 901 943 l 322 943 l 236 514 l 751 514 l 746 486 l 231 486 l 139 28 l 738 28 l 732 0 l 106 0 l 300 971 l 907 971 l 901 943 m 783 1231 l 819 1231 l 654 1078 l 610 1078 l 503 1231 l 539 1231 l 636 1103 l 783 1231 z "},"Ḝ":{"ha":894,"x_min":106,"x_max":907,"o":"m 626 1071 q 540 1104 574 1071 q 506 1190 506 1138 q 508 1217 506 1200 l 536 1217 q 535 1197 535 1210 q 561 1126 535 1154 q 631 1099 588 1099 q 720 1133 679 1099 q 772 1217 761 1167 l 800 1217 q 736 1113 786 1154 q 626 1071 686 1071 m 322 943 l 236 514 l 751 514 l 746 486 l 231 486 l 139 28 l 738 28 l 732 0 l 474 0 l 438 -75 q 508 -101 483 -76 q 532 -162 532 -126 q 513 -226 532 -194 q 460 -276 494 -257 q 383 -296 426 -296 q 329 -287 357 -296 q 288 -265 301 -279 l 306 -237 q 343 -258 319 -250 q 389 -267 367 -267 q 470 -236 439 -267 q 501 -168 501 -206 q 484 -120 501 -139 q 436 -101 467 -101 l 396 -101 l 444 0 l 106 0 l 300 971 l 907 971 l 901 943 l 322 943 z "},"Ê":{"ha":894,"x_min":106,"x_max":907,"o":"m 901 943 l 322 943 l 236 514 l 751 514 l 746 486 l 231 486 l 139 28 l 738 28 l 732 0 l 106 0 l 300 971 l 907 971 l 901 943 m 790 1078 l 754 1078 l 657 1206 l 510 1078 l 474 1078 l 639 1231 l 683 1231 l 790 1078 z "},"Ế":{"ha":894,"x_min":106,"x_max":907,"o":"m 901 943 l 322 943 l 236 514 l 751 514 l 746 486 l 231 486 l 139 28 l 738 28 l 732 0 l 106 0 l 300 971 l 907 971 l 901 943 m 804 1076 l 767 1076 l 656 1172 l 500 1076 l 460 1076 l 632 1188 l 676 1188 l 804 1076 m 801 1367 l 825 1349 l 624 1236 l 589 1249 l 801 1367 z "},"Ệ":{"ha":894,"x_min":106,"x_max":907,"o":"m 901 943 l 322 943 l 236 514 l 751 514 l 746 486 l 231 486 l 139 28 l 738 28 l 732 0 l 106 0 l 300 971 l 907 971 l 901 943 m 438 -111 q 458 -120 450 -111 q 467 -142 467 -129 q 453 -171 467 -158 q 422 -183 439 -183 q 401 -174 410 -183 q 393 -153 393 -165 q 407 -124 393 -136 q 438 -111 421 -111 m 785 1078 l 749 1078 l 651 1206 l 504 1078 l 468 1078 l 633 1231 l 678 1231 l 785 1078 z "},"Ề":{"ha":894,"x_min":106,"x_max":907,"o":"m 901 943 l 322 943 l 236 514 l 751 514 l 746 486 l 231 486 l 139 28 l 738 28 l 732 0 l 106 0 l 300 971 l 907 971 l 901 943 m 803 1076 l 765 1076 l 654 1172 l 499 1076 l 458 1076 l 631 1188 l 675 1188 l 803 1076 m 540 1367 l 753 1249 l 718 1236 l 517 1349 l 540 1367 z "},"Ể":{"ha":894,"x_min":106,"x_max":907,"o":"m 901 943 l 322 943 l 236 514 l 751 514 l 746 486 l 231 486 l 139 28 l 738 28 l 732 0 l 106 0 l 300 971 l 907 971 l 901 943 m 689 1076 l 651 1076 l 540 1172 l 385 1076 l 344 1076 l 517 1188 l 561 1188 l 689 1076 m 576 1426 q 633 1408 614 1426 q 653 1358 653 1389 q 626 1294 653 1326 q 551 1238 599 1261 l 526 1249 q 597 1299 571 1271 q 622 1353 622 1326 q 608 1385 622 1372 q 569 1397 594 1397 q 503 1378 539 1397 l 492 1400 q 576 1426 540 1426 z "},"Ễ":{"ha":894,"x_min":106,"x_max":907,"o":"m 901 943 l 322 943 l 236 514 l 751 514 l 746 486 l 231 486 l 139 28 l 738 28 l 732 0 l 106 0 l 300 971 l 907 971 l 901 943 m 803 1076 l 765 1076 l 654 1172 l 499 1076 l 458 1076 l 631 1188 l 675 1188 l 803 1076 m 861 1343 q 821 1272 853 1299 q 743 1246 789 1246 q 698 1256 717 1246 q 657 1286 679 1267 q 620 1313 635 1304 q 585 1322 606 1322 q 530 1303 551 1322 q 501 1250 508 1283 l 474 1250 q 511 1322 482 1296 q 585 1349 540 1349 q 630 1338 611 1349 q 671 1308 649 1328 q 708 1281 693 1290 q 743 1272 722 1272 q 803 1292 776 1272 q 835 1343 829 1311 l 861 1343 z "},"Ȅ":{"ha":894,"x_min":106,"x_max":907,"o":"m 901 943 l 322 943 l 236 514 l 751 514 l 746 486 l 231 486 l 139 28 l 738 28 l 732 0 l 106 0 l 300 971 l 907 971 l 901 943 m 486 1231 l 596 1078 l 563 1071 l 460 1215 l 486 1231 m 651 1231 l 761 1078 l 728 1071 l 625 1215 l 651 1231 z "},"Ë":{"ha":894,"x_min":106,"x_max":907,"o":"m 901 943 l 322 943 l 236 514 l 751 514 l 746 486 l 231 486 l 139 28 l 738 28 l 732 0 l 106 0 l 300 971 l 907 971 l 901 943 m 543 1150 q 564 1141 556 1150 q 572 1119 572 1132 q 558 1090 572 1103 q 528 1078 544 1078 q 507 1087 515 1078 q 499 1108 499 1096 q 513 1138 499 1125 q 543 1150 526 1150 m 751 1150 q 772 1141 764 1150 q 781 1119 781 1132 q 767 1090 781 1103 q 736 1078 753 1078 q 715 1087 724 1078 q 707 1108 707 1096 q 721 1138 707 1125 q 751 1150 735 1150 z "},"Ė":{"ha":894,"x_min":106,"x_max":907,"o":"m 901 943 l 322 943 l 236 514 l 751 514 l 746 486 l 231 486 l 139 28 l 738 28 l 732 0 l 106 0 l 300 971 l 907 971 l 901 943 m 647 1150 q 668 1141 660 1150 q 676 1119 676 1132 q 663 1090 676 1103 q 632 1078 649 1078 q 611 1087 619 1078 q 603 1108 603 1096 q 617 1138 603 1125 q 647 1150 631 1150 z "},"Ẹ":{"ha":894,"x_min":106,"x_max":907,"o":"m 901 943 l 322 943 l 236 514 l 751 514 l 746 486 l 231 486 l 139 28 l 738 28 l 732 0 l 106 0 l 300 971 l 907 971 l 901 943 m 438 -111 q 458 -120 450 -111 q 467 -142 467 -129 q 453 -171 467 -158 q 422 -183 439 -183 q 401 -174 410 -183 q 393 -153 393 -165 q 407 -124 393 -136 q 438 -111 421 -111 z "},"È":{"ha":894,"x_min":106,"x_max":907,"o":"m 901 943 l 322 943 l 236 514 l 751 514 l 746 486 l 231 486 l 139 28 l 738 28 l 732 0 l 106 0 l 300 971 l 907 971 l 901 943 m 535 1238 l 724 1085 l 688 1078 l 508 1224 l 535 1238 z "},"Ẻ":{"ha":894,"x_min":106,"x_max":907,"o":"m 901 943 l 322 943 l 236 514 l 751 514 l 746 486 l 231 486 l 139 28 l 738 28 l 732 0 l 106 0 l 300 971 l 907 971 l 901 943 m 650 1282 q 714 1259 692 1282 q 736 1201 736 1236 q 709 1125 736 1164 q 635 1056 682 1086 l 608 1067 q 681 1131 654 1096 q 708 1196 708 1165 q 692 1238 708 1221 q 644 1254 675 1254 q 567 1229 610 1254 l 556 1251 q 650 1282 610 1282 z "},"Ȇ":{"ha":894,"x_min":106,"x_max":907,"o":"m 901 943 l 322 943 l 236 514 l 751 514 l 746 486 l 231 486 l 139 28 l 738 28 l 732 0 l 106 0 l 300 971 l 907 971 l 901 943 m 750 1078 q 751 1097 751 1085 q 725 1168 751 1140 q 656 1196 699 1196 q 566 1162 607 1196 q 514 1078 525 1128 l 486 1078 q 550 1182 500 1140 q 660 1224 600 1224 q 747 1190 713 1224 q 781 1104 781 1157 q 778 1078 781 1094 l 750 1078 z "},"Ē":{"ha":894,"x_min":106,"x_max":907,"o":"m 901 943 l 322 943 l 236 514 l 751 514 l 746 486 l 231 486 l 139 28 l 738 28 l 732 0 l 106 0 l 300 971 l 907 971 l 901 943 m 418 1113 l 858 1113 l 853 1085 l 413 1085 l 418 1113 z "},"Ḗ":{"ha":894,"x_min":106,"x_max":907,"o":"m 901 943 l 322 943 l 236 514 l 751 514 l 746 486 l 231 486 l 139 28 l 738 28 l 732 0 l 106 0 l 300 971 l 907 971 l 901 943 z "},"Ḕ":{"ha":894,"x_min":106,"x_max":907,"o":"m 901 943 l 322 943 l 236 514 l 751 514 l 746 486 l 231 486 l 139 28 l 738 28 l 732 0 l 106 0 l 300 971 l 907 971 l 901 943 z "},"Ę":{"ha":894,"x_min":106,"x_max":907,"o":"m 322 943 l 236 514 l 751 514 l 746 486 l 231 486 l 139 28 l 738 28 l 732 0 q 570 -111 618 -65 q 522 -210 522 -157 q 539 -253 522 -237 q 582 -268 556 -268 q 671 -240 622 -268 l 679 -262 q 575 -296 625 -296 q 515 -274 536 -296 q 493 -214 493 -253 q 538 -106 493 -153 q 685 0 583 -58 l 106 0 l 300 971 l 907 971 l 901 943 l 322 943 z "},"Ẽ":{"ha":894,"x_min":106,"x_max":907,"o":"m 901 943 l 322 943 l 236 514 l 751 514 l 746 486 l 231 486 l 139 28 l 738 28 l 732 0 l 106 0 l 300 971 l 907 971 l 901 943 m 836 1185 q 793 1103 825 1133 q 715 1072 761 1072 q 672 1083 689 1072 q 631 1119 656 1094 q 597 1151 613 1140 q 560 1163 581 1163 q 503 1140 526 1163 q 474 1078 481 1118 l 447 1078 q 488 1160 458 1131 q 561 1190 517 1190 q 604 1179 588 1190 q 646 1143 621 1168 q 680 1111 664 1122 q 717 1100 696 1100 q 776 1123 750 1100 q 810 1185 803 1146 l 836 1185 z "},"F":{"ha":757,"x_min":106,"x_max":865,"o":"m 860 943 l 322 943 l 229 476 l 703 476 l 697 449 l 224 449 l 133 0 l 106 0 l 300 971 l 865 971 l 860 943 z "},"G":{"ha":1076,"x_min":96,"x_max":965,"o":"m 919 476 l 947 476 l 878 124 q 721 28 801 61 q 549 -4 640 -4 q 318 55 422 -4 q 155 217 214 114 q 96 442 96 319 q 99 489 96 456 q 190 733 111 621 q 389 910 268 844 q 643 976 510 976 q 822 943 739 976 q 965 850 904 910 l 946 832 q 810 919 888 889 q 643 950 732 950 q 399 888 514 950 q 211 719 285 825 q 125 486 138 613 q 122 442 122 456 q 178 230 122 326 q 332 78 235 133 q 549 22 429 22 q 853 135 711 22 l 919 476 z "},"Ğ":{"ha":1076,"x_min":96,"x_max":965,"o":"m 919 476 l 947 476 l 878 124 q 721 28 801 61 q 549 -4 640 -4 q 318 55 422 -4 q 155 217 214 114 q 96 442 96 319 q 99 489 96 456 q 190 733 111 621 q 389 910 268 844 q 643 976 510 976 q 822 943 739 976 q 965 850 904 910 l 946 832 q 810 919 888 889 q 643 950 732 950 q 399 888 514 950 q 211 719 285 825 q 125 486 138 613 q 122 442 122 456 q 178 230 122 326 q 332 78 235 133 q 549 22 429 22 q 853 135 711 22 l 919 476 m 563 1217 q 561 1197 561 1210 q 588 1126 561 1154 q 657 1099 614 1099 q 747 1133 706 1099 q 799 1217 788 1167 l 826 1217 q 763 1113 813 1154 q 653 1071 713 1071 q 566 1104 600 1071 q 532 1190 532 1138 q 535 1217 532 1200 l 563 1217 z "},"Ǧ":{"ha":1076,"x_min":96,"x_max":965,"o":"m 919 476 l 947 476 l 878 124 q 721 28 801 61 q 549 -4 640 -4 q 318 55 422 -4 q 155 217 214 114 q 96 442 96 319 q 99 489 96 456 q 190 733 111 621 q 389 910 268 844 q 643 976 510 976 q 822 943 739 976 q 965 850 904 910 l 946 832 q 810 919 888 889 q 643 950 732 950 q 399 888 514 950 q 211 719 285 825 q 125 486 138 613 q 122 442 122 456 q 178 230 122 326 q 332 78 235 133 q 549 22 429 22 q 853 135 711 22 l 919 476 m 804 1231 l 840 1231 l 675 1078 l 631 1078 l 524 1231 l 560 1231 l 657 1103 l 804 1231 z "},"Ĝ":{"ha":1076,"x_min":96,"x_max":965,"o":"m 919 476 l 947 476 l 878 124 q 721 28 801 61 q 549 -4 640 -4 q 318 55 422 -4 q 155 217 214 114 q 96 442 96 319 q 99 489 96 456 q 190 733 111 621 q 389 910 268 844 q 643 976 510 976 q 822 943 739 976 q 965 850 904 910 l 946 832 q 810 919 888 889 q 643 950 732 950 q 399 888 514 950 q 211 719 285 825 q 125 486 138 613 q 122 442 122 456 q 178 230 122 326 q 332 78 235 133 q 549 22 429 22 q 853 135 711 22 l 919 476 m 811 1078 l 775 1078 l 678 1206 l 531 1078 l 494 1078 l 660 1231 l 704 1231 l 811 1078 z "},"Ģ":{"ha":1076,"x_min":96,"x_max":965,"o":"m 919 476 l 947 476 l 878 124 q 721 28 801 61 q 549 -4 640 -4 q 318 55 422 -4 q 155 217 214 114 q 96 442 96 319 q 99 489 96 456 q 190 733 111 621 q 389 910 268 844 q 643 976 510 976 q 822 943 739 976 q 965 850 904 910 l 946 832 q 810 919 888 889 q 643 950 732 950 q 399 888 514 950 q 211 719 285 825 q 125 486 138 613 q 122 442 122 456 q 178 230 122 326 q 332 78 235 133 q 549 22 429 22 q 853 135 711 22 l 919 476 m 501 -90 l 538 -90 l 438 -297 l 413 -297 l 501 -90 z "},"Ġ":{"ha":1076,"x_min":96,"x_max":965,"o":"m 919 476 l 947 476 l 878 124 q 721 28 801 61 q 549 -4 640 -4 q 318 55 422 -4 q 155 217 214 114 q 96 442 96 319 q 99 489 96 456 q 190 733 111 621 q 389 910 268 844 q 643 976 510 976 q 822 943 739 976 q 965 850 904 910 l 946 832 q 810 919 888 889 q 643 950 732 950 q 399 888 514 950 q 211 719 285 825 q 125 486 138 613 q 122 442 122 456 q 178 230 122 326 q 332 78 235 133 q 549 22 429 22 q 853 135 711 22 l 919 476 m 668 1150 q 689 1141 681 1150 q 697 1119 697 1132 q 683 1090 697 1103 q 653 1078 669 1078 q 632 1087 640 1078 q 624 1108 624 1096 q 638 1138 624 1125 q 668 1150 651 1150 z "},"Ḡ":{"ha":1076,"x_min":96,"x_max":965,"o":"m 919 476 l 947 476 l 878 124 q 721 28 801 61 q 549 -4 640 -4 q 318 55 422 -4 q 155 217 214 114 q 96 442 96 319 q 99 489 96 456 q 190 733 111 621 q 389 910 268 844 q 643 976 510 976 q 822 943 739 976 q 965 850 904 910 l 946 832 q 810 919 888 889 q 643 950 732 950 q 399 888 514 950 q 211 719 285 825 q 125 486 138 613 q 122 442 122 456 q 178 230 122 326 q 332 78 235 133 q 549 22 429 22 q 853 135 711 22 l 919 476 m 439 1113 l 879 1113 l 874 1085 l 433 1085 l 439 1113 z "},"H":{"ha":1293,"x_min":197,"x_max":1146,"o":"m 1118 971 l 1146 971 l 951 0 l 924 0 l 1019 476 l 321 476 l 225 0 l 197 0 l 392 971 l 419 971 l 326 504 l 1025 504 l 1118 971 z "},"Ħ":{"ha":1138,"x_min":119,"x_max":1138,"o":"m 1138 760 l 1132 732 l 1021 732 l 874 0 l 846 0 l 942 476 l 243 476 l 147 0 l 119 0 l 267 732 l 156 732 l 161 760 l 272 760 l 314 971 l 342 971 l 300 760 l 999 760 l 1040 971 l 1068 971 l 1026 760 l 1138 760 m 947 504 l 993 732 l 294 732 l 249 504 l 947 504 z "},"Ḫ":{"ha":1293,"x_min":197,"x_max":1146,"o":"m 1118 971 l 1146 971 l 951 0 l 924 0 l 1019 476 l 321 476 l 225 0 l 197 0 l 392 971 l 419 971 l 326 504 l 1025 504 l 1118 971 m 443 -69 q 442 -89 442 -76 q 468 -160 442 -132 q 538 -187 494 -187 q 627 -153 586 -187 q 679 -69 668 -119 l 707 -69 q 643 -174 693 -132 q 533 -215 593 -215 q 447 -182 481 -215 q 413 -96 413 -149 q 415 -69 413 -86 l 443 -69 z "},"Ĥ":{"ha":1293,"x_min":197,"x_max":1146,"o":"m 1118 971 l 1146 971 l 951 0 l 924 0 l 1019 476 l 321 476 l 225 0 l 197 0 l 392 971 l 419 971 l 326 504 l 1025 504 l 1118 971 m 949 1078 l 913 1078 l 815 1206 l 668 1078 l 632 1078 l 797 1231 l 842 1231 l 949 1078 z "},"Ḥ":{"ha":1293,"x_min":197,"x_max":1146,"o":"m 1118 971 l 1146 971 l 951 0 l 924 0 l 1019 476 l 321 476 l 225 0 l 197 0 l 392 971 l 419 971 l 326 504 l 1025 504 l 1118 971 m 554 -111 q 575 -120 567 -111 q 583 -142 583 -129 q 569 -171 583 -158 q 539 -183 556 -183 q 518 -174 526 -183 q 510 -153 510 -165 q 524 -124 510 -136 q 554 -111 538 -111 z "},"I":{"ha":383,"x_min":104,"x_max":326,"o":"m 326 971 l 132 0 l 104 0 l 299 971 l 326 971 z "},"Ĳ":{"ha":1021,"x_min":104,"x_max":990,"o":"m 326 971 l 132 0 l 104 0 l 299 971 l 326 971 m 990 971 l 851 274 q 748 71 824 142 q 557 0 672 0 q 431 35 486 0 q 343 136 375 71 l 367 156 q 447 60 397 93 q 563 28 497 28 q 733 91 665 28 q 824 274 800 154 l 957 943 l 593 943 l 599 971 l 990 971 z "},"Í":{"ha":383,"x_min":104,"x_max":513,"o":"m 326 971 l 132 0 l 104 0 l 299 971 l 326 971 m 486 1238 l 513 1224 l 333 1078 l 297 1085 l 486 1238 z "},"Ĭ":{"ha":383,"x_min":104,"x_max":508,"o":"m 326 971 l 132 0 l 104 0 l 299 971 l 326 971 m 244 1217 q 243 1197 243 1210 q 269 1126 243 1154 q 339 1099 296 1099 q 428 1133 388 1099 q 481 1217 469 1167 l 508 1217 q 444 1113 494 1154 q 335 1071 394 1071 q 248 1104 282 1071 q 214 1190 214 1138 q 217 1217 214 1200 l 244 1217 z "},"Î":{"ha":383,"x_min":104,"x_max":493,"o":"m 326 971 l 132 0 l 104 0 l 299 971 l 326 971 m 493 1078 l 457 1078 l 360 1206 l 213 1078 l 176 1078 l 342 1231 l 386 1231 l 493 1078 z "},"Ȉ":{"ha":383,"x_min":104,"x_max":464,"o":"m 326 971 l 132 0 l 104 0 l 299 971 l 326 971 m 189 1231 l 299 1078 l 265 1071 l 163 1215 l 189 1231 m 354 1231 l 464 1078 l 431 1071 l 328 1215 l 354 1231 z "},"Ï":{"ha":383,"x_min":104,"x_max":483,"o":"m 326 971 l 132 0 l 104 0 l 299 971 l 326 971 m 246 1150 q 267 1141 258 1150 q 275 1119 275 1132 q 261 1090 275 1103 q 231 1078 247 1078 q 210 1087 218 1078 q 201 1108 201 1096 q 215 1138 201 1125 q 246 1150 229 1150 m 454 1150 q 475 1141 467 1150 q 483 1119 483 1132 q 469 1090 483 1103 q 439 1078 456 1078 q 418 1087 426 1078 q 410 1108 410 1096 q 424 1138 410 1125 q 454 1150 438 1150 z "},"Ḯ":{"ha":383,"x_min":104,"x_max":521,"o":"m 326 971 l 132 0 l 104 0 l 299 971 l 326 971 z "},"İ":{"ha":383,"x_min":104,"x_max":379,"o":"m 326 971 l 132 0 l 104 0 l 299 971 l 326 971 m 350 1150 q 371 1141 363 1150 q 379 1119 379 1132 q 365 1090 379 1103 q 335 1078 351 1078 q 314 1087 322 1078 q 306 1108 306 1096 q 319 1138 306 1125 q 350 1150 333 1150 z "},"Ị":{"ha":383,"x_min":54,"x_max":326,"o":"m 326 971 l 132 0 l 104 0 l 299 971 l 326 971 m 99 -111 q 119 -120 111 -111 q 128 -142 128 -129 q 114 -171 128 -158 q 83 -183 100 -183 q 63 -174 71 -183 q 54 -153 54 -165 q 68 -124 54 -136 q 99 -111 82 -111 z "},"Ì":{"ha":383,"x_min":104,"x_max":426,"o":"m 326 971 l 132 0 l 104 0 l 299 971 l 326 971 m 238 1238 l 426 1085 l 390 1078 l 211 1224 l 238 1238 z "},"Ỉ":{"ha":383,"x_min":104,"x_max":439,"o":"m 326 971 l 132 0 l 104 0 l 299 971 l 326 971 m 353 1282 q 417 1259 394 1282 q 439 1201 439 1236 q 412 1125 439 1164 q 338 1056 385 1086 l 311 1067 q 384 1131 357 1096 q 411 1196 411 1165 q 394 1238 411 1221 q 347 1254 378 1254 q 269 1229 313 1254 l 258 1251 q 353 1282 313 1282 z "},"Ȋ":{"ha":383,"x_min":104,"x_max":483,"o":"m 326 971 l 132 0 l 104 0 l 299 971 l 326 971 m 453 1078 q 454 1097 454 1085 q 428 1168 454 1140 q 358 1196 401 1196 q 269 1162 310 1196 q 217 1078 228 1128 l 189 1078 q 253 1182 203 1140 q 363 1224 303 1224 q 449 1190 415 1224 q 483 1104 483 1157 q 481 1078 483 1094 l 453 1078 z "},"Ī":{"ha":383,"x_min":104,"x_max":519,"o":"m 326 971 l 132 0 l 104 0 l 299 971 l 326 971 m 163 1113 l 519 1113 l 514 1085 l 157 1085 l 163 1113 z "},"Į":{"ha":383,"x_min":-107,"x_max":326,"o":"m 132 0 q -30 -111 18 -65 q -78 -210 -78 -157 q -61 -253 -78 -237 q -18 -268 -44 -268 q 71 -240 22 -268 l 79 -262 q -25 -296 25 -296 q -85 -274 -64 -296 q -107 -214 -107 -253 q -57 -101 -107 -150 q 107 13 -7 -51 l 299 971 l 326 971 l 132 0 z "},"Ĩ":{"ha":383,"x_min":104,"x_max":539,"o":"m 326 971 l 132 0 l 104 0 l 299 971 l 326 971 m 539 1185 q 496 1103 528 1133 q 418 1072 464 1072 q 375 1083 392 1072 q 333 1119 358 1094 q 299 1151 315 1140 q 263 1163 283 1163 q 206 1140 229 1163 q 176 1078 183 1118 l 150 1078 q 190 1160 161 1131 q 264 1190 219 1190 q 307 1179 290 1190 q 349 1143 324 1168 q 383 1111 367 1122 q 419 1100 399 1100 q 479 1123 453 1100 q 513 1185 506 1146 l 539 1185 z "},"J":{"ha":638,"x_min":-40,"x_max":607,"o":"m 607 971 l 468 274 q 365 71 440 142 q 174 0 289 0 q 47 35 103 0 q -40 136 -8 71 l -17 156 q 64 60 14 93 q 179 28 114 28 q 349 91 282 28 q 440 274 417 154 l 574 943 l 210 943 l 215 971 l 607 971 z "},"Ĵ":{"ha":638,"x_min":-40,"x_max":607,"o":"m 607 971 l 468 274 q 365 71 440 142 q 174 0 289 0 q 47 35 103 0 q -40 136 -8 71 l -17 156 q 64 60 14 93 q 179 28 114 28 q 349 91 282 28 q 440 274 417 154 l 574 943 l 210 943 l 215 971 l 607 971 m 585 1078 l 549 1078 l 451 1206 l 304 1078 l 268 1078 l 433 1231 l 478 1231 l 585 1078 z "},"K":{"ha":931,"x_min":106,"x_max":981,"o":"m 981 971 l 490 533 l 817 0 l 783 0 l 468 514 l 186 263 l 133 0 l 106 0 l 300 971 l 328 971 l 194 308 l 939 971 l 981 971 z "},"Ķ":{"ha":931,"x_min":106,"x_max":981,"o":"m 981 971 l 490 533 l 817 0 l 783 0 l 468 514 l 186 263 l 133 0 l 106 0 l 300 971 l 328 971 l 194 308 l 939 971 l 981 971 m 360 -90 l 396 -90 l 296 -297 l 271 -297 l 360 -90 z "},"L":{"ha":682,"x_min":106,"x_max":574,"o":"m 139 28 l 574 28 l 568 0 l 106 0 l 300 971 l 328 971 l 139 28 z "},"Ǉ":{"ha":1319,"x_min":106,"x_max":1289,"o":"m 139 28 l 574 28 l 568 0 l 106 0 l 300 971 l 328 971 l 139 28 m 1289 971 l 1150 274 q 1047 71 1122 142 q 856 0 971 0 q 729 35 785 0 q 642 136 674 71 l 665 156 q 746 60 696 93 q 861 28 796 28 q 1031 91 964 28 q 1122 274 1099 154 l 1256 943 l 892 943 l 897 971 l 1289 971 z "},"Ĺ":{"ha":682,"x_min":106,"x_max":574,"o":"m 139 28 l 574 28 l 568 0 l 106 0 l 300 971 l 328 971 l 139 28 m 500 1238 l 526 1224 l 347 1078 l 311 1085 l 500 1238 z "},"Ľ":{"ha":682,"x_min":106,"x_max":604,"o":"m 139 28 l 574 28 l 568 0 l 106 0 l 300 971 l 328 971 l 139 28 m 576 971 l 604 971 l 553 722 l 528 722 l 576 971 z "},"Ļ":{"ha":682,"x_min":106,"x_max":574,"o":"m 139 28 l 574 28 l 568 0 l 106 0 l 300 971 l 328 971 l 139 28 m 308 -90 l 344 -90 l 244 -297 l 219 -297 l 308 -90 z "},"Ŀ":{"ha":682,"x_min":106,"x_max":574,"o":"m 139 28 l 574 28 l 568 0 l 106 0 l 300 971 l 328 971 l 139 28 m 538 578 q 558 569 550 578 q 567 547 567 560 q 553 518 567 531 q 522 506 539 506 q 501 515 510 506 q 493 536 493 524 q 507 565 493 553 q 538 578 521 578 z "},"Ḷ":{"ha":682,"x_min":106,"x_max":574,"o":"m 139 28 l 574 28 l 568 0 l 106 0 l 300 971 l 328 971 l 139 28 m 321 -111 q 342 -120 333 -111 q 350 -142 350 -129 q 336 -171 350 -158 q 306 -183 322 -183 q 285 -174 293 -183 q 276 -153 276 -165 q 290 -124 276 -136 q 321 -111 304 -111 z "},"ǈ":{"ha":1001,"x_min":106,"x_max":990,"o":"m 139 28 l 574 28 l 568 0 l 106 0 l 300 971 l 328 971 l 139 28 m 501 -225 q 571 -240 531 -237 q 683 -191 638 -242 q 747 -42 728 -140 l 899 718 l 926 718 l 775 -44 q 702 -212 753 -156 q 574 -268 651 -268 q 488 -249 529 -268 l 501 -225 m 961 961 q 982 952 974 961 q 990 931 990 943 q 976 901 990 914 q 946 889 963 889 q 925 898 933 889 q 917 919 917 907 q 931 949 917 936 q 961 961 944 961 z "},"Ḻ":{"ha":682,"x_min":106,"x_max":574,"o":"m 139 28 l 574 28 l 568 0 l 106 0 l 300 971 l 328 971 l 139 28 m 167 -125 l 468 -125 l 463 -153 l 161 -153 l 167 -125 z "},"Ł":{"ha":704,"x_min":85,"x_max":596,"o":"m 161 28 l 596 28 l 590 0 l 128 0 l 224 482 l 85 407 l 90 439 l 231 514 l 322 971 l 350 971 l 261 531 l 463 639 l 457 607 l 256 499 l 161 28 z "},"M":{"ha":1303,"x_min":110,"x_max":1240,"o":"m 1192 971 l 1240 971 l 1051 0 l 1024 0 l 1206 946 l 603 107 l 600 107 l 321 944 l 138 0 l 110 0 l 299 971 l 347 971 l 614 167 l 1192 971 z "},"Ṃ":{"ha":1303,"x_min":110,"x_max":1240,"o":"m 1192 971 l 1240 971 l 1051 0 l 1024 0 l 1206 946 l 603 107 l 600 107 l 321 944 l 138 0 l 110 0 l 299 971 l 347 971 l 614 167 l 1192 971 m 567 -111 q 588 -120 579 -111 q 596 -142 596 -129 q 582 -171 596 -158 q 551 -183 568 -183 q 531 -174 539 -183 q 522 -153 522 -165 q 536 -124 522 -136 q 567 -111 550 -111 z "},"N":{"ha":1110,"x_min":106,"x_max":1054,"o":"m 1026 971 l 1054 971 l 860 0 l 818 0 l 322 943 l 133 0 l 106 0 l 300 971 l 342 971 l 838 28 l 1026 971 z "},"Ǌ":{"ha":1747,"x_min":106,"x_max":1717,"o":"m 1026 971 l 1054 971 l 860 0 l 818 0 l 322 943 l 133 0 l 106 0 l 300 971 l 342 971 l 838 28 l 1026 971 m 1717 971 l 1578 274 q 1474 71 1550 142 q 1283 0 1399 0 q 1157 35 1213 0 q 1069 136 1101 71 l 1093 156 q 1174 60 1124 93 q 1289 28 1224 28 q 1459 91 1392 28 q 1550 274 1526 154 l 1683 943 l 1319 943 l 1325 971 l 1717 971 z "},"Ń":{"ha":1110,"x_min":106,"x_max":1054,"o":"m 1026 971 l 1054 971 l 860 0 l 818 0 l 322 943 l 133 0 l 106 0 l 300 971 l 342 971 l 838 28 l 1026 971 m 850 1238 l 876 1224 l 697 1078 l 661 1085 l 850 1238 z "},"Ň":{"ha":1110,"x_min":106,"x_max":1054,"o":"m 1026 971 l 1054 971 l 860 0 l 818 0 l 322 943 l 133 0 l 106 0 l 300 971 l 342 971 l 838 28 l 1026 971 m 850 1231 l 886 1231 l 721 1078 l 676 1078 l 569 1231 l 606 1231 l 703 1103 l 850 1231 z "},"Ņ":{"ha":1110,"x_min":106,"x_max":1054,"o":"m 1026 971 l 1054 971 l 860 0 l 818 0 l 322 943 l 133 0 l 106 0 l 300 971 l 342 971 l 838 28 l 1026 971 m 450 -90 l 486 -90 l 386 -297 l 361 -297 l 450 -90 z "},"Ṅ":{"ha":1110,"x_min":106,"x_max":1054,"o":"m 1026 971 l 1054 971 l 860 0 l 818 0 l 322 943 l 133 0 l 106 0 l 300 971 l 342 971 l 838 28 l 1026 971 m 714 1150 q 735 1141 726 1150 q 743 1119 743 1132 q 729 1090 743 1103 q 699 1078 715 1078 q 678 1087 686 1078 q 669 1108 669 1096 q 683 1138 669 1125 q 714 1150 697 1150 z "},"Ṇ":{"ha":1110,"x_min":106,"x_max":1054,"o":"m 1026 971 l 1054 971 l 860 0 l 818 0 l 322 943 l 133 0 l 106 0 l 300 971 l 342 971 l 838 28 l 1026 971 m 463 -111 q 483 -120 475 -111 q 492 -142 492 -129 q 478 -171 492 -158 q 447 -183 464 -183 q 426 -174 435 -183 q 418 -153 418 -165 q 432 -124 418 -136 q 463 -111 446 -111 z "},"Ŋ":{"ha":1110,"x_min":106,"x_max":1054,"o":"m 1054 971 l 860 0 q 758 -202 833 -132 q 567 -272 682 -272 q 440 -237 496 -272 q 351 -136 385 -201 l 375 -117 q 456 -212 406 -179 q 572 -244 507 -244 q 740 -182 674 -244 q 832 0 807 -119 l 818 0 l 322 943 l 133 0 l 106 0 l 300 971 l 342 971 l 838 28 l 1026 971 l 1054 971 z "},"ǋ":{"ha":1419,"x_min":106,"x_max":1408,"o":"m 722 971 q 930 895 853 971 q 1007 697 1007 819 q 999 618 1007 660 l 875 0 l 847 0 l 971 618 q 978 690 978 650 q 907 874 978 804 q 717 943 836 943 q 515 901 610 943 q 351 785 419 858 q 257 621 283 713 l 133 0 l 106 0 l 300 971 l 328 971 l 279 728 q 464 904 344 838 q 722 971 583 971 m 919 -225 q 989 -240 949 -237 q 1101 -191 1056 -242 q 1165 -42 1146 -140 l 1317 718 l 1344 718 l 1193 -44 q 1120 -212 1171 -156 q 992 -268 1069 -268 q 906 -249 947 -268 l 919 -225 m 1379 961 q 1400 952 1392 961 q 1408 931 1408 943 q 1394 901 1408 914 q 1364 889 1381 889 q 1343 898 1351 889 q 1335 919 1335 907 q 1349 949 1335 936 q 1379 961 1363 961 z "},"Ṉ":{"ha":1110,"x_min":106,"x_max":1054,"o":"m 1026 971 l 1054 971 l 860 0 l 818 0 l 322 943 l 133 0 l 106 0 l 300 971 l 342 971 l 838 28 l 1026 971 m 308 -125 l 610 -125 l 604 -153 l 303 -153 l 308 -125 z "},"Ñ":{"ha":1110,"x_min":106,"x_max":1054,"o":"m 1026 971 l 1054 971 l 860 0 l 818 0 l 322 943 l 133 0 l 106 0 l 300 971 l 342 971 l 838 28 l 1026 971 m 903 1185 q 860 1103 892 1133 q 782 1072 828 1072 q 739 1083 756 1072 q 697 1119 722 1094 q 663 1151 679 1140 q 626 1163 647 1163 q 570 1140 593 1163 q 540 1078 547 1118 l 514 1078 q 554 1160 525 1131 q 628 1190 583 1190 q 671 1179 654 1190 q 713 1143 688 1168 q 747 1111 731 1122 q 783 1100 763 1100 q 843 1123 817 1100 q 876 1185 869 1146 l 903 1185 z "},"O":{"ha":1142,"x_min":96,"x_max":1099,"o":"m 643 976 q 874 917 769 976 q 1039 756 979 858 q 1099 532 1099 654 q 1096 485 1099 515 q 1004 242 1083 354 q 803 63 925 129 q 549 -4 682 -4 q 318 55 422 -4 q 155 217 214 114 q 96 442 96 319 q 99 489 96 456 q 190 733 111 621 q 389 910 268 844 q 643 976 510 976 m 643 949 q 401 886 515 949 q 213 717 286 824 q 126 486 139 611 q 124 442 124 456 q 179 231 124 326 q 333 79 235 135 q 549 24 431 24 q 792 86 676 24 q 981 256 907 149 q 1068 488 1056 363 q 1071 532 1071 518 q 1015 742 1071 646 q 860 893 958 838 q 643 949 763 949 z "},"Ó":{"ha":1142,"x_min":96,"x_max":1099,"o":"m 643 976 q 874 917 769 976 q 1039 756 979 858 q 1099 532 1099 654 q 1096 485 1099 515 q 1004 242 1083 354 q 803 63 925 129 q 549 -4 682 -4 q 318 55 422 -4 q 155 217 214 114 q 96 442 96 319 q 99 489 96 456 q 190 733 111 621 q 389 910 268 844 q 643 976 510 976 m 643 949 q 401 886 515 949 q 213 717 286 824 q 126 486 139 611 q 124 442 124 456 q 179 231 124 326 q 333 79 235 135 q 549 24 431 24 q 792 86 676 24 q 981 256 907 149 q 1068 488 1056 363 q 1071 532 1071 518 q 1015 742 1071 646 q 860 893 958 838 q 643 949 763 949 m 815 1238 l 842 1224 l 663 1078 l 626 1085 l 815 1238 z "},"Ŏ":{"ha":1142,"x_min":96,"x_max":1099,"o":"m 643 976 q 874 917 769 976 q 1039 756 979 858 q 1099 532 1099 654 q 1096 485 1099 515 q 1004 242 1083 354 q 803 63 925 129 q 549 -4 682 -4 q 318 55 422 -4 q 155 217 214 114 q 96 442 96 319 q 99 489 96 456 q 190 733 111 621 q 389 910 268 844 q 643 976 510 976 m 643 949 q 401 886 515 949 q 213 717 286 824 q 126 486 139 611 q 124 442 124 456 q 179 231 124 326 q 333 79 235 135 q 549 24 431 24 q 792 86 676 24 q 981 256 907 149 q 1068 488 1056 363 q 1071 532 1071 518 q 1015 742 1071 646 q 860 893 958 838 q 643 949 763 949 m 574 1217 q 572 1197 572 1210 q 599 1126 572 1154 q 668 1099 625 1099 q 758 1133 717 1099 q 810 1217 799 1167 l 838 1217 q 774 1113 824 1154 q 664 1071 724 1071 q 577 1104 611 1071 q 543 1190 543 1138 q 546 1217 543 1200 l 574 1217 z "},"Ô":{"ha":1142,"x_min":96,"x_max":1099,"o":"m 643 976 q 874 917 769 976 q 1039 756 979 858 q 1099 532 1099 654 q 1096 485 1099 515 q 1004 242 1083 354 q 803 63 925 129 q 549 -4 682 -4 q 318 55 422 -4 q 155 217 214 114 q 96 442 96 319 q 99 489 96 456 q 190 733 111 621 q 389 910 268 844 q 643 976 510 976 m 643 949 q 401 886 515 949 q 213 717 286 824 q 126 486 139 611 q 124 442 124 456 q 179 231 124 326 q 333 79 235 135 q 549 24 431 24 q 792 86 676 24 q 981 256 907 149 q 1068 488 1056 363 q 1071 532 1071 518 q 1015 742 1071 646 q 860 893 958 838 q 643 949 763 949 m 822 1078 l 786 1078 l 689 1206 l 542 1078 l 506 1078 l 671 1231 l 715 1231 l 822 1078 z "},"Ố":{"ha":1142,"x_min":96,"x_max":1099,"o":"m 643 976 q 874 917 769 976 q 1039 756 979 858 q 1099 532 1099 654 q 1096 485 1099 515 q 1004 242 1083 354 q 803 63 925 129 q 549 -4 682 -4 q 318 55 422 -4 q 155 217 214 114 q 96 442 96 319 q 99 489 96 456 q 190 733 111 621 q 389 910 268 844 q 643 976 510 976 m 643 949 q 401 886 515 949 q 213 717 286 824 q 126 486 139 611 q 124 442 124 456 q 179 231 124 326 q 333 79 235 135 q 549 24 431 24 q 792 86 676 24 q 981 256 907 149 q 1068 488 1056 363 q 1071 532 1071 518 q 1015 742 1071 646 q 860 893 958 838 q 643 949 763 949 m 836 1076 l 799 1076 l 688 1172 l 532 1076 l 492 1076 l 664 1188 l 708 1188 l 836 1076 m 833 1367 l 857 1349 l 656 1236 l 621 1249 l 833 1367 z "},"Ộ":{"ha":1142,"x_min":96,"x_max":1099,"o":"m 643 976 q 874 917 769 976 q 1039 756 979 858 q 1099 532 1099 654 q 1096 485 1099 515 q 1004 242 1083 354 q 803 63 925 129 q 549 -4 682 -4 q 318 55 422 -4 q 155 217 214 114 q 96 442 96 319 q 99 489 96 456 q 190 733 111 621 q 389 910 268 844 q 643 976 510 976 m 643 949 q 401 886 515 949 q 213 717 286 824 q 126 486 139 611 q 124 442 124 456 q 179 231 124 326 q 333 79 235 135 q 549 24 431 24 q 792 86 676 24 q 981 256 907 149 q 1068 488 1056 363 q 1071 532 1071 518 q 1015 742 1071 646 q 860 893 958 838 q 643 949 763 949 m 519 -111 q 540 -120 532 -111 q 549 -142 549 -129 q 535 -171 549 -158 q 504 -183 521 -183 q 483 -174 492 -183 q 475 -153 475 -165 q 489 -124 475 -136 q 519 -111 503 -111 m 867 1078 l 831 1078 l 733 1206 l 586 1078 l 550 1078 l 715 1231 l 760 1231 l 867 1078 z "},"Ồ":{"ha":1142,"x_min":96,"x_max":1099,"o":"m 643 976 q 874 917 769 976 q 1039 756 979 858 q 1099 532 1099 654 q 1096 485 1099 515 q 1004 242 1083 354 q 803 63 925 129 q 549 -4 682 -4 q 318 55 422 -4 q 155 217 214 114 q 96 442 96 319 q 99 489 96 456 q 190 733 111 621 q 389 910 268 844 q 643 976 510 976 m 643 949 q 401 886 515 949 q 213 717 286 824 q 126 486 139 611 q 124 442 124 456 q 179 231 124 326 q 333 79 235 135 q 549 24 431 24 q 792 86 676 24 q 981 256 907 149 q 1068 488 1056 363 q 1071 532 1071 518 q 1015 742 1071 646 q 860 893 958 838 q 643 949 763 949 m 835 1076 l 797 1076 l 686 1172 l 531 1076 l 490 1076 l 663 1188 l 707 1188 l 835 1076 m 572 1367 l 785 1249 l 750 1236 l 549 1349 l 572 1367 z "},"Ổ":{"ha":1142,"x_min":96,"x_max":1099,"o":"m 643 976 q 874 917 769 976 q 1039 756 979 858 q 1099 532 1099 654 q 1096 485 1099 515 q 1004 242 1083 354 q 803 63 925 129 q 549 -4 682 -4 q 318 55 422 -4 q 155 217 214 114 q 96 442 96 319 q 99 489 96 456 q 190 733 111 621 q 389 910 268 844 q 643 976 510 976 m 643 949 q 401 886 515 949 q 213 717 286 824 q 126 486 139 611 q 124 442 124 456 q 179 231 124 326 q 333 79 235 135 q 549 24 431 24 q 792 86 676 24 q 981 256 907 149 q 1068 488 1056 363 q 1071 532 1071 518 q 1015 742 1071 646 q 860 893 958 838 q 643 949 763 949 m 721 1076 l 683 1076 l 572 1172 l 417 1076 l 376 1076 l 549 1188 l 593 1188 l 721 1076 m 608 1426 q 665 1408 646 1426 q 685 1358 685 1389 q 658 1294 685 1326 q 583 1238 631 1261 l 558 1249 q 628 1299 603 1271 q 654 1353 654 1326 q 640 1385 654 1372 q 601 1397 626 1397 q 535 1378 571 1397 l 524 1400 q 608 1426 572 1426 z "},"Ỗ":{"ha":1142,"x_min":96,"x_max":1099,"o":"m 643 976 q 874 917 769 976 q 1039 756 979 858 q 1099 532 1099 654 q 1096 485 1099 515 q 1004 242 1083 354 q 803 63 925 129 q 549 -4 682 -4 q 318 55 422 -4 q 155 217 214 114 q 96 442 96 319 q 99 489 96 456 q 190 733 111 621 q 389 910 268 844 q 643 976 510 976 m 643 949 q 401 886 515 949 q 213 717 286 824 q 126 486 139 611 q 124 442 124 456 q 179 231 124 326 q 333 79 235 135 q 549 24 431 24 q 792 86 676 24 q 981 256 907 149 q 1068 488 1056 363 q 1071 532 1071 518 q 1015 742 1071 646 q 860 893 958 838 q 643 949 763 949 m 835 1076 l 797 1076 l 686 1172 l 531 1076 l 490 1076 l 663 1188 l 707 1188 l 835 1076 m 893 1343 q 853 1272 885 1299 q 775 1246 821 1246 q 730 1256 749 1246 q 689 1286 711 1267 q 652 1313 667 1304 q 617 1322 638 1322 q 562 1303 583 1322 q 533 1250 540 1283 l 506 1250 q 543 1322 514 1296 q 617 1349 572 1349 q 662 1338 643 1349 q 703 1308 681 1328 q 740 1281 725 1290 q 775 1272 754 1272 q 835 1292 808 1272 q 867 1343 861 1311 l 893 1343 z "},"Ȍ":{"ha":1142,"x_min":96,"x_max":1099,"o":"m 643 976 q 874 917 769 976 q 1039 756 979 858 q 1099 532 1099 654 q 1096 485 1099 515 q 1004 242 1083 354 q 803 63 925 129 q 549 -4 682 -4 q 318 55 422 -4 q 155 217 214 114 q 96 442 96 319 q 99 489 96 456 q 190 733 111 621 q 389 910 268 844 q 643 976 510 976 m 643 949 q 401 886 515 949 q 213 717 286 824 q 126 486 139 611 q 124 442 124 456 q 179 231 124 326 q 333 79 235 135 q 549 24 431 24 q 792 86 676 24 q 981 256 907 149 q 1068 488 1056 363 q 1071 532 1071 518 q 1015 742 1071 646 q 860 893 958 838 q 643 949 763 949 m 518 1231 l 628 1078 l 594 1071 l 492 1215 l 518 1231 m 683 1231 l 793 1078 l 760 1071 l 657 1215 l 683 1231 z "},"Ö":{"ha":1142,"x_min":96,"x_max":1099,"o":"m 643 976 q 874 917 769 976 q 1039 756 979 858 q 1099 532 1099 654 q 1096 485 1099 515 q 1004 242 1083 354 q 803 63 925 129 q 549 -4 682 -4 q 318 55 422 -4 q 155 217 214 114 q 96 442 96 319 q 99 489 96 456 q 190 733 111 621 q 389 910 268 844 q 643 976 510 976 m 643 949 q 401 886 515 949 q 213 717 286 824 q 126 486 139 611 q 124 442 124 456 q 179 231 124 326 q 333 79 235 135 q 549 24 431 24 q 792 86 676 24 q 981 256 907 149 q 1068 488 1056 363 q 1071 532 1071 518 q 1015 742 1071 646 q 860 893 958 838 q 643 949 763 949 m 575 1150 q 596 1141 588 1150 q 604 1119 604 1132 q 590 1090 604 1103 q 560 1078 576 1078 q 539 1087 547 1078 q 531 1108 531 1096 q 544 1138 531 1125 q 575 1150 558 1150 m 783 1150 q 804 1141 796 1150 q 813 1119 813 1132 q 799 1090 813 1103 q 768 1078 785 1078 q 747 1087 756 1078 q 739 1108 739 1096 q 753 1138 739 1125 q 783 1150 767 1150 z "},"Ȫ":{"ha":1142,"x_min":96,"x_max":1099,"o":"m 643 976 q 874 917 769 976 q 1039 756 979 858 q 1099 532 1099 654 q 1096 485 1099 515 q 1004 242 1083 354 q 803 63 925 129 q 549 -4 682 -4 q 318 55 422 -4 q 155 217 214 114 q 96 442 96 319 q 99 489 96 456 q 190 733 111 621 q 389 910 268 844 q 643 976 510 976 m 643 949 q 401 886 515 949 q 213 717 286 824 q 126 486 139 611 q 124 442 124 456 q 179 231 124 326 q 333 79 235 135 q 549 24 431 24 q 792 86 676 24 q 981 256 907 149 q 1068 488 1056 363 q 1071 532 1071 518 q 1015 742 1071 646 q 860 893 958 838 q 643 949 763 949 z "},"Ȱ":{"ha":1142,"x_min":96,"x_max":1099,"o":"m 643 976 q 874 917 769 976 q 1039 756 979 858 q 1099 532 1099 654 q 1096 485 1099 515 q 1004 242 1083 354 q 803 63 925 129 q 549 -4 682 -4 q 318 55 422 -4 q 155 217 214 114 q 96 442 96 319 q 99 489 96 456 q 190 733 111 621 q 389 910 268 844 q 643 976 510 976 m 643 949 q 401 886 515 949 q 213 717 286 824 q 126 486 139 611 q 124 442 124 456 q 179 231 124 326 q 333 79 235 135 q 549 24 431 24 q 792 86 676 24 q 981 256 907 149 q 1068 488 1056 363 q 1071 532 1071 518 q 1015 742 1071 646 q 860 893 958 838 q 643 949 763 949 z "},"Ọ":{"ha":1142,"x_min":96,"x_max":1099,"o":"m 643 976 q 874 917 769 976 q 1039 756 979 858 q 1099 532 1099 654 q 1096 485 1099 515 q 1004 242 1083 354 q 803 63 925 129 q 549 -4 682 -4 q 318 55 422 -4 q 155 217 214 114 q 96 442 96 319 q 99 489 96 456 q 190 733 111 621 q 389 910 268 844 q 643 976 510 976 m 643 949 q 401 886 515 949 q 213 717 286 824 q 126 486 139 611 q 124 442 124 456 q 179 231 124 326 q 333 79 235 135 q 549 24 431 24 q 792 86 676 24 q 981 256 907 149 q 1068 488 1056 363 q 1071 532 1071 518 q 1015 742 1071 646 q 860 893 958 838 q 643 949 763 949 m 519 -111 q 540 -120 532 -111 q 549 -142 549 -129 q 535 -171 549 -158 q 504 -183 521 -183 q 483 -174 492 -183 q 475 -153 475 -165 q 489 -124 475 -136 q 519 -111 503 -111 z "},"Ò":{"ha":1142,"x_min":96,"x_max":1099,"o":"m 643 976 q 874 917 769 976 q 1039 756 979 858 q 1099 532 1099 654 q 1096 485 1099 515 q 1004 242 1083 354 q 803 63 925 129 q 549 -4 682 -4 q 318 55 422 -4 q 155 217 214 114 q 96 442 96 319 q 99 489 96 456 q 190 733 111 621 q 389 910 268 844 q 643 976 510 976 m 643 949 q 401 886 515 949 q 213 717 286 824 q 126 486 139 611 q 124 442 124 456 q 179 231 124 326 q 333 79 235 135 q 549 24 431 24 q 792 86 676 24 q 981 256 907 149 q 1068 488 1056 363 q 1071 532 1071 518 q 1015 742 1071 646 q 860 893 958 838 q 643 949 763 949 m 567 1238 l 756 1085 l 719 1078 l 540 1224 l 567 1238 z "},"Ỏ":{"ha":1142,"x_min":96,"x_max":1099,"o":"m 643 976 q 874 917 769 976 q 1039 756 979 858 q 1099 532 1099 654 q 1096 485 1099 515 q 1004 242 1083 354 q 803 63 925 129 q 549 -4 682 -4 q 318 55 422 -4 q 155 217 214 114 q 96 442 96 319 q 99 489 96 456 q 190 733 111 621 q 389 910 268 844 q 643 976 510 976 m 643 949 q 401 886 515 949 q 213 717 286 824 q 126 486 139 611 q 124 442 124 456 q 179 231 124 326 q 333 79 235 135 q 549 24 431 24 q 792 86 676 24 q 981 256 907 149 q 1068 488 1056 363 q 1071 532 1071 518 q 1015 742 1071 646 q 860 893 958 838 q 643 949 763 949 m 682 1282 q 746 1259 724 1282 q 768 1201 768 1236 q 741 1125 768 1164 q 667 1056 714 1086 l 640 1067 q 713 1131 686 1096 q 740 1196 740 1165 q 724 1238 740 1221 q 676 1254 707 1254 q 599 1229 642 1254 l 588 1251 q 682 1282 642 1282 z "},"Ơ":{"ha":1257,"x_min":96,"x_max":1099,"o":"m 917 890 q 1050 735 1001 829 q 1099 532 1099 642 q 1096 485 1099 518 q 1004 242 1083 354 q 803 63 925 129 q 549 -4 682 -4 q 318 55 422 -4 q 155 217 214 114 q 96 442 96 319 q 99 489 96 456 q 190 733 111 621 q 389 910 268 844 q 643 976 510 976 q 861 925 763 976 q 922 915 893 915 q 992 937 960 915 q 1042 992 1024 958 q 1060 1063 1060 1026 q 1046 1119 1060 1093 l 1076 1133 q 1092 1068 1092 1100 q 1069 983 1092 1024 q 1006 916 1046 942 q 921 890 967 890 l 917 890 m 1068 488 q 1071 532 1071 518 q 1015 742 1071 646 q 860 893 958 838 q 643 949 763 949 q 401 886 515 949 q 213 717 286 824 q 126 486 139 611 q 124 442 124 456 q 179 231 124 326 q 333 79 235 135 q 549 24 431 24 q 792 86 676 24 q 981 256 907 149 q 1068 488 1056 363 z "},"Ớ":{"ha":1257,"x_min":96,"x_max":1099,"o":"m 917 890 q 1050 735 1001 829 q 1099 532 1099 642 q 1096 485 1099 518 q 1004 242 1083 354 q 803 63 925 129 q 549 -4 682 -4 q 318 55 422 -4 q 155 217 214 114 q 96 442 96 319 q 99 489 96 456 q 190 733 111 621 q 389 910 268 844 q 643 976 510 976 q 861 925 763 976 q 922 915 893 915 q 992 937 960 915 q 1042 992 1024 958 q 1060 1063 1060 1026 q 1046 1119 1060 1093 l 1076 1133 q 1092 1068 1092 1100 q 1069 983 1092 1024 q 1006 916 1046 942 q 921 890 967 890 l 917 890 m 1068 488 q 1071 532 1071 518 q 1015 742 1071 646 q 860 893 958 838 q 643 949 763 949 q 401 886 515 949 q 213 717 286 824 q 126 486 139 611 q 124 442 124 456 q 179 231 124 326 q 333 79 235 135 q 549 24 431 24 q 792 86 676 24 q 981 256 907 149 q 1068 488 1056 363 m 815 1238 l 842 1224 l 663 1078 l 626 1085 l 815 1238 z "},"Ợ":{"ha":1365,"x_min":96,"x_max":1099,"o":"m 917 890 q 1050 735 1001 829 q 1099 532 1099 642 q 1096 485 1099 518 q 1004 242 1083 354 q 803 63 925 129 q 549 -4 682 -4 q 318 55 422 -4 q 155 217 214 114 q 96 442 96 319 q 99 489 96 456 q 190 733 111 621 q 389 910 268 844 q 643 976 510 976 q 861 925 763 976 q 922 915 893 915 q 992 937 960 915 q 1042 992 1024 958 q 1060 1063 1060 1026 q 1046 1119 1060 1093 l 1076 1133 q 1092 1068 1092 1100 q 1069 983 1092 1024 q 1006 916 1046 942 q 921 890 967 890 l 917 890 m 1068 488 q 1071 532 1071 518 q 1015 742 1071 646 q 860 893 958 838 q 643 949 763 949 q 401 886 515 949 q 213 717 286 824 q 126 486 139 611 q 124 442 124 456 q 179 231 124 326 q 333 79 235 135 q 549 24 431 24 q 792 86 676 24 q 981 256 907 149 q 1068 488 1056 363 m 519 -111 q 540 -120 532 -111 q 549 -142 549 -129 q 535 -171 549 -158 q 504 -183 521 -183 q 483 -174 492 -183 q 475 -153 475 -165 q 489 -124 475 -136 q 519 -111 503 -111 z "},"Ờ":{"ha":1365,"x_min":96,"x_max":1099,"o":"m 917 890 q 1050 735 1001 829 q 1099 532 1099 642 q 1096 485 1099 518 q 1004 242 1083 354 q 803 63 925 129 q 549 -4 682 -4 q 318 55 422 -4 q 155 217 214 114 q 96 442 96 319 q 99 489 96 456 q 190 733 111 621 q 389 910 268 844 q 643 976 510 976 q 861 925 763 976 q 922 915 893 915 q 992 937 960 915 q 1042 992 1024 958 q 1060 1063 1060 1026 q 1046 1119 1060 1093 l 1076 1133 q 1092 1068 1092 1100 q 1069 983 1092 1024 q 1006 916 1046 942 q 921 890 967 890 l 917 890 m 1068 488 q 1071 532 1071 518 q 1015 742 1071 646 q 860 893 958 838 q 643 949 763 949 q 401 886 515 949 q 213 717 286 824 q 126 486 139 611 q 124 442 124 456 q 179 231 124 326 q 333 79 235 135 q 549 24 431 24 q 792 86 676 24 q 981 256 907 149 q 1068 488 1056 363 m 567 1238 l 756 1085 l 719 1078 l 540 1224 l 567 1238 z "},"Ở":{"ha":1257,"x_min":96,"x_max":1099,"o":"m 917 890 q 1050 735 1001 829 q 1099 532 1099 642 q 1096 485 1099 518 q 1004 242 1083 354 q 803 63 925 129 q 549 -4 682 -4 q 318 55 422 -4 q 155 217 214 114 q 96 442 96 319 q 99 489 96 456 q 190 733 111 621 q 389 910 268 844 q 643 976 510 976 q 861 925 763 976 q 922 915 893 915 q 992 937 960 915 q 1042 992 1024 958 q 1060 1063 1060 1026 q 1046 1119 1060 1093 l 1076 1133 q 1092 1068 1092 1100 q 1069 983 1092 1024 q 1006 916 1046 942 q 921 890 967 890 l 917 890 m 1068 488 q 1071 532 1071 518 q 1015 742 1071 646 q 860 893 958 838 q 643 949 763 949 q 401 886 515 949 q 213 717 286 824 q 126 486 139 611 q 124 442 124 456 q 179 231 124 326 q 333 79 235 135 q 549 24 431 24 q 792 86 676 24 q 981 256 907 149 q 1068 488 1056 363 m 682 1282 q 746 1259 724 1282 q 768 1201 768 1236 q 741 1125 768 1164 q 667 1056 714 1086 l 640 1067 q 713 1131 686 1096 q 740 1196 740 1165 q 724 1238 740 1221 q 676 1254 707 1254 q 599 1229 642 1254 l 588 1251 q 682 1282 642 1282 z "},"Ỡ":{"ha":1365,"x_min":96,"x_max":1099,"o":"m 917 890 q 1050 735 1001 829 q 1099 532 1099 642 q 1096 485 1099 518 q 1004 242 1083 354 q 803 63 925 129 q 549 -4 682 -4 q 318 55 422 -4 q 155 217 214 114 q 96 442 96 319 q 99 489 96 456 q 190 733 111 621 q 389 910 268 844 q 643 976 510 976 q 861 925 763 976 q 922 915 893 915 q 992 937 960 915 q 1042 992 1024 958 q 1060 1063 1060 1026 q 1046 1119 1060 1093 l 1076 1133 q 1092 1068 1092 1100 q 1069 983 1092 1024 q 1006 916 1046 942 q 921 890 967 890 l 917 890 m 1068 488 q 1071 532 1071 518 q 1015 742 1071 646 q 860 893 958 838 q 643 949 763 949 q 401 886 515 949 q 213 717 286 824 q 126 486 139 611 q 124 442 124 456 q 179 231 124 326 q 333 79 235 135 q 549 24 431 24 q 792 86 676 24 q 981 256 907 149 q 1068 488 1056 363 m 868 1185 q 825 1103 857 1133 q 747 1072 793 1072 q 704 1083 721 1072 q 663 1119 688 1094 q 628 1151 644 1140 q 592 1163 613 1163 q 535 1140 558 1163 q 506 1078 513 1118 l 479 1078 q 519 1160 490 1131 q 593 1190 549 1190 q 636 1179 619 1190 q 678 1143 653 1168 q 712 1111 696 1122 q 749 1100 728 1100 q 808 1123 782 1100 q 842 1185 835 1146 l 868 1185 z "},"Ő":{"ha":1142,"x_min":96,"x_max":1099,"o":"m 643 976 q 874 917 769 976 q 1039 756 979 858 q 1099 532 1099 654 q 1096 485 1099 515 q 1004 242 1083 354 q 803 63 925 129 q 549 -4 682 -4 q 318 55 422 -4 q 155 217 214 114 q 96 442 96 319 q 99 489 96 456 q 190 733 111 621 q 389 910 268 844 q 643 976 510 976 m 643 949 q 401 886 515 949 q 213 717 286 824 q 126 486 139 611 q 124 442 124 456 q 179 231 124 326 q 333 79 235 135 q 549 24 431 24 q 792 86 676 24 q 981 256 907 149 q 1068 488 1056 363 q 1071 532 1071 518 q 1015 742 1071 646 q 860 893 958 838 q 643 949 763 949 m 688 1238 l 711 1222 l 579 1078 l 550 1085 l 688 1238 m 853 1238 l 876 1222 l 744 1078 l 715 1085 l 853 1238 z "},"Ȏ":{"ha":1142,"x_min":96,"x_max":1099,"o":"m 643 976 q 874 917 769 976 q 1039 756 979 858 q 1099 532 1099 654 q 1096 485 1099 515 q 1004 242 1083 354 q 803 63 925 129 q 549 -4 682 -4 q 318 55 422 -4 q 155 217 214 114 q 96 442 96 319 q 99 489 96 456 q 190 733 111 621 q 389 910 268 844 q 643 976 510 976 m 643 949 q 401 886 515 949 q 213 717 286 824 q 126 486 139 611 q 124 442 124 456 q 179 231 124 326 q 333 79 235 135 q 549 24 431 24 q 792 86 676 24 q 981 256 907 149 q 1068 488 1056 363 q 1071 532 1071 518 q 1015 742 1071 646 q 860 893 958 838 q 643 949 763 949 m 782 1078 q 783 1097 783 1085 q 757 1168 783 1140 q 688 1196 731 1196 q 598 1162 639 1196 q 546 1078 557 1128 l 518 1078 q 582 1182 532 1140 q 692 1224 632 1224 q 778 1190 744 1224 q 813 1104 813 1157 q 810 1078 813 1094 l 782 1078 z "},"Ō":{"ha":1142,"x_min":96,"x_max":1099,"o":"m 643 976 q 874 917 769 976 q 1039 756 979 858 q 1099 532 1099 654 q 1096 485 1099 515 q 1004 242 1083 354 q 803 63 925 129 q 549 -4 682 -4 q 318 55 422 -4 q 155 217 214 114 q 96 442 96 319 q 99 489 96 456 q 190 733 111 621 q 389 910 268 844 q 643 976 510 976 m 643 949 q 401 886 515 949 q 213 717 286 824 q 126 486 139 611 q 124 442 124 456 q 179 231 124 326 q 333 79 235 135 q 549 24 431 24 q 792 86 676 24 q 981 256 907 149 q 1068 488 1056 363 q 1071 532 1071 518 q 1015 742 1071 646 q 860 893 958 838 q 643 949 763 949 m 450 1113 l 890 1113 l 885 1085 l 444 1085 l 450 1113 z "},"Ṓ":{"ha":1142,"x_min":96,"x_max":1099,"o":"m 643 976 q 874 917 769 976 q 1039 756 979 858 q 1099 532 1099 654 q 1096 485 1099 515 q 1004 242 1083 354 q 803 63 925 129 q 549 -4 682 -4 q 318 55 422 -4 q 155 217 214 114 q 96 442 96 319 q 99 489 96 456 q 190 733 111 621 q 389 910 268 844 q 643 976 510 976 m 643 949 q 401 886 515 949 q 213 717 286 824 q 126 486 139 611 q 124 442 124 456 q 179 231 124 326 q 333 79 235 135 q 549 24 431 24 q 792 86 676 24 q 981 256 907 149 q 1068 488 1056 363 q 1071 532 1071 518 q 1015 742 1071 646 q 860 893 958 838 q 643 949 763 949 m 513 1106 l 814 1106 l 808 1078 l 507 1078 l 513 1106 m 821 1328 l 844 1310 l 643 1197 l 608 1210 l 821 1328 z "},"Ṑ":{"ha":1142,"x_min":96,"x_max":1099,"o":"m 643 976 q 874 917 769 976 q 1039 756 979 858 q 1099 532 1099 654 q 1096 485 1099 515 q 1004 242 1083 354 q 803 63 925 129 q 549 -4 682 -4 q 318 55 422 -4 q 155 217 214 114 q 96 442 96 319 q 99 489 96 456 q 190 733 111 621 q 389 910 268 844 q 643 976 510 976 m 643 949 q 401 886 515 949 q 213 717 286 824 q 126 486 139 611 q 124 442 124 456 q 179 231 124 326 q 333 79 235 135 q 549 24 431 24 q 792 86 676 24 q 981 256 907 149 q 1068 488 1056 363 q 1071 532 1071 518 q 1015 742 1071 646 q 860 893 958 838 q 643 949 763 949 m 514 1106 l 815 1106 l 810 1078 l 508 1078 l 514 1106 m 563 1328 l 775 1210 l 740 1197 l 539 1310 l 563 1328 z "},"Ǫ":{"ha":1142,"x_min":96,"x_max":1099,"o":"m 643 976 q 874 917 769 976 q 1039 756 979 858 q 1099 532 1099 654 q 1096 485 1099 515 q 1007 246 1083 357 q 815 68 931 135 q 629 -87 693 -18 q 565 -210 565 -156 q 582 -253 565 -239 q 625 -268 599 -268 q 714 -240 665 -268 l 722 -262 q 618 -296 668 -296 q 558 -274 579 -296 q 536 -212 536 -251 q 581 -103 536 -161 q 715 24 626 -46 q 549 -4 632 -4 q 318 55 422 -4 q 155 217 214 114 q 96 442 96 319 q 99 489 96 456 q 190 733 111 621 q 389 910 268 844 q 643 976 510 976 m 1068 488 q 1071 532 1071 518 q 1015 742 1071 646 q 860 893 958 838 q 643 949 763 949 q 401 886 515 949 q 213 717 286 824 q 126 486 139 611 q 124 442 124 456 q 179 231 124 326 q 333 79 235 135 q 549 24 431 24 q 792 86 676 24 q 981 256 907 149 q 1068 488 1056 363 z "},"Ø":{"ha":1142,"x_min":96,"x_max":1099,"o":"m 915 892 q 1050 737 1001 831 q 1099 532 1099 643 q 1096 485 1099 518 q 1004 242 1083 354 q 803 63 925 129 q 549 -4 682 -4 q 310 60 418 -4 l 211 -76 l 179 -76 l 289 74 q 147 231 199 133 q 96 442 96 328 q 99 489 96 458 q 190 733 111 621 q 389 910 268 844 q 643 976 510 976 q 893 906 781 976 l 997 1049 l 1029 1049 l 915 892 m 126 486 q 124 440 124 456 q 172 244 124 335 q 304 96 221 153 l 876 883 q 643 949 772 949 q 401 886 515 949 q 213 717 286 824 q 126 486 139 611 m 1068 488 q 1071 531 1071 518 q 1025 723 1071 635 q 899 868 979 811 l 326 82 q 549 24 426 24 q 792 86 676 24 q 981 256 907 149 q 1068 488 1056 363 z "},"Ǿ":{"ha":1142,"x_min":96,"x_max":1099,"o":"m 915 892 q 1050 737 1001 831 q 1099 532 1099 643 q 1096 485 1099 518 q 1004 242 1083 354 q 803 63 925 129 q 549 -4 682 -4 q 310 60 418 -4 l 211 -76 l 179 -76 l 289 74 q 147 231 199 133 q 96 442 96 328 q 99 489 96 458 q 190 733 111 621 q 389 910 268 844 q 643 976 510 976 q 893 906 781 976 l 997 1049 l 1029 1049 l 915 892 m 126 486 q 124 440 124 456 q 172 244 124 335 q 304 96 221 153 l 876 883 q 643 949 772 949 q 401 886 515 949 q 213 717 286 824 q 126 486 139 611 m 1068 488 q 1071 531 1071 518 q 1025 723 1071 635 q 899 868 979 811 l 326 82 q 549 24 426 24 q 792 86 676 24 q 981 256 907 149 q 1068 488 1056 363 m 838 1238 l 864 1224 l 685 1078 l 649 1085 l 838 1238 z "},"Õ":{"ha":1142,"x_min":96,"x_max":1099,"o":"m 643 976 q 874 917 769 976 q 1039 756 979 858 q 1099 532 1099 654 q 1096 485 1099 515 q 1004 242 1083 354 q 803 63 925 129 q 549 -4 682 -4 q 318 55 422 -4 q 155 217 214 114 q 96 442 96 319 q 99 489 96 456 q 190 733 111 621 q 389 910 268 844 q 643 976 510 976 m 643 949 q 401 886 515 949 q 213 717 286 824 q 126 486 139 611 q 124 442 124 456 q 179 231 124 326 q 333 79 235 135 q 549 24 431 24 q 792 86 676 24 q 981 256 907 149 q 1068 488 1056 363 q 1071 532 1071 518 q 1015 742 1071 646 q 860 893 958 838 q 643 949 763 949 m 868 1185 q 825 1103 857 1133 q 747 1072 793 1072 q 704 1083 721 1072 q 663 1119 688 1094 q 628 1151 644 1140 q 592 1163 613 1163 q 535 1140 558 1163 q 506 1078 513 1118 l 479 1078 q 519 1160 490 1131 q 593 1190 549 1190 q 636 1179 619 1190 q 678 1143 653 1168 q 712 1111 696 1122 q 749 1100 728 1100 q 808 1123 782 1100 q 842 1185 835 1146 l 868 1185 z "},"Ṍ":{"ha":1142,"x_min":96,"x_max":1099,"o":"m 643 976 q 874 917 769 976 q 1039 756 979 858 q 1099 532 1099 654 q 1096 485 1099 515 q 1004 242 1083 354 q 803 63 925 129 q 549 -4 682 -4 q 318 55 422 -4 q 155 217 214 114 q 96 442 96 319 q 99 489 96 456 q 190 733 111 621 q 389 910 268 844 q 643 976 510 976 m 643 949 q 401 886 515 949 q 213 717 286 824 q 126 486 139 611 q 124 442 124 456 q 179 231 124 326 q 333 79 235 135 q 549 24 431 24 q 792 86 676 24 q 981 256 907 149 q 1068 488 1056 363 q 1071 532 1071 518 q 1015 742 1071 646 q 860 893 958 838 q 643 949 763 949 z "},"Ṏ":{"ha":1142,"x_min":96,"x_max":1099,"o":"m 643 976 q 874 917 769 976 q 1039 756 979 858 q 1099 532 1099 654 q 1096 485 1099 515 q 1004 242 1083 354 q 803 63 925 129 q 549 -4 682 -4 q 318 55 422 -4 q 155 217 214 114 q 96 442 96 319 q 99 489 96 456 q 190 733 111 621 q 389 910 268 844 q 643 976 510 976 m 643 949 q 401 886 515 949 q 213 717 286 824 q 126 486 139 611 q 124 442 124 456 q 179 231 124 326 q 333 79 235 135 q 549 24 431 24 q 792 86 676 24 q 981 256 907 149 q 1068 488 1056 363 q 1071 532 1071 518 q 1015 742 1071 646 q 860 893 958 838 q 643 949 763 949 z "},"Ȭ":{"ha":1142,"x_min":96,"x_max":1099,"o":"m 643 976 q 874 917 769 976 q 1039 756 979 858 q 1099 532 1099 654 q 1096 485 1099 515 q 1004 242 1083 354 q 803 63 925 129 q 549 -4 682 -4 q 318 55 422 -4 q 155 217 214 114 q 96 442 96 319 q 99 489 96 456 q 190 733 111 621 q 389 910 268 844 q 643 976 510 976 m 643 949 q 401 886 515 949 q 213 717 286 824 q 126 486 139 611 q 124 442 124 456 q 179 231 124 326 q 333 79 235 135 q 549 24 431 24 q 792 86 676 24 q 981 256 907 149 q 1068 488 1056 363 q 1071 532 1071 518 q 1015 742 1071 646 q 860 893 958 838 q 643 949 763 949 z "},"Œ":{"ha":1517,"x_min":96,"x_max":1529,"o":"m 944 943 l 858 514 l 1374 514 l 1368 486 l 853 486 l 761 28 l 1360 28 l 1354 0 l 550 0 q 320 59 424 0 q 156 219 217 118 q 96 443 96 321 q 172 703 96 582 q 374 898 247 825 q 644 971 500 971 l 1529 971 l 1524 943 l 944 943 m 733 26 l 917 944 l 644 944 q 387 874 507 944 q 194 688 267 804 q 122 438 122 571 q 178 229 122 324 q 332 81 235 135 q 549 26 429 26 l 733 26 z "},"P":{"ha":938,"x_min":106,"x_max":944,"o":"m 629 971 q 863 905 782 971 q 944 718 944 839 q 891 515 944 601 q 738 381 838 428 q 501 333 638 333 l 200 333 l 133 0 l 106 0 l 300 971 l 629 971 m 507 361 q 726 404 633 361 q 867 526 818 447 q 917 711 917 604 q 841 883 917 822 q 624 943 765 943 l 322 943 l 206 361 l 507 361 z "},"Þ":{"ha":938,"x_min":106,"x_max":915,"o":"m 556 815 q 915 571 915 815 q 795 293 915 389 q 432 197 675 197 l 172 197 l 133 0 l 106 0 l 300 971 l 328 971 l 297 815 l 556 815 m 438 225 q 775 312 664 225 q 886 564 886 399 q 550 788 886 788 l 292 788 l 178 225 l 438 225 z "},"Q":{"ha":1147,"x_min":96,"x_max":1122,"o":"m 1122 -67 q 900 -172 1011 -172 q 601 -1 763 -172 q 549 -4 565 -4 q 318 55 422 -4 q 155 217 214 114 q 96 442 96 319 q 99 489 96 456 q 190 733 111 621 q 389 910 268 844 q 643 976 510 976 q 874 917 769 976 q 1039 756 979 858 q 1099 532 1099 654 q 1096 485 1099 515 q 1019 265 1085 368 q 853 93 954 163 q 635 3 751 24 q 774 -109 710 -72 q 900 -146 839 -146 q 1103 -47 997 -146 l 1122 -67 m 126 486 q 124 442 124 456 q 179 231 124 326 q 333 79 235 135 q 549 24 431 24 q 792 86 676 24 q 981 256 907 149 q 1068 488 1056 363 q 1071 532 1071 518 q 1015 742 1071 646 q 860 893 958 838 q 643 949 763 949 q 401 886 515 949 q 213 717 286 824 q 126 486 139 611 z "},"R":{"ha":1007,"x_min":106,"x_max":944,"o":"m 944 718 q 860 472 944 571 q 624 344 775 374 l 806 0 l 771 0 l 592 339 q 501 333 554 333 l 200 333 l 133 0 l 106 0 l 300 971 l 629 971 q 863 905 782 971 q 944 718 944 839 m 507 361 q 726 404 633 361 q 867 526 818 447 q 917 711 917 604 q 841 883 917 822 q 624 943 765 943 l 322 943 l 206 361 l 507 361 z "},"Ŕ":{"ha":1007,"x_min":106,"x_max":944,"o":"m 944 718 q 860 472 944 571 q 624 344 775 374 l 806 0 l 771 0 l 592 339 q 501 333 554 333 l 200 333 l 133 0 l 106 0 l 300 971 l 629 971 q 863 905 782 971 q 944 718 944 839 m 507 361 q 726 404 633 361 q 867 526 818 447 q 917 711 917 604 q 841 883 917 822 q 624 943 765 943 l 322 943 l 206 361 l 507 361 m 768 1238 l 794 1224 l 615 1078 l 579 1085 l 768 1238 z "},"Ř":{"ha":1007,"x_min":106,"x_max":944,"o":"m 944 718 q 860 472 944 571 q 624 344 775 374 l 806 0 l 771 0 l 592 339 q 501 333 554 333 l 200 333 l 133 0 l 106 0 l 300 971 l 629 971 q 863 905 782 971 q 944 718 944 839 m 507 361 q 726 404 633 361 q 867 526 818 447 q 917 711 917 604 q 841 883 917 822 q 624 943 765 943 l 322 943 l 206 361 l 507 361 m 768 1231 l 804 1231 l 639 1078 l 594 1078 l 488 1231 l 524 1231 l 621 1103 l 768 1231 z "},"Ŗ":{"ha":1007,"x_min":106,"x_max":944,"o":"m 944 718 q 860 472 944 571 q 624 344 775 374 l 806 0 l 771 0 l 592 339 q 501 333 554 333 l 200 333 l 133 0 l 106 0 l 300 971 l 629 971 q 863 905 782 971 q 944 718 944 839 m 507 361 q 726 404 633 361 q 867 526 818 447 q 917 711 917 604 q 841 883 917 822 q 624 943 765 943 l 322 943 l 206 361 l 507 361 m 396 -90 l 432 -90 l 332 -297 l 307 -297 l 396 -90 z "},"Ȑ":{"ha":1007,"x_min":106,"x_max":944,"o":"m 944 718 q 860 472 944 571 q 624 344 775 374 l 806 0 l 771 0 l 592 339 q 501 333 554 333 l 200 333 l 133 0 l 106 0 l 300 971 l 629 971 q 863 905 782 971 q 944 718 944 839 m 507 361 q 726 404 633 361 q 867 526 818 447 q 917 711 917 604 q 841 883 917 822 q 624 943 765 943 l 322 943 l 206 361 l 507 361 m 471 1231 l 581 1078 l 547 1071 l 444 1215 l 471 1231 m 636 1231 l 746 1078 l 713 1071 l 610 1215 l 636 1231 z "},"Ṛ":{"ha":1007,"x_min":106,"x_max":944,"o":"m 944 718 q 860 472 944 571 q 624 344 775 374 l 806 0 l 771 0 l 592 339 q 501 333 554 333 l 200 333 l 133 0 l 106 0 l 300 971 l 629 971 q 863 905 782 971 q 944 718 944 839 m 507 361 q 726 404 633 361 q 867 526 818 447 q 917 711 917 604 q 841 883 917 822 q 624 943 765 943 l 322 943 l 206 361 l 507 361 m 408 -111 q 429 -120 421 -111 q 438 -142 438 -129 q 424 -171 438 -158 q 393 -183 410 -183 q 372 -174 381 -183 q 364 -153 364 -165 q 378 -124 364 -136 q 408 -111 392 -111 z "},"Ȓ":{"ha":1007,"x_min":106,"x_max":944,"o":"m 944 718 q 860 472 944 571 q 624 344 775 374 l 806 0 l 771 0 l 592 339 q 501 333 554 333 l 200 333 l 133 0 l 106 0 l 300 971 l 629 971 q 863 905 782 971 q 944 718 944 839 m 507 361 q 726 404 633 361 q 867 526 818 447 q 917 711 917 604 q 841 883 917 822 q 624 943 765 943 l 322 943 l 206 361 l 507 361 m 735 1078 q 736 1097 736 1085 q 710 1168 736 1140 q 640 1196 683 1196 q 551 1162 592 1196 q 499 1078 510 1128 l 471 1078 q 535 1182 485 1140 q 644 1224 585 1224 q 731 1190 697 1224 q 765 1104 765 1157 q 763 1078 765 1094 l 735 1078 z "},"Ṟ":{"ha":1007,"x_min":106,"x_max":944,"o":"m 944 718 q 860 472 944 571 q 624 344 775 374 l 806 0 l 771 0 l 592 339 q 501 333 554 333 l 200 333 l 133 0 l 106 0 l 300 971 l 629 971 q 863 905 782 971 q 944 718 944 839 m 507 361 q 726 404 633 361 q 867 526 818 447 q 917 711 917 604 q 841 883 917 822 q 624 943 765 943 l 322 943 l 206 361 l 507 361 m 254 -125 l 556 -125 l 550 -153 l 249 -153 l 254 -125 z "},"S":{"ha":821,"x_min":11,"x_max":742,"o":"m 488 981 q 625 961 556 981 q 742 910 694 942 l 725 888 q 616 935 682 918 q 485 953 550 953 q 273 901 356 953 q 182 763 190 849 q 181 735 181 753 q 214 628 181 669 q 297 565 247 588 q 428 515 346 542 q 568 460 517 485 q 656 389 619 435 q 692 268 692 343 q 689 232 692 257 q 582 57 679 122 q 333 -8 485 -8 q 154 29 242 -8 q 11 129 67 67 l 33 150 q 165 55 83 90 q 336 19 247 19 q 563 77 475 19 q 661 232 651 135 q 663 263 663 243 q 629 372 663 329 q 547 437 596 414 q 414 488 497 460 q 274 541 326 517 q 187 612 222 565 q 151 732 151 658 q 153 763 151 751 q 253 921 163 861 q 488 981 344 981 z "},"Ś":{"ha":821,"x_min":11,"x_max":742,"o":"m 488 981 q 625 961 556 981 q 742 910 694 942 l 725 888 q 616 935 682 918 q 485 953 550 953 q 273 901 356 953 q 182 763 190 849 q 181 735 181 753 q 214 628 181 669 q 297 565 247 588 q 428 515 346 542 q 568 460 517 485 q 656 389 619 435 q 692 268 692 343 q 689 232 692 257 q 582 57 679 122 q 333 -8 485 -8 q 154 29 242 -8 q 11 129 67 67 l 33 150 q 165 55 83 90 q 336 19 247 19 q 563 77 475 19 q 661 232 651 135 q 663 263 663 243 q 629 372 663 329 q 547 437 596 414 q 414 488 497 460 q 274 541 326 517 q 187 612 222 565 q 151 732 151 658 q 153 763 151 751 q 253 921 163 861 q 488 981 344 981 m 626 1238 l 653 1224 l 474 1078 l 438 1085 l 626 1238 z "},"Ṥ":{"ha":821,"x_min":11,"x_max":742,"o":"m 488 981 q 625 961 556 981 q 742 910 694 942 l 725 888 q 616 935 682 918 q 485 953 550 953 q 273 901 356 953 q 182 763 190 849 q 181 735 181 753 q 214 628 181 669 q 297 565 247 588 q 428 515 346 542 q 568 460 517 485 q 656 389 619 435 q 692 268 692 343 q 689 232 692 257 q 582 57 679 122 q 333 -8 485 -8 q 154 29 242 -8 q 11 129 67 67 l 33 150 q 165 55 83 90 q 336 19 247 19 q 563 77 475 19 q 661 232 651 135 q 663 263 663 243 q 629 372 663 329 q 547 437 596 414 q 414 488 497 460 q 274 541 326 517 q 187 612 222 565 q 151 732 151 658 q 153 763 151 751 q 253 921 163 861 q 488 981 344 981 z "},"Ꞌ":{"ha":293,"x_min":131,"x_max":268,"o":"m 240 971 l 268 971 l 158 414 l 131 414 l 240 971 z "},"Š":{"ha":821,"x_min":11,"x_max":742,"o":"m 488 981 q 625 961 556 981 q 742 910 694 942 l 725 888 q 616 935 682 918 q 485 953 550 953 q 273 901 356 953 q 182 763 190 849 q 181 735 181 753 q 214 628 181 669 q 297 565 247 588 q 428 515 346 542 q 568 460 517 485 q 656 389 619 435 q 692 268 692 343 q 689 232 692 257 q 582 57 679 122 q 333 -8 485 -8 q 154 29 242 -8 q 11 129 67 67 l 33 150 q 165 55 83 90 q 336 19 247 19 q 563 77 475 19 q 661 232 651 135 q 663 263 663 243 q 629 372 663 329 q 547 437 596 414 q 414 488 497 460 q 274 541 326 517 q 187 612 222 565 q 151 732 151 658 q 153 763 151 751 q 253 921 163 861 q 488 981 344 981 m 626 1231 l 663 1231 l 497 1078 l 453 1078 l 346 1231 l 382 1231 l 479 1103 l 626 1231 z "},"Ṧ":{"ha":821,"x_min":11,"x_max":742,"o":"m 488 981 q 625 961 556 981 q 742 910 694 942 l 725 888 q 616 935 682 918 q 485 953 550 953 q 273 901 356 953 q 182 763 190 849 q 181 735 181 753 q 214 628 181 669 q 297 565 247 588 q 428 515 346 542 q 568 460 517 485 q 656 389 619 435 q 692 268 692 343 q 689 232 692 257 q 582 57 679 122 q 333 -8 485 -8 q 154 29 242 -8 q 11 129 67 67 l 33 150 q 165 55 83 90 q 336 19 247 19 q 563 77 475 19 q 661 232 651 135 q 663 263 663 243 q 629 372 663 329 q 547 437 596 414 q 414 488 497 460 q 274 541 326 517 q 187 612 222 565 q 151 732 151 658 q 153 763 151 751 q 253 921 163 861 q 488 981 344 981 z "},"Ş":{"ha":821,"x_min":11,"x_max":742,"o":"m 485 953 q 273 901 356 953 q 182 763 190 849 q 181 735 181 753 q 214 628 181 669 q 297 565 247 588 q 428 515 346 542 q 568 460 517 485 q 656 389 619 435 q 692 268 692 343 q 689 232 692 257 q 584 59 679 124 q 340 -8 489 -6 l 308 -75 q 378 -101 354 -76 q 403 -162 403 -126 q 384 -226 403 -194 q 331 -276 365 -257 q 254 -296 297 -296 q 200 -287 228 -296 q 158 -265 172 -279 l 176 -237 q 214 -258 190 -250 q 260 -267 238 -267 q 341 -236 310 -267 q 372 -168 372 -206 q 355 -120 372 -139 q 307 -101 338 -101 l 267 -101 l 311 -8 q 144 34 224 -3 q 11 129 64 71 l 33 150 q 165 55 83 90 q 336 19 247 19 q 563 77 475 19 q 661 232 651 135 q 663 263 663 243 q 629 372 663 329 q 547 437 596 414 q 414 488 497 460 q 274 541 326 517 q 187 612 222 565 q 151 732 151 658 q 153 763 151 751 q 253 921 163 861 q 488 981 344 981 q 625 961 556 981 q 742 910 694 942 l 725 888 q 616 935 682 918 q 485 953 550 953 z "},"Ŝ":{"ha":821,"x_min":11,"x_max":742,"o":"m 488 981 q 625 961 556 981 q 742 910 694 942 l 725 888 q 616 935 682 918 q 485 953 550 953 q 273 901 356 953 q 182 763 190 849 q 181 735 181 753 q 214 628 181 669 q 297 565 247 588 q 428 515 346 542 q 568 460 517 485 q 656 389 619 435 q 692 268 692 343 q 689 232 692 257 q 582 57 679 122 q 333 -8 485 -8 q 154 29 242 -8 q 11 129 67 67 l 33 150 q 165 55 83 90 q 336 19 247 19 q 563 77 475 19 q 661 232 651 135 q 663 263 663 243 q 629 372 663 329 q 547 437 596 414 q 414 488 497 460 q 274 541 326 517 q 187 612 222 565 q 151 732 151 658 q 153 763 151 751 q 253 921 163 861 q 488 981 344 981 m 633 1078 l 597 1078 l 500 1206 l 353 1078 l 317 1078 l 482 1231 l 526 1231 l 633 1078 z "},"Ș":{"ha":821,"x_min":11,"x_max":742,"o":"m 488 981 q 625 961 556 981 q 742 910 694 942 l 725 888 q 616 935 682 918 q 485 953 550 953 q 273 901 356 953 q 182 763 190 849 q 181 735 181 753 q 214 628 181 669 q 297 565 247 588 q 428 515 346 542 q 568 460 517 485 q 656 389 619 435 q 692 268 692 343 q 689 232 692 257 q 582 57 679 122 q 333 -8 485 -8 q 154 29 242 -8 q 11 129 67 67 l 33 150 q 165 55 83 90 q 336 19 247 19 q 563 77 475 19 q 661 232 651 135 q 663 263 663 243 q 629 372 663 329 q 547 437 596 414 q 414 488 497 460 q 274 541 326 517 q 187 612 222 565 q 151 732 151 658 q 153 763 151 751 q 253 921 163 861 q 488 981 344 981 m 296 -90 l 332 -90 l 232 -297 l 207 -297 l 296 -90 z "},"Ṡ":{"ha":821,"x_min":11,"x_max":742,"o":"m 488 981 q 625 961 556 981 q 742 910 694 942 l 725 888 q 616 935 682 918 q 485 953 550 953 q 273 901 356 953 q 182 763 190 849 q 181 735 181 753 q 214 628 181 669 q 297 565 247 588 q 428 515 346 542 q 568 460 517 485 q 656 389 619 435 q 692 268 692 343 q 689 232 692 257 q 582 57 679 122 q 333 -8 485 -8 q 154 29 242 -8 q 11 129 67 67 l 33 150 q 165 55 83 90 q 336 19 247 19 q 563 77 475 19 q 661 232 651 135 q 663 263 663 243 q 629 372 663 329 q 547 437 596 414 q 414 488 497 460 q 274 541 326 517 q 187 612 222 565 q 151 732 151 658 q 153 763 151 751 q 253 921 163 861 q 488 981 344 981 m 490 1150 q 511 1141 503 1150 q 519 1119 519 1132 q 506 1090 519 1103 q 475 1078 492 1078 q 454 1087 463 1078 q 446 1108 446 1096 q 460 1138 446 1125 q 490 1150 474 1150 z "},"Ṣ":{"ha":821,"x_min":11,"x_max":742,"o":"m 488 981 q 625 961 556 981 q 742 910 694 942 l 725 888 q 616 935 682 918 q 485 953 550 953 q 273 901 356 953 q 182 763 190 849 q 181 735 181 753 q 214 628 181 669 q 297 565 247 588 q 428 515 346 542 q 568 460 517 485 q 656 389 619 435 q 692 268 692 343 q 689 232 692 257 q 582 57 679 122 q 333 -8 485 -8 q 154 29 242 -8 q 11 129 67 67 l 33 150 q 165 55 83 90 q 336 19 247 19 q 563 77 475 19 q 661 232 651 135 q 663 263 663 243 q 629 372 663 329 q 547 437 596 414 q 414 488 497 460 q 274 541 326 517 q 187 612 222 565 q 151 732 151 658 q 153 763 151 751 q 253 921 163 861 q 488 981 344 981 m 308 -111 q 329 -120 321 -111 q 338 -142 338 -129 q 324 -171 338 -158 q 293 -183 310 -183 q 272 -174 281 -183 q 264 -153 264 -165 q 278 -124 264 -136 q 308 -111 292 -111 z "},"Ṩ":{"ha":821,"x_min":11,"x_max":742,"o":"m 488 981 q 625 961 556 981 q 742 910 694 942 l 725 888 q 616 935 682 918 q 485 953 550 953 q 273 901 356 953 q 182 763 190 849 q 181 735 181 753 q 214 628 181 669 q 297 565 247 588 q 428 515 346 542 q 568 460 517 485 q 656 389 619 435 q 692 268 692 343 q 689 232 692 257 q 582 57 679 122 q 333 -8 485 -8 q 154 29 242 -8 q 11 129 67 67 l 33 150 q 165 55 83 90 q 336 19 247 19 q 563 77 475 19 q 661 232 651 135 q 663 263 663 243 q 629 372 663 329 q 547 437 596 414 q 414 488 497 460 q 274 541 326 517 q 187 612 222 565 q 151 732 151 658 q 153 763 151 751 q 253 921 163 861 q 488 981 344 981 m 308 -111 q 329 -120 321 -111 q 338 -142 338 -129 q 324 -171 338 -158 q 293 -183 310 -183 q 272 -174 281 -183 q 264 -153 264 -165 q 278 -124 264 -136 q 308 -111 292 -111 m 513 1150 q 533 1141 525 1150 q 542 1119 542 1132 q 528 1090 542 1103 q 497 1078 514 1078 q 476 1087 485 1078 q 468 1108 468 1096 q 482 1138 468 1125 q 513 1150 496 1150 z "},"ẞ":{"ha":960,"x_min":83,"x_max":908,"o":"m 904 865 l 575 535 q 779 472 711 529 q 847 324 847 415 q 794 156 847 229 q 653 41 742 82 q 458 0 564 0 l 340 0 l 346 28 l 464 28 q 642 65 561 28 q 771 167 724 101 q 818 319 818 233 q 747 457 818 407 q 544 507 676 507 l 538 507 l 543 535 l 885 878 q 631 947 786 947 q 371 867 476 947 q 236 638 265 786 l 111 0 l 83 0 l 208 638 q 355 887 240 799 q 636 975 469 975 q 908 893 801 975 l 904 865 z "},"Ə":{"ha":1111,"x_min":94,"x_max":1067,"o":"m 625 976 q 850 917 749 976 q 1009 756 951 858 q 1067 531 1067 654 q 993 265 1067 389 q 797 69 919 142 q 536 -4 674 -4 q 311 56 413 -4 q 152 217 210 115 q 94 443 94 319 q 96 486 94 472 l 1038 486 q 1039 529 1039 500 q 984 740 1039 644 q 834 892 929 836 q 622 949 739 949 q 422 906 518 949 q 251 789 325 864 l 236 810 q 415 933 314 889 q 625 976 515 976 m 539 24 q 764 81 657 24 q 943 239 871 139 q 1033 458 1015 339 l 122 458 q 173 240 119 340 q 324 82 226 140 q 539 24 421 24 z "},"T":{"ha":731,"x_min":135,"x_max":835,"o":"m 835 971 l 829 943 l 496 943 l 307 0 l 279 0 l 468 943 l 135 943 l 140 971 l 835 971 z "},"Ŧ":{"ha":731,"x_min":135,"x_max":835,"o":"m 829 943 l 496 943 l 407 500 l 640 500 l 635 472 l 401 472 l 307 0 l 279 0 l 374 472 l 140 472 l 146 500 l 379 500 l 468 943 l 135 943 l 140 971 l 835 971 l 829 943 z "},"Ť":{"ha":731,"x_min":135,"x_max":835,"o":"m 835 971 l 829 943 l 496 943 l 307 0 l 279 0 l 468 943 l 135 943 l 140 971 l 835 971 m 667 1231 l 703 1231 l 538 1078 l 493 1078 l 386 1231 l 422 1231 l 519 1103 l 667 1231 z "},"Ţ":{"ha":731,"x_min":121,"x_max":835,"o":"m 307 0 l 271 -75 q 341 -101 317 -76 q 365 -162 365 -126 q 347 -226 365 -194 q 294 -276 328 -257 q 217 -296 260 -296 q 163 -287 190 -296 q 121 -265 135 -279 l 139 -237 q 176 -258 153 -250 q 222 -267 200 -267 q 303 -236 272 -267 q 335 -168 335 -206 q 317 -120 335 -139 q 269 -101 300 -101 l 229 -101 l 281 7 l 468 943 l 135 943 l 140 971 l 835 971 l 829 943 l 496 943 l 307 0 z "},"Ț":{"ha":731,"x_min":135,"x_max":835,"o":"m 835 971 l 829 943 l 496 943 l 307 0 l 279 0 l 468 943 l 135 943 l 140 971 l 835 971 m 258 -90 l 294 -90 l 194 -297 l 169 -297 l 258 -90 z "},"Ṭ":{"ha":731,"x_min":135,"x_max":835,"o":"m 835 971 l 829 943 l 496 943 l 307 0 l 279 0 l 468 943 l 135 943 l 140 971 l 835 971 m 271 -111 q 292 -120 283 -111 q 300 -142 300 -129 q 286 -171 300 -158 q 256 -183 272 -183 q 235 -174 243 -183 q 226 -153 226 -165 q 240 -124 226 -136 q 271 -111 254 -111 z "},"Ṯ":{"ha":731,"x_min":111,"x_max":835,"o":"m 835 971 l 829 943 l 496 943 l 307 0 l 279 0 l 468 943 l 135 943 l 140 971 l 835 971 m 117 -125 l 418 -125 l 413 -153 l 111 -153 l 117 -125 z "},"U":{"ha":1075,"x_min":149,"x_max":1044,"o":"m 929 394 q 776 102 892 204 q 479 0 661 0 q 235 76 322 0 q 149 292 149 151 q 160 394 149 336 l 275 971 l 303 971 l 188 394 q 178 299 178 346 q 258 99 178 169 q 485 28 339 28 q 759 123 653 28 q 901 394 865 218 l 1017 971 l 1044 971 l 929 394 z "},"Ú":{"ha":1075,"x_min":149,"x_max":1044,"o":"m 929 394 q 776 102 892 204 q 479 0 661 0 q 235 76 322 0 q 149 292 149 151 q 160 394 149 336 l 275 971 l 303 971 l 188 394 q 178 299 178 346 q 258 99 178 169 q 485 28 339 28 q 759 123 653 28 q 901 394 865 218 l 1017 971 l 1044 971 l 929 394 m 832 1238 l 858 1224 l 679 1078 l 643 1085 l 832 1238 z "},"Ŭ":{"ha":1075,"x_min":149,"x_max":1044,"o":"m 929 394 q 776 102 892 204 q 479 0 661 0 q 235 76 322 0 q 149 292 149 151 q 160 394 149 336 l 275 971 l 303 971 l 188 394 q 178 299 178 346 q 258 99 178 169 q 485 28 339 28 q 759 123 653 28 q 901 394 865 218 l 1017 971 l 1044 971 l 929 394 m 590 1217 q 589 1197 589 1210 q 615 1126 589 1154 q 685 1099 642 1099 q 774 1133 733 1099 q 826 1217 815 1167 l 854 1217 q 790 1113 840 1154 q 681 1071 740 1071 q 594 1104 628 1071 q 560 1190 560 1138 q 563 1217 560 1200 l 590 1217 z "},"Û":{"ha":1075,"x_min":149,"x_max":1044,"o":"m 929 394 q 776 102 892 204 q 479 0 661 0 q 235 76 322 0 q 149 292 149 151 q 160 394 149 336 l 275 971 l 303 971 l 188 394 q 178 299 178 346 q 258 99 178 169 q 485 28 339 28 q 759 123 653 28 q 901 394 865 218 l 1017 971 l 1044 971 l 929 394 m 839 1078 l 803 1078 l 706 1206 l 558 1078 l 522 1078 l 688 1231 l 732 1231 l 839 1078 z "},"Ȕ":{"ha":1075,"x_min":149,"x_max":1044,"o":"m 929 394 q 776 102 892 204 q 479 0 661 0 q 235 76 322 0 q 149 292 149 151 q 160 394 149 336 l 275 971 l 303 971 l 188 394 q 178 299 178 346 q 258 99 178 169 q 485 28 339 28 q 759 123 653 28 q 901 394 865 218 l 1017 971 l 1044 971 l 929 394 m 535 1231 l 644 1078 l 611 1071 l 508 1215 l 535 1231 m 700 1231 l 810 1078 l 776 1071 l 674 1215 l 700 1231 z "},"Ü":{"ha":1075,"x_min":149,"x_max":1044,"o":"m 929 394 q 776 102 892 204 q 479 0 661 0 q 235 76 322 0 q 149 292 149 151 q 160 394 149 336 l 275 971 l 303 971 l 188 394 q 178 299 178 346 q 258 99 178 169 q 485 28 339 28 q 759 123 653 28 q 901 394 865 218 l 1017 971 l 1044 971 l 929 394 m 592 1150 q 613 1141 604 1150 q 621 1119 621 1132 q 607 1090 621 1103 q 576 1078 593 1078 q 556 1087 564 1078 q 547 1108 547 1096 q 561 1138 547 1125 q 592 1150 575 1150 m 800 1150 q 821 1141 813 1150 q 829 1119 829 1132 q 815 1090 829 1103 q 785 1078 801 1078 q 764 1087 772 1078 q 756 1108 756 1096 q 769 1138 756 1125 q 800 1150 783 1150 z "},"Ụ":{"ha":1075,"x_min":149,"x_max":1044,"o":"m 929 394 q 776 102 892 204 q 479 0 661 0 q 235 76 322 0 q 149 292 149 151 q 160 394 149 336 l 275 971 l 303 971 l 188 394 q 178 299 178 346 q 258 99 178 169 q 485 28 339 28 q 759 123 653 28 q 901 394 865 218 l 1017 971 l 1044 971 l 929 394 m 444 -111 q 465 -120 457 -111 q 474 -142 474 -129 q 460 -171 474 -158 q 429 -183 446 -183 q 408 -174 417 -183 q 400 -153 400 -165 q 414 -124 400 -136 q 444 -111 428 -111 z "},"Ù":{"ha":1075,"x_min":149,"x_max":1044,"o":"m 929 394 q 776 102 892 204 q 479 0 661 0 q 235 76 322 0 q 149 292 149 151 q 160 394 149 336 l 275 971 l 303 971 l 188 394 q 178 299 178 346 q 258 99 178 169 q 485 28 339 28 q 759 123 653 28 q 901 394 865 218 l 1017 971 l 1044 971 l 929 394 m 583 1238 l 772 1085 l 736 1078 l 557 1224 l 583 1238 z "},"Ủ":{"ha":1075,"x_min":149,"x_max":1044,"o":"m 929 394 q 776 102 892 204 q 479 0 661 0 q 235 76 322 0 q 149 292 149 151 q 160 394 149 336 l 275 971 l 303 971 l 188 394 q 178 299 178 346 q 258 99 178 169 q 485 28 339 28 q 759 123 653 28 q 901 394 865 218 l 1017 971 l 1044 971 l 929 394 m 699 1282 q 763 1259 740 1282 q 785 1201 785 1236 q 758 1125 785 1164 q 683 1056 731 1086 l 657 1067 q 730 1131 703 1096 q 757 1196 757 1165 q 740 1238 757 1221 q 693 1254 724 1254 q 615 1229 658 1254 l 604 1251 q 699 1282 658 1282 z "},"Ư":{"ha":1169,"x_min":149,"x_max":1161,"o":"m 1154 1133 q 1161 1086 1161 1108 q 1128 994 1161 1033 q 1040 949 1096 954 l 929 394 q 776 102 892 204 q 479 0 661 0 q 235 76 322 0 q 149 292 149 151 q 160 394 149 336 l 275 971 l 303 971 l 188 394 q 178 299 178 346 q 258 99 178 169 q 485 28 339 28 q 759 123 653 28 q 901 394 865 218 l 1017 971 l 1026 971 q 1104 1002 1076 971 q 1132 1078 1132 1033 q 1125 1122 1132 1106 l 1154 1133 z "},"Ứ":{"ha":1169,"x_min":149,"x_max":1161,"o":"m 1154 1133 q 1161 1086 1161 1108 q 1128 994 1161 1033 q 1040 949 1096 954 l 929 394 q 776 102 892 204 q 479 0 661 0 q 235 76 322 0 q 149 292 149 151 q 160 394 149 336 l 275 971 l 303 971 l 188 394 q 178 299 178 346 q 258 99 178 169 q 485 28 339 28 q 759 123 653 28 q 901 394 865 218 l 1017 971 l 1026 971 q 1104 1002 1076 971 q 1132 1078 1132 1033 q 1125 1122 1132 1106 l 1154 1133 m 832 1238 l 858 1224 l 679 1078 l 643 1085 l 832 1238 z "},"Ự":{"ha":1169,"x_min":149,"x_max":1161,"o":"m 1154 1133 q 1161 1086 1161 1108 q 1128 994 1161 1033 q 1040 949 1096 954 l 929 394 q 776 102 892 204 q 479 0 661 0 q 235 76 322 0 q 149 292 149 151 q 160 394 149 336 l 275 971 l 303 971 l 188 394 q 178 299 178 346 q 258 99 178 169 q 485 28 339 28 q 759 123 653 28 q 901 394 865 218 l 1017 971 l 1026 971 q 1104 1002 1076 971 q 1132 1078 1132 1033 q 1125 1122 1132 1106 l 1154 1133 m 444 -111 q 465 -120 457 -111 q 474 -142 474 -129 q 460 -171 474 -158 q 429 -183 446 -183 q 408 -174 417 -183 q 400 -153 400 -165 q 414 -124 400 -136 q 444 -111 428 -111 z "},"Ừ":{"ha":1169,"x_min":149,"x_max":1161,"o":"m 1154 1133 q 1161 1086 1161 1108 q 1128 994 1161 1033 q 1040 949 1096 954 l 929 394 q 776 102 892 204 q 479 0 661 0 q 235 76 322 0 q 149 292 149 151 q 160 394 149 336 l 275 971 l 303 971 l 188 394 q 178 299 178 346 q 258 99 178 169 q 485 28 339 28 q 759 123 653 28 q 901 394 865 218 l 1017 971 l 1026 971 q 1104 1002 1076 971 q 1132 1078 1132 1033 q 1125 1122 1132 1106 l 1154 1133 m 583 1238 l 772 1085 l 736 1078 l 557 1224 l 583 1238 z "},"Ử":{"ha":1169,"x_min":149,"x_max":1161,"o":"m 1154 1133 q 1161 1086 1161 1108 q 1128 994 1161 1033 q 1040 949 1096 954 l 929 394 q 776 102 892 204 q 479 0 661 0 q 235 76 322 0 q 149 292 149 151 q 160 394 149 336 l 275 971 l 303 971 l 188 394 q 178 299 178 346 q 258 99 178 169 q 485 28 339 28 q 759 123 653 28 q 901 394 865 218 l 1017 971 l 1026 971 q 1104 1002 1076 971 q 1132 1078 1132 1033 q 1125 1122 1132 1106 l 1154 1133 m 699 1282 q 763 1259 740 1282 q 785 1201 785 1236 q 758 1125 785 1164 q 683 1056 731 1086 l 657 1067 q 730 1131 703 1096 q 757 1196 757 1165 q 740 1238 757 1221 q 693 1254 724 1254 q 615 1229 658 1254 l 604 1251 q 699 1282 658 1282 z "},"Ữ":{"ha":1169,"x_min":149,"x_max":1161,"o":"m 1154 1133 q 1161 1086 1161 1108 q 1128 994 1161 1033 q 1040 949 1096 954 l 929 394 q 776 102 892 204 q 479 0 661 0 q 235 76 322 0 q 149 292 149 151 q 160 394 149 336 l 275 971 l 303 971 l 188 394 q 178 299 178 346 q 258 99 178 169 q 485 28 339 28 q 759 123 653 28 q 901 394 865 218 l 1017 971 l 1026 971 q 1104 1002 1076 971 q 1132 1078 1132 1033 q 1125 1122 1132 1106 l 1154 1133 m 885 1185 q 842 1103 874 1133 q 764 1072 810 1072 q 721 1083 738 1072 q 679 1119 704 1094 q 645 1151 661 1140 q 608 1163 629 1163 q 552 1140 575 1163 q 522 1078 529 1118 l 496 1078 q 536 1160 507 1131 q 610 1190 565 1190 q 653 1179 636 1190 q 694 1143 669 1168 q 728 1111 713 1122 q 765 1100 744 1100 q 825 1123 799 1100 q 858 1185 851 1146 l 885 1185 z "},"Ű":{"ha":1075,"x_min":149,"x_max":1044,"o":"m 929 394 q 776 102 892 204 q 479 0 661 0 q 235 76 322 0 q 149 292 149 151 q 160 394 149 336 l 275 971 l 303 971 l 188 394 q 178 299 178 346 q 258 99 178 169 q 485 28 339 28 q 759 123 653 28 q 901 394 865 218 l 1017 971 l 1044 971 l 929 394 m 704 1238 l 728 1222 l 596 1078 l 567 1085 l 704 1238 m 869 1238 l 893 1222 l 761 1078 l 732 1085 l 869 1238 z "},"Ȗ":{"ha":1075,"x_min":149,"x_max":1044,"o":"m 929 394 q 776 102 892 204 q 479 0 661 0 q 235 76 322 0 q 149 292 149 151 q 160 394 149 336 l 275 971 l 303 971 l 188 394 q 178 299 178 346 q 258 99 178 169 q 485 28 339 28 q 759 123 653 28 q 901 394 865 218 l 1017 971 l 1044 971 l 929 394 m 799 1078 q 800 1097 800 1085 q 774 1168 800 1140 q 704 1196 747 1196 q 615 1162 656 1196 q 563 1078 574 1128 l 535 1078 q 599 1182 549 1140 q 708 1224 649 1224 q 795 1190 761 1224 q 829 1104 829 1157 q 826 1078 829 1094 l 799 1078 z "},"Ū":{"ha":1075,"x_min":149,"x_max":1044,"o":"m 929 394 q 776 102 892 204 q 479 0 661 0 q 235 76 322 0 q 149 292 149 151 q 160 394 149 336 l 275 971 l 303 971 l 188 394 q 178 299 178 346 q 258 99 178 169 q 485 28 339 28 q 759 123 653 28 q 901 394 865 218 l 1017 971 l 1044 971 l 929 394 m 467 1113 l 907 1113 l 901 1085 l 461 1085 l 467 1113 z "},"Ṻ":{"ha":1075,"x_min":149,"x_max":1044,"o":"m 929 394 q 776 102 892 204 q 479 0 661 0 q 235 76 322 0 q 149 292 149 151 q 160 394 149 336 l 275 971 l 303 971 l 188 394 q 178 299 178 346 q 258 99 178 169 q 485 28 339 28 q 759 123 653 28 q 901 394 865 218 l 1017 971 l 1044 971 l 929 394 z "},"Ų":{"ha":1075,"x_min":149,"x_max":1044,"o":"m 1044 971 l 929 394 q 725 64 883 163 q 543 -89 606 -21 q 481 -210 481 -157 q 497 -253 481 -239 q 540 -268 514 -268 q 629 -240 581 -268 l 638 -262 q 533 -296 583 -296 q 473 -274 494 -296 q 451 -212 451 -251 q 495 -105 451 -161 q 625 19 539 -49 q 479 0 556 0 q 235 76 322 0 q 149 292 149 151 q 160 394 149 336 l 275 971 l 303 971 l 188 394 q 178 299 178 346 q 258 99 178 169 q 485 28 339 28 q 759 123 653 28 q 901 394 865 218 l 1017 971 l 1044 971 z "},"Ů":{"ha":1075,"x_min":149,"x_max":1044,"o":"m 929 394 q 776 102 892 204 q 479 0 661 0 q 235 76 322 0 q 149 292 149 151 q 160 394 149 336 l 275 971 l 303 971 l 188 394 q 178 299 178 346 q 258 99 178 169 q 485 28 339 28 q 759 123 653 28 q 901 394 865 218 l 1017 971 l 1044 971 l 929 394 m 711 1301 q 790 1269 758 1301 q 822 1192 822 1238 q 778 1099 822 1140 q 681 1058 735 1058 q 601 1090 633 1058 q 569 1165 569 1121 q 613 1260 569 1218 q 711 1301 656 1301 m 707 1275 q 631 1243 665 1275 q 597 1169 597 1211 q 622 1109 597 1133 q 685 1085 647 1085 q 761 1116 726 1085 q 796 1189 796 1147 q 770 1250 796 1225 q 707 1275 744 1275 z "},"Ũ":{"ha":1075,"x_min":149,"x_max":1044,"o":"m 929 394 q 776 102 892 204 q 479 0 661 0 q 235 76 322 0 q 149 292 149 151 q 160 394 149 336 l 275 971 l 303 971 l 188 394 q 178 299 178 346 q 258 99 178 169 q 485 28 339 28 q 759 123 653 28 q 901 394 865 218 l 1017 971 l 1044 971 l 929 394 m 885 1185 q 842 1103 874 1133 q 764 1072 810 1072 q 721 1083 738 1072 q 679 1119 704 1094 q 645 1151 661 1140 q 608 1163 629 1163 q 552 1140 575 1163 q 522 1078 529 1118 l 496 1078 q 536 1160 507 1131 q 610 1190 565 1190 q 653 1179 636 1190 q 694 1143 669 1168 q 728 1111 713 1122 q 765 1100 744 1100 q 825 1123 799 1100 q 858 1185 851 1146 l 885 1185 z "},"Ṹ":{"ha":1075,"x_min":149,"x_max":1044,"o":"m 929 394 q 776 102 892 204 q 479 0 661 0 q 235 76 322 0 q 149 292 149 151 q 160 394 149 336 l 275 971 l 303 971 l 188 394 q 178 299 178 346 q 258 99 178 169 q 485 28 339 28 q 759 123 653 28 q 901 394 865 218 l 1017 971 l 1044 971 l 929 394 m 917 1171 q 876 1100 908 1126 q 799 1074 844 1074 q 753 1084 772 1074 q 713 1114 735 1094 q 676 1141 690 1132 q 640 1150 661 1150 q 585 1131 607 1150 q 557 1078 564 1111 l 529 1078 q 567 1150 538 1124 q 640 1176 596 1176 q 685 1166 667 1176 q 726 1136 704 1156 q 763 1109 749 1118 q 799 1100 778 1100 q 858 1119 832 1100 q 890 1171 885 1139 l 917 1171 m 886 1365 l 910 1347 l 708 1235 l 674 1247 l 886 1365 z "},"V":{"ha":869,"x_min":136,"x_max":978,"o":"m 944 971 l 978 971 l 411 0 l 381 0 l 136 971 l 168 971 l 401 32 l 944 971 z "},"W":{"ha":1371,"x_min":136,"x_max":1479,"o":"m 1447 971 l 1479 971 l 989 0 l 960 0 l 801 931 l 333 0 l 304 0 l 136 971 l 167 971 l 325 31 l 792 971 l 822 971 l 981 33 l 1447 971 z "},"Ẃ":{"ha":1371,"x_min":136,"x_max":1479,"o":"m 1447 971 l 1479 971 l 989 0 l 960 0 l 801 931 l 333 0 l 304 0 l 136 971 l 167 971 l 325 31 l 792 971 l 822 971 l 981 33 l 1447 971 m 842 1238 l 868 1224 l 689 1078 l 653 1085 l 842 1238 z "},"Ŵ":{"ha":1371,"x_min":136,"x_max":1479,"o":"m 1447 971 l 1479 971 l 989 0 l 960 0 l 801 931 l 333 0 l 304 0 l 136 971 l 167 971 l 325 31 l 792 971 l 822 971 l 981 33 l 1447 971 m 849 1078 l 813 1078 l 715 1206 l 568 1078 l 532 1078 l 697 1231 l 742 1231 l 849 1078 z "},"Ẅ":{"ha":1371,"x_min":136,"x_max":1479,"o":"m 1447 971 l 1479 971 l 989 0 l 960 0 l 801 931 l 333 0 l 304 0 l 136 971 l 167 971 l 325 31 l 792 971 l 822 971 l 981 33 l 1447 971 m 601 1150 q 622 1141 614 1150 q 631 1119 631 1132 q 617 1090 631 1103 q 586 1078 603 1078 q 565 1087 574 1078 q 557 1108 557 1096 q 571 1138 557 1125 q 601 1150 585 1150 m 810 1150 q 831 1141 822 1150 q 839 1119 839 1132 q 825 1090 839 1103 q 794 1078 811 1078 q 774 1087 782 1078 q 765 1108 765 1096 q 779 1138 765 1125 q 810 1150 793 1150 z "},"Ẁ":{"ha":1371,"x_min":136,"x_max":1479,"o":"m 1447 971 l 1479 971 l 989 0 l 960 0 l 801 931 l 333 0 l 304 0 l 136 971 l 167 971 l 325 31 l 792 971 l 822 971 l 981 33 l 1447 971 m 593 1238 l 782 1085 l 746 1078 l 567 1224 l 593 1238 z "},"X":{"ha":872,"x_min":-19,"x_max":875,"o":"m 875 971 l 460 503 l 740 0 l 707 0 l 439 481 l 14 0 l -19 0 l 426 503 l 168 971 l 201 971 l 447 526 l 842 971 l 875 971 z "},"Y":{"ha":842,"x_min":136,"x_max":950,"o":"m 950 971 l 463 375 l 399 0 l 371 0 l 433 371 l 136 971 l 169 971 l 451 401 l 917 971 l 950 971 z "},"Ý":{"ha":842,"x_min":136,"x_max":950,"o":"m 950 971 l 463 375 l 399 0 l 371 0 l 433 371 l 136 971 l 169 971 l 451 401 l 917 971 l 950 971 m 715 1238 l 742 1224 l 563 1078 l 526 1085 l 715 1238 z "},"Ŷ":{"ha":842,"x_min":136,"x_max":950,"o":"m 950 971 l 463 375 l 399 0 l 371 0 l 433 371 l 136 971 l 169 971 l 451 401 l 917 971 l 950 971 m 722 1078 l 686 1078 l 589 1206 l 442 1078 l 406 1078 l 571 1231 l 615 1231 l 722 1078 z "},"Ÿ":{"ha":842,"x_min":136,"x_max":950,"o":"m 950 971 l 463 375 l 399 0 l 371 0 l 433 371 l 136 971 l 169 971 l 451 401 l 917 971 l 950 971 m 475 1150 q 496 1141 488 1150 q 504 1119 504 1132 q 490 1090 504 1103 q 460 1078 476 1078 q 439 1087 447 1078 q 431 1108 431 1096 q 444 1138 431 1125 q 475 1150 458 1150 m 683 1150 q 704 1141 696 1150 q 713 1119 713 1132 q 699 1090 713 1103 q 668 1078 685 1078 q 647 1087 656 1078 q 639 1108 639 1096 q 653 1138 639 1125 q 683 1150 667 1150 z "},"Ẏ":{"ha":842,"x_min":136,"x_max":950,"o":"m 950 971 l 463 375 l 399 0 l 371 0 l 433 371 l 136 971 l 169 971 l 451 401 l 917 971 l 950 971 m 579 1150 q 600 1141 592 1150 q 608 1119 608 1132 q 594 1090 608 1103 q 564 1078 581 1078 q 543 1087 551 1078 q 535 1108 535 1096 q 549 1138 535 1125 q 579 1150 563 1150 z "},"Ỵ":{"ha":842,"x_min":136,"x_max":950,"o":"m 950 971 l 463 375 l 399 0 l 371 0 l 433 371 l 136 971 l 169 971 l 451 401 l 917 971 l 950 971 m 364 -111 q 385 -120 376 -111 q 393 -142 393 -129 q 379 -171 393 -158 q 349 -183 365 -183 q 328 -174 336 -183 q 319 -153 319 -165 q 333 -124 319 -136 q 364 -111 347 -111 z "},"Ỳ":{"ha":842,"x_min":136,"x_max":950,"o":"m 950 971 l 463 375 l 399 0 l 371 0 l 433 371 l 136 971 l 169 971 l 451 401 l 917 971 l 950 971 m 467 1238 l 656 1085 l 619 1078 l 440 1224 l 467 1238 z "},"Ỷ":{"ha":842,"x_min":136,"x_max":950,"o":"m 950 971 l 463 375 l 399 0 l 371 0 l 433 371 l 136 971 l 169 971 l 451 401 l 917 971 l 950 971 m 582 1282 q 646 1259 624 1282 q 668 1201 668 1236 q 641 1125 668 1164 q 567 1056 614 1086 l 540 1067 q 613 1131 586 1096 q 640 1196 640 1165 q 624 1238 640 1221 q 576 1254 607 1254 q 499 1229 542 1254 l 488 1251 q 582 1282 542 1282 z "},"Ȳ":{"ha":842,"x_min":136,"x_max":950,"o":"m 950 971 l 463 375 l 399 0 l 371 0 l 433 371 l 136 971 l 169 971 l 451 401 l 917 971 l 950 971 m 350 1113 l 790 1113 l 785 1085 l 344 1085 l 350 1113 z "},"Ỹ":{"ha":842,"x_min":136,"x_max":950,"o":"m 950 971 l 463 375 l 399 0 l 371 0 l 433 371 l 136 971 l 169 971 l 451 401 l 917 971 l 950 971 m 768 1185 q 725 1103 757 1133 q 647 1072 693 1072 q 604 1083 621 1072 q 563 1119 588 1094 q 528 1151 544 1140 q 492 1163 513 1163 q 435 1140 458 1163 q 406 1078 413 1118 l 379 1078 q 419 1160 390 1131 q 493 1190 449 1190 q 536 1179 519 1190 q 578 1143 553 1168 q 612 1111 596 1122 q 649 1100 628 1100 q 708 1123 682 1100 q 742 1185 735 1146 l 768 1185 z "},"Z":{"ha":917,"x_min":14,"x_max":929,"o":"m 929 971 l 924 936 l 47 28 l 778 28 l 772 0 l 14 0 l 19 35 l 896 943 l 189 943 l 194 971 l 929 971 z "},"Ź":{"ha":917,"x_min":14,"x_max":929,"o":"m 929 971 l 924 936 l 47 28 l 778 28 l 772 0 l 14 0 l 19 35 l 896 943 l 189 943 l 194 971 l 929 971 m 728 1238 l 754 1224 l 575 1078 l 539 1085 l 728 1238 z "},"Ž":{"ha":917,"x_min":14,"x_max":929,"o":"m 929 971 l 924 936 l 47 28 l 778 28 l 772 0 l 14 0 l 19 35 l 896 943 l 189 943 l 194 971 l 929 971 m 728 1231 l 764 1231 l 599 1078 l 554 1078 l 447 1231 l 483 1231 l 581 1103 l 728 1231 z "},"Ż":{"ha":917,"x_min":14,"x_max":929,"o":"m 929 971 l 924 936 l 47 28 l 778 28 l 772 0 l 14 0 l 19 35 l 896 943 l 189 943 l 194 971 l 929 971 m 592 1150 q 613 1141 604 1150 q 621 1119 621 1132 q 607 1090 621 1103 q 576 1078 593 1078 q 556 1087 564 1078 q 547 1108 547 1096 q 561 1138 547 1125 q 592 1150 575 1150 z "},"Ẓ":{"ha":917,"x_min":14,"x_max":929,"o":"m 929 971 l 924 936 l 47 28 l 778 28 l 772 0 l 14 0 l 19 35 l 896 943 l 189 943 l 194 971 l 929 971 m 365 -111 q 386 -120 378 -111 q 394 -142 394 -129 q 381 -171 394 -158 q 350 -183 367 -183 q 329 -174 338 -183 q 321 -153 321 -165 q 335 -124 321 -136 q 365 -111 349 -111 z "},"a":{"ha":932,"x_min":71,"x_max":850,"o":"m 392 -3 q 226 37 299 -3 q 112 148 153 76 q 71 311 71 219 q 123 517 71 424 q 264 666 175 611 q 458 721 353 721 q 667 653 581 721 q 774 472 753 585 l 822 718 l 850 718 l 707 0 l 679 0 l 715 178 q 576 44 661 92 q 392 -3 490 -3 m 394 25 q 574 76 492 25 q 703 213 656 126 q 751 403 751 300 q 714 553 751 488 q 609 656 676 619 q 456 693 542 693 q 276 642 358 693 q 147 505 194 592 q 99 315 99 418 q 136 165 99 231 q 241 62 174 99 q 394 25 308 25 z "},"á":{"ha":932,"x_min":71,"x_max":850,"o":"m 392 -3 q 226 37 299 -3 q 112 148 153 76 q 71 311 71 219 q 123 517 71 424 q 264 666 175 611 q 458 721 353 721 q 667 653 581 721 q 774 472 753 585 l 822 718 l 850 718 l 707 0 l 679 0 l 715 178 q 576 44 661 92 q 392 -3 490 -3 m 394 25 q 574 76 492 25 q 703 213 656 126 q 751 403 751 300 q 714 553 751 488 q 609 656 676 619 q 456 693 542 693 q 276 642 358 693 q 147 505 194 592 q 99 315 99 418 q 136 165 99 231 q 241 62 174 99 q 394 25 308 25 m 696 1026 l 722 1013 l 543 867 l 507 874 l 696 1026 z "},"ă":{"ha":932,"x_min":71,"x_max":850,"o":"m 392 -3 q 226 37 299 -3 q 112 148 153 76 q 71 311 71 219 q 123 517 71 424 q 264 666 175 611 q 458 721 353 721 q 667 653 581 721 q 774 472 753 585 l 822 718 l 850 718 l 707 0 l 679 0 l 715 178 q 576 44 661 92 q 392 -3 490 -3 m 394 25 q 574 76 492 25 q 703 213 656 126 q 751 403 751 300 q 714 553 751 488 q 609 656 676 619 q 456 693 542 693 q 276 642 358 693 q 147 505 194 592 q 99 315 99 418 q 136 165 99 231 q 241 62 174 99 q 394 25 308 25 m 454 1008 q 453 989 453 1001 q 479 918 453 946 q 549 890 506 890 q 638 924 597 890 q 690 1008 679 958 l 718 1008 q 654 904 704 946 q 544 863 604 863 q 458 896 492 863 q 424 982 424 929 q 426 1008 424 992 l 454 1008 z "},"ắ":{"ha":932,"x_min":71,"x_max":850,"o":"m 392 -3 q 226 37 299 -3 q 112 148 153 76 q 71 311 71 219 q 123 517 71 424 q 264 666 175 611 q 458 721 353 721 q 667 653 581 721 q 774 472 753 585 l 822 718 l 850 718 l 707 0 l 679 0 l 715 178 q 576 44 661 92 q 392 -3 490 -3 m 394 25 q 574 76 492 25 q 703 213 656 126 q 751 403 751 300 q 714 553 751 488 q 609 656 676 619 q 456 693 542 693 q 276 642 358 693 q 147 505 194 592 q 99 315 99 418 q 136 165 99 231 q 241 62 174 99 q 394 25 308 25 m 450 986 q 473 919 444 946 q 550 893 501 893 q 638 919 599 893 q 686 986 676 946 l 714 986 q 653 901 701 935 q 544 867 604 867 q 456 895 490 867 q 421 968 421 924 q 422 986 421 981 l 450 986 m 715 1156 l 739 1138 l 538 1025 l 503 1038 l 715 1156 z "},"ặ":{"ha":932,"x_min":71,"x_max":850,"o":"m 392 -3 q 226 37 299 -3 q 112 148 153 76 q 71 311 71 219 q 123 517 71 424 q 264 666 175 611 q 458 721 353 721 q 667 653 581 721 q 774 472 753 585 l 822 718 l 850 718 l 707 0 l 679 0 l 715 178 q 576 44 661 92 q 392 -3 490 -3 m 394 25 q 574 76 492 25 q 703 213 656 126 q 751 403 751 300 q 714 553 751 488 q 609 656 676 619 q 456 693 542 693 q 276 642 358 693 q 147 505 194 592 q 99 315 99 418 q 136 165 99 231 q 241 62 174 99 q 394 25 308 25 m 374 -111 q 394 -120 386 -111 q 403 -142 403 -129 q 389 -171 403 -158 q 358 -183 375 -183 q 338 -174 346 -183 q 329 -153 329 -165 q 343 -124 329 -136 q 374 -111 357 -111 m 425 1008 q 424 989 424 1001 q 450 918 424 946 q 519 890 476 890 q 609 924 568 890 q 661 1008 650 958 l 689 1008 q 625 904 675 946 q 515 863 575 863 q 428 896 463 863 q 394 982 394 929 q 397 1008 394 992 l 425 1008 z "},"ằ":{"ha":932,"x_min":71,"x_max":850,"o":"m 392 -3 q 226 37 299 -3 q 112 148 153 76 q 71 311 71 219 q 123 517 71 424 q 264 666 175 611 q 458 721 353 721 q 667 653 581 721 q 774 472 753 585 l 822 718 l 850 718 l 707 0 l 679 0 l 715 178 q 576 44 661 92 q 392 -3 490 -3 m 394 25 q 574 76 492 25 q 703 213 656 126 q 751 403 751 300 q 714 553 751 488 q 609 656 676 619 q 456 693 542 693 q 276 642 358 693 q 147 505 194 592 q 99 315 99 418 q 136 165 99 231 q 241 62 174 99 q 394 25 308 25 m 450 986 q 473 919 444 946 q 550 893 501 893 q 638 919 599 893 q 686 986 676 946 l 714 986 q 653 901 701 935 q 544 867 604 867 q 456 895 490 867 q 421 968 421 924 q 422 986 421 981 l 450 986 m 456 1156 l 668 1038 l 633 1025 l 432 1138 l 456 1156 z "},"ẳ":{"ha":932,"x_min":71,"x_max":850,"o":"m 392 -3 q 226 37 299 -3 q 112 148 153 76 q 71 311 71 219 q 123 517 71 424 q 264 666 175 611 q 458 721 353 721 q 667 653 581 721 q 774 472 753 585 l 822 718 l 850 718 l 707 0 l 679 0 l 715 178 q 576 44 661 92 q 392 -3 490 -3 m 394 25 q 574 76 492 25 q 703 213 656 126 q 751 403 751 300 q 714 553 751 488 q 609 656 676 619 q 456 693 542 693 q 276 642 358 693 q 147 505 194 592 q 99 315 99 418 q 136 165 99 231 q 241 62 174 99 q 394 25 308 25 m 449 986 q 472 919 443 946 q 549 893 500 893 q 636 919 597 893 q 685 986 675 946 l 713 986 q 651 901 700 935 q 543 867 603 867 q 454 895 489 867 q 419 968 419 924 q 421 986 419 981 l 449 986 m 604 1215 q 661 1197 642 1215 q 681 1147 681 1178 q 653 1083 681 1115 q 579 1026 626 1050 l 554 1038 q 624 1088 599 1060 q 650 1142 650 1115 q 636 1174 650 1161 q 597 1186 622 1186 q 531 1167 567 1186 l 519 1189 q 604 1215 568 1215 z "},"ẵ":{"ha":932,"x_min":71,"x_max":850,"o":"m 392 -3 q 226 37 299 -3 q 112 148 153 76 q 71 311 71 219 q 123 517 71 424 q 264 666 175 611 q 458 721 353 721 q 667 653 581 721 q 774 472 753 585 l 822 718 l 850 718 l 707 0 l 679 0 l 715 178 q 576 44 661 92 q 392 -3 490 -3 m 394 25 q 574 76 492 25 q 703 213 656 126 q 751 403 751 300 q 714 553 751 488 q 609 656 676 619 q 456 693 542 693 q 276 642 358 693 q 147 505 194 592 q 99 315 99 418 q 136 165 99 231 q 241 62 174 99 q 394 25 308 25 m 450 986 q 473 919 444 946 q 550 893 501 893 q 638 919 599 893 q 686 986 676 946 l 714 986 q 653 901 701 935 q 544 867 604 867 q 456 895 490 867 q 421 968 421 924 q 422 986 421 981 l 450 986 m 790 1157 q 750 1086 782 1113 q 672 1060 718 1060 q 627 1070 646 1060 q 586 1100 608 1081 q 549 1127 564 1118 q 514 1136 535 1136 q 459 1117 481 1136 q 431 1064 438 1097 l 403 1064 q 440 1136 411 1110 q 514 1163 469 1163 q 559 1152 540 1163 q 600 1122 578 1142 q 637 1095 622 1104 q 672 1086 651 1086 q 732 1106 706 1086 q 764 1157 758 1125 l 790 1157 z "},"â":{"ha":932,"x_min":71,"x_max":850,"o":"m 392 -3 q 226 37 299 -3 q 112 148 153 76 q 71 311 71 219 q 123 517 71 424 q 264 666 175 611 q 458 721 353 721 q 667 653 581 721 q 774 472 753 585 l 822 718 l 850 718 l 707 0 l 679 0 l 715 178 q 576 44 661 92 q 392 -3 490 -3 m 394 25 q 574 76 492 25 q 703 213 656 126 q 751 403 751 300 q 714 553 751 488 q 609 656 676 619 q 456 693 542 693 q 276 642 358 693 q 147 505 194 592 q 99 315 99 418 q 136 165 99 231 q 241 62 174 99 q 394 25 308 25 m 703 867 l 667 867 l 569 994 l 422 867 l 386 867 l 551 1019 l 596 1019 l 703 867 z "},"ấ":{"ha":932,"x_min":71,"x_max":850,"o":"m 392 -3 q 226 37 299 -3 q 112 148 153 76 q 71 311 71 219 q 123 517 71 424 q 264 666 175 611 q 458 721 353 721 q 667 653 581 721 q 774 472 753 585 l 822 718 l 850 718 l 707 0 l 679 0 l 715 178 q 576 44 661 92 q 392 -3 490 -3 m 394 25 q 574 76 492 25 q 703 213 656 126 q 751 403 751 300 q 714 553 751 488 q 609 656 676 619 q 456 693 542 693 q 276 642 358 693 q 147 505 194 592 q 99 315 99 418 q 136 165 99 231 q 241 62 174 99 q 394 25 308 25 m 719 867 l 682 867 l 571 963 l 415 867 l 375 867 l 547 978 l 592 978 l 719 867 m 717 1157 l 740 1139 l 539 1026 l 504 1039 l 717 1157 z "},"ậ":{"ha":932,"x_min":71,"x_max":850,"o":"m 392 -3 q 226 37 299 -3 q 112 148 153 76 q 71 311 71 219 q 123 517 71 424 q 264 666 175 611 q 458 721 353 721 q 667 653 581 721 q 774 472 753 585 l 822 718 l 850 718 l 707 0 l 679 0 l 715 178 q 576 44 661 92 q 392 -3 490 -3 m 394 25 q 574 76 492 25 q 703 213 656 126 q 751 403 751 300 q 714 553 751 488 q 609 656 676 619 q 456 693 542 693 q 276 642 358 693 q 147 505 194 592 q 99 315 99 418 q 136 165 99 231 q 241 62 174 99 q 394 25 308 25 m 374 -111 q 394 -120 386 -111 q 403 -142 403 -129 q 389 -171 403 -158 q 358 -183 375 -183 q 338 -174 346 -183 q 329 -153 329 -165 q 343 -124 329 -136 q 374 -111 357 -111 m 674 867 l 638 867 l 540 994 l 393 867 l 357 867 l 522 1019 l 567 1019 l 674 867 z "},"ầ":{"ha":932,"x_min":71,"x_max":850,"o":"m 392 -3 q 226 37 299 -3 q 112 148 153 76 q 71 311 71 219 q 123 517 71 424 q 264 666 175 611 q 458 721 353 721 q 667 653 581 721 q 774 472 753 585 l 822 718 l 850 718 l 707 0 l 679 0 l 715 178 q 576 44 661 92 q 392 -3 490 -3 m 394 25 q 574 76 492 25 q 703 213 656 126 q 751 403 751 300 q 714 553 751 488 q 609 656 676 619 q 456 693 542 693 q 276 642 358 693 q 147 505 194 592 q 99 315 99 418 q 136 165 99 231 q 241 62 174 99 q 394 25 308 25 m 718 867 l 681 867 l 569 963 l 414 867 l 374 867 l 546 978 l 590 978 l 718 867 m 456 1157 l 668 1039 l 633 1026 l 432 1139 l 456 1157 z "},"ẩ":{"ha":932,"x_min":71,"x_max":850,"o":"m 392 -3 q 226 37 299 -3 q 112 148 153 76 q 71 311 71 219 q 123 517 71 424 q 264 666 175 611 q 458 721 353 721 q 667 653 581 721 q 774 472 753 585 l 822 718 l 850 718 l 707 0 l 679 0 l 715 178 q 576 44 661 92 q 392 -3 490 -3 m 394 25 q 574 76 492 25 q 703 213 656 126 q 751 403 751 300 q 714 553 751 488 q 609 656 676 619 q 456 693 542 693 q 276 642 358 693 q 147 505 194 592 q 99 315 99 418 q 136 165 99 231 q 241 62 174 99 q 394 25 308 25 m 718 867 l 681 867 l 569 963 l 414 867 l 374 867 l 546 978 l 590 978 l 718 867 m 606 1217 q 663 1198 643 1217 q 682 1149 682 1179 q 655 1084 682 1117 q 581 1028 628 1051 l 556 1039 q 626 1089 600 1061 q 651 1143 651 1117 q 638 1175 651 1163 q 599 1188 624 1188 q 532 1168 568 1188 l 521 1190 q 606 1217 569 1217 z "},"ẫ":{"ha":932,"x_min":71,"x_max":850,"o":"m 392 -3 q 226 37 299 -3 q 112 148 153 76 q 71 311 71 219 q 123 517 71 424 q 264 666 175 611 q 458 721 353 721 q 667 653 581 721 q 774 472 753 585 l 822 718 l 850 718 l 707 0 l 679 0 l 715 178 q 576 44 661 92 q 392 -3 490 -3 m 394 25 q 574 76 492 25 q 703 213 656 126 q 751 403 751 300 q 714 553 751 488 q 609 656 676 619 q 456 693 542 693 q 276 642 358 693 q 147 505 194 592 q 99 315 99 418 q 136 165 99 231 q 241 62 174 99 q 394 25 308 25 m 714 867 l 676 867 l 565 963 l 410 867 l 369 867 l 542 978 l 586 978 l 714 867 m 772 1133 q 732 1063 764 1089 q 654 1036 700 1036 q 609 1047 628 1036 q 568 1076 590 1057 q 531 1103 546 1094 q 496 1113 517 1113 q 441 1093 463 1113 q 413 1040 419 1074 l 385 1040 q 422 1113 393 1086 q 496 1139 451 1139 q 541 1128 522 1139 q 582 1099 560 1118 q 619 1072 604 1081 q 654 1063 633 1063 q 714 1082 688 1063 q 746 1133 740 1101 l 772 1133 z "},"ȁ":{"ha":932,"x_min":71,"x_max":850,"o":"m 392 -3 q 226 37 299 -3 q 112 148 153 76 q 71 311 71 219 q 123 517 71 424 q 264 666 175 611 q 458 721 353 721 q 667 653 581 721 q 774 472 753 585 l 822 718 l 850 718 l 707 0 l 679 0 l 715 178 q 576 44 661 92 q 392 -3 490 -3 m 394 25 q 574 76 492 25 q 703 213 656 126 q 751 403 751 300 q 714 553 751 488 q 609 656 676 619 q 456 693 542 693 q 276 642 358 693 q 147 505 194 592 q 99 315 99 418 q 136 165 99 231 q 241 62 174 99 q 394 25 308 25 m 393 1026 l 503 874 l 469 867 l 367 1011 l 393 1026 m 558 1026 l 668 874 l 635 867 l 532 1011 l 558 1026 z "},"ä":{"ha":932,"x_min":71,"x_max":850,"o":"m 392 -3 q 226 37 299 -3 q 112 148 153 76 q 71 311 71 219 q 123 517 71 424 q 264 666 175 611 q 458 721 353 721 q 667 653 581 721 q 774 472 753 585 l 822 718 l 850 718 l 707 0 l 679 0 l 715 178 q 576 44 661 92 q 392 -3 490 -3 m 394 25 q 574 76 492 25 q 703 213 656 126 q 751 403 751 300 q 714 553 751 488 q 609 656 676 619 q 456 693 542 693 q 276 642 358 693 q 147 505 194 592 q 99 315 99 418 q 136 165 99 231 q 241 62 174 99 q 394 25 308 25 m 460 961 q 481 952 472 961 q 489 931 489 943 q 475 901 489 914 q 444 889 461 889 q 424 898 432 889 q 415 919 415 907 q 429 949 415 936 q 460 961 443 961 m 668 961 q 689 952 681 961 q 697 931 697 943 q 683 901 697 914 q 653 889 669 889 q 632 898 640 889 q 624 919 624 907 q 638 949 624 936 q 668 961 651 961 z "},"ạ":{"ha":932,"x_min":71,"x_max":850,"o":"m 392 -3 q 226 37 299 -3 q 112 148 153 76 q 71 311 71 219 q 123 517 71 424 q 264 666 175 611 q 458 721 353 721 q 667 653 581 721 q 774 472 753 585 l 822 718 l 850 718 l 707 0 l 679 0 l 715 178 q 576 44 661 92 q 392 -3 490 -3 m 394 25 q 574 76 492 25 q 703 213 656 126 q 751 403 751 300 q 714 553 751 488 q 609 656 676 619 q 456 693 542 693 q 276 642 358 693 q 147 505 194 592 q 99 315 99 418 q 136 165 99 231 q 241 62 174 99 q 394 25 308 25 m 374 -111 q 394 -120 386 -111 q 403 -142 403 -129 q 389 -171 403 -158 q 358 -183 375 -183 q 338 -174 346 -183 q 329 -153 329 -165 q 343 -124 329 -136 q 374 -111 357 -111 z "},"à":{"ha":932,"x_min":71,"x_max":850,"o":"m 392 -3 q 226 37 299 -3 q 112 148 153 76 q 71 311 71 219 q 123 517 71 424 q 264 666 175 611 q 458 721 353 721 q 667 653 581 721 q 774 472 753 585 l 822 718 l 850 718 l 707 0 l 679 0 l 715 178 q 576 44 661 92 q 392 -3 490 -3 m 394 25 q 574 76 492 25 q 703 213 656 126 q 751 403 751 300 q 714 553 751 488 q 609 656 676 619 q 456 693 542 693 q 276 642 358 693 q 147 505 194 592 q 99 315 99 418 q 136 165 99 231 q 241 62 174 99 q 394 25 308 25 m 447 1026 l 636 874 l 600 867 l 421 1013 l 447 1026 z "},"ả":{"ha":932,"x_min":71,"x_max":850,"o":"m 392 -3 q 226 37 299 -3 q 112 148 153 76 q 71 311 71 219 q 123 517 71 424 q 264 666 175 611 q 458 721 353 721 q 667 653 581 721 q 774 472 753 585 l 822 718 l 850 718 l 707 0 l 679 0 l 715 178 q 576 44 661 92 q 392 -3 490 -3 m 394 25 q 574 76 492 25 q 703 213 656 126 q 751 403 751 300 q 714 553 751 488 q 609 656 676 619 q 456 693 542 693 q 276 642 358 693 q 147 505 194 592 q 99 315 99 418 q 136 165 99 231 q 241 62 174 99 q 394 25 308 25 m 557 1043 q 621 1020 599 1043 q 643 963 643 997 q 616 886 643 925 q 542 817 589 847 l 515 828 q 588 892 561 857 q 615 957 615 926 q 599 999 615 982 q 551 1015 582 1015 q 474 990 517 1015 l 463 1013 q 557 1043 517 1043 z "},"ȃ":{"ha":932,"x_min":71,"x_max":850,"o":"m 392 -3 q 226 37 299 -3 q 112 148 153 76 q 71 311 71 219 q 123 517 71 424 q 264 666 175 611 q 458 721 353 721 q 667 653 581 721 q 774 472 753 585 l 822 718 l 850 718 l 707 0 l 679 0 l 715 178 q 576 44 661 92 q 392 -3 490 -3 m 394 25 q 574 76 492 25 q 703 213 656 126 q 751 403 751 300 q 714 553 751 488 q 609 656 676 619 q 456 693 542 693 q 276 642 358 693 q 147 505 194 592 q 99 315 99 418 q 136 165 99 231 q 241 62 174 99 q 394 25 308 25 m 661 863 q 663 882 663 869 q 636 953 663 925 q 567 981 610 981 q 477 947 518 981 q 425 863 436 913 l 397 863 q 461 967 411 925 q 571 1008 511 1008 q 658 975 624 1008 q 692 889 692 942 q 689 863 692 879 l 661 863 z "},"ā":{"ha":932,"x_min":71,"x_max":850,"o":"m 392 -3 q 226 37 299 -3 q 112 148 153 76 q 71 311 71 219 q 123 517 71 424 q 264 666 175 611 q 458 721 353 721 q 667 653 581 721 q 774 472 753 585 l 822 718 l 850 718 l 707 0 l 679 0 l 715 178 q 576 44 661 92 q 392 -3 490 -3 m 394 25 q 574 76 492 25 q 703 213 656 126 q 751 403 751 300 q 714 553 751 488 q 609 656 676 619 q 456 693 542 693 q 276 642 358 693 q 147 505 194 592 q 99 315 99 418 q 136 165 99 231 q 241 62 174 99 q 394 25 308 25 m 379 940 l 736 940 l 731 913 l 374 913 l 379 940 z "},"ą":{"ha":932,"x_min":71,"x_max":850,"o":"m 707 0 q 545 -111 593 -65 q 497 -210 497 -157 q 514 -253 497 -237 q 557 -268 531 -268 q 646 -240 597 -268 l 654 -262 q 550 -296 600 -296 q 490 -274 511 -296 q 468 -214 468 -253 q 518 -101 468 -150 q 682 13 568 -51 l 715 178 q 576 44 661 92 q 392 -3 490 -3 q 226 37 299 -3 q 112 148 153 76 q 71 311 71 219 q 123 517 71 424 q 264 666 175 611 q 458 721 353 721 q 667 653 581 721 q 774 472 753 585 l 822 718 l 850 718 l 707 0 m 394 25 q 574 76 492 25 q 703 213 656 126 q 751 403 751 300 q 714 553 751 488 q 609 656 676 619 q 456 693 542 693 q 276 642 358 693 q 147 505 194 592 q 99 315 99 418 q 136 165 99 231 q 241 62 174 99 q 394 25 308 25 z "},"å":{"ha":932,"x_min":71,"x_max":850,"o":"m 392 -3 q 226 37 299 -3 q 112 148 153 76 q 71 311 71 219 q 123 517 71 424 q 264 666 175 611 q 458 721 353 721 q 667 653 581 721 q 774 472 753 585 l 822 718 l 850 718 l 707 0 l 679 0 l 715 178 q 576 44 661 92 q 392 -3 490 -3 m 394 25 q 574 76 492 25 q 703 213 656 126 q 751 403 751 300 q 714 553 751 488 q 609 656 676 619 q 456 693 542 693 q 276 642 358 693 q 147 505 194 592 q 99 315 99 418 q 136 165 99 231 q 241 62 174 99 q 394 25 308 25 m 567 1049 q 646 1017 614 1049 q 678 939 678 985 q 634 847 678 888 q 536 806 590 806 q 457 837 489 806 q 425 913 425 868 q 468 1007 425 965 q 567 1049 511 1049 m 563 1022 q 487 990 521 1022 q 453 917 453 958 q 478 856 453 881 q 540 832 503 832 q 617 863 582 832 q 651 936 651 894 q 626 997 651 972 q 563 1022 600 1022 z "},"ǻ":{"ha":932,"x_min":71,"x_max":850,"o":"m 392 -3 q 226 37 299 -3 q 112 148 153 76 q 71 311 71 219 q 123 517 71 424 q 264 666 175 611 q 458 721 353 721 q 667 653 581 721 q 774 472 753 585 l 822 718 l 850 718 l 707 0 l 679 0 l 715 178 q 576 44 661 92 q 392 -3 490 -3 m 394 25 q 574 76 492 25 q 703 213 656 126 q 751 403 751 300 q 714 553 751 488 q 609 656 676 619 q 456 693 542 693 q 276 642 358 693 q 147 505 194 592 q 99 315 99 418 q 136 165 99 231 q 241 62 174 99 q 394 25 308 25 m 542 1049 q 621 1017 589 1049 q 653 939 653 985 q 609 847 653 888 q 511 806 565 806 q 432 837 464 806 q 400 913 400 868 q 443 1007 400 965 q 542 1049 486 1049 m 538 1022 q 462 990 496 1022 q 428 917 428 958 q 453 856 428 881 q 515 832 478 832 q 592 863 557 832 q 626 936 626 894 q 601 997 626 972 q 538 1022 575 1022 m 707 1249 l 731 1231 l 529 1118 l 494 1131 l 707 1249 z "},"ã":{"ha":932,"x_min":71,"x_max":850,"o":"m 392 -3 q 226 37 299 -3 q 112 148 153 76 q 71 311 71 219 q 123 517 71 424 q 264 666 175 611 q 458 721 353 721 q 667 653 581 721 q 774 472 753 585 l 822 718 l 850 718 l 707 0 l 679 0 l 715 178 q 576 44 661 92 q 392 -3 490 -3 m 394 25 q 574 76 492 25 q 703 213 656 126 q 751 403 751 300 q 714 553 751 488 q 609 656 676 619 q 456 693 542 693 q 276 642 358 693 q 147 505 194 592 q 99 315 99 418 q 136 165 99 231 q 241 62 174 99 q 394 25 308 25 m 751 986 q 708 904 740 935 q 631 874 676 874 q 588 885 604 874 q 546 921 571 896 q 512 953 528 942 q 475 964 496 964 q 419 942 442 964 q 389 879 396 919 l 363 879 q 403 962 374 932 q 476 992 432 992 q 519 981 503 992 q 561 944 536 969 q 595 913 579 924 q 632 901 611 901 q 692 924 665 901 q 725 986 718 947 l 751 986 z "},"æ":{"ha":1349,"x_min":49,"x_max":1283,"o":"m 268 0 q 109 52 169 0 q 49 189 49 104 q 126 338 49 283 q 335 392 203 392 l 603 392 l 608 479 q 610 506 610 488 q 556 642 610 594 q 399 690 501 690 q 272 667 333 690 q 136 590 210 643 l 122 613 q 263 692 196 667 q 399 718 331 718 q 576 660 514 718 q 636 499 639 603 q 775 659 683 600 q 978 718 867 718 q 1138 678 1069 718 q 1245 565 1207 638 q 1283 400 1283 493 q 1282 360 1283 374 l 629 360 l 625 322 l 624 301 q 664 166 624 229 q 772 65 704 103 q 918 28 840 28 q 1063 54 996 28 q 1182 132 1131 81 l 1200 113 q 1072 29 1144 58 q 918 0 999 0 q 720 62 806 0 q 606 222 635 124 q 268 0 494 0 m 1256 388 q 1224 547 1257 478 q 1126 653 1190 615 q 978 690 1063 690 q 816 652 890 690 q 694 545 742 614 q 632 388 646 476 l 1256 388 m 268 28 q 459 81 383 28 q 592 256 535 135 l 601 364 l 332 364 q 144 318 211 364 q 76 188 76 272 q 129 72 76 115 q 268 28 182 28 z "},"ǽ":{"ha":1349,"x_min":49,"x_max":1283,"o":"m 268 0 q 109 52 169 0 q 49 189 49 104 q 126 338 49 283 q 335 392 203 392 l 603 392 l 608 479 q 610 506 610 488 q 556 642 610 594 q 399 690 501 690 q 272 667 333 690 q 136 590 210 643 l 122 613 q 263 692 196 667 q 399 718 331 718 q 576 660 514 718 q 636 499 639 603 q 775 659 683 600 q 978 718 867 718 q 1138 678 1069 718 q 1245 565 1207 638 q 1283 400 1283 493 q 1282 360 1283 374 l 629 360 l 625 322 l 624 301 q 664 166 624 229 q 772 65 704 103 q 918 28 840 28 q 1063 54 996 28 q 1182 132 1131 81 l 1200 113 q 1072 29 1144 58 q 918 0 999 0 q 720 62 806 0 q 606 222 635 124 q 268 0 494 0 m 1256 388 q 1224 547 1257 478 q 1126 653 1190 615 q 978 690 1063 690 q 816 652 890 690 q 694 545 742 614 q 632 388 646 476 l 1256 388 m 268 28 q 459 81 383 28 q 592 256 535 135 l 601 364 l 332 364 q 144 318 211 364 q 76 188 76 272 q 129 72 76 115 q 268 28 182 28 m 867 1026 l 893 1013 l 714 867 l 678 874 l 867 1026 z "},"b":{"ha":939,"x_min":89,"x_max":868,"o":"m 547 721 q 713 681 640 721 q 827 570 786 642 q 868 407 868 499 q 816 201 868 294 q 675 52 764 107 q 481 -3 586 -3 q 272 65 358 -3 q 165 246 186 133 l 117 0 l 89 0 l 294 1031 l 322 1031 l 224 540 q 363 674 278 626 q 547 721 449 721 m 544 693 q 365 642 447 693 q 235 505 283 592 q 188 315 188 418 q 225 165 188 231 q 330 62 263 99 q 483 25 397 25 q 663 76 581 25 q 792 213 744 126 q 840 403 840 300 q 803 553 840 488 q 698 656 765 619 q 544 693 631 693 z "},"c":{"ha":801,"x_min":74,"x_max":694,"o":"m 389 0 q 226 42 297 0 q 114 157 154 83 q 74 325 74 231 q 125 526 74 436 q 265 667 176 615 q 460 718 354 718 q 591 693 531 718 q 694 622 651 668 l 675 603 q 457 690 588 690 q 276 644 358 690 q 147 514 194 597 q 100 326 100 431 q 137 171 100 239 q 240 65 174 103 q 392 28 306 28 q 530 55 465 28 q 643 132 594 82 l 660 113 q 537 29 607 58 q 389 0 467 0 z "},"ć":{"ha":801,"x_min":74,"x_max":694,"o":"m 389 0 q 226 42 297 0 q 114 157 154 83 q 74 325 74 231 q 125 526 74 436 q 265 667 176 615 q 460 718 354 718 q 591 693 531 718 q 694 622 651 668 l 675 603 q 457 690 588 690 q 276 644 358 690 q 147 514 194 597 q 100 326 100 431 q 137 171 100 239 q 240 65 174 103 q 392 28 306 28 q 530 55 465 28 q 643 132 594 82 l 660 113 q 537 29 607 58 q 389 0 467 0 m 635 1026 l 661 1013 l 482 867 l 446 874 l 635 1026 z "},"č":{"ha":801,"x_min":74,"x_max":694,"o":"m 389 0 q 226 42 297 0 q 114 157 154 83 q 74 325 74 231 q 125 526 74 436 q 265 667 176 615 q 460 718 354 718 q 591 693 531 718 q 694 622 651 668 l 675 603 q 457 690 588 690 q 276 644 358 690 q 147 514 194 597 q 100 326 100 431 q 137 171 100 239 q 240 65 174 103 q 392 28 306 28 q 530 55 465 28 q 643 132 594 82 l 660 113 q 537 29 607 58 q 389 0 467 0 m 635 1019 l 671 1019 l 506 867 l 461 867 l 354 1019 l 390 1019 l 488 892 l 635 1019 z "},"ç":{"ha":801,"x_min":74,"x_max":694,"o":"m 457 690 q 276 644 358 690 q 147 514 194 597 q 100 326 100 431 q 137 171 100 239 q 240 65 174 103 q 392 28 306 28 q 530 55 465 28 q 643 132 594 82 l 660 113 q 537 29 607 58 q 389 0 467 0 l 385 0 l 385 0 l 349 -75 q 419 -101 394 -76 q 443 -162 443 -126 q 424 -226 443 -194 q 372 -276 406 -257 q 294 -296 338 -296 q 240 -287 268 -296 q 199 -265 213 -279 l 217 -237 q 254 -258 231 -250 q 300 -267 278 -267 q 381 -236 350 -267 q 413 -168 413 -206 q 395 -120 413 -139 q 347 -101 378 -101 l 307 -101 l 356 1 q 208 51 272 8 q 109 165 144 94 q 74 325 74 236 q 125 526 74 436 q 265 667 176 615 q 460 718 354 718 q 591 693 531 718 q 694 622 651 668 l 675 603 q 457 690 588 690 z "},"ḉ":{"ha":801,"x_min":74,"x_max":694,"o":"m 689 1013 l 510 867 l 474 874 l 663 1026 l 689 1013 m 457 690 q 276 644 358 690 q 147 514 194 597 q 100 326 100 431 q 137 171 100 239 q 240 65 174 103 q 392 28 306 28 q 530 55 465 28 q 643 132 594 82 l 660 113 q 537 29 607 58 q 389 0 467 0 l 385 0 l 385 0 l 349 -75 q 419 -101 394 -76 q 443 -162 443 -126 q 424 -226 443 -194 q 372 -276 406 -257 q 294 -296 338 -296 q 240 -287 268 -296 q 199 -265 213 -279 l 217 -237 q 254 -258 231 -250 q 300 -267 278 -267 q 381 -236 350 -267 q 413 -168 413 -206 q 395 -120 413 -139 q 347 -101 378 -101 l 307 -101 l 356 1 q 208 51 272 8 q 109 165 144 94 q 74 325 74 236 q 125 526 74 436 q 265 667 176 615 q 460 718 354 718 q 591 693 531 718 q 694 622 651 668 l 675 603 q 457 690 588 690 z "},"ĉ":{"ha":801,"x_min":74,"x_max":694,"o":"m 389 0 q 226 42 297 0 q 114 157 154 83 q 74 325 74 231 q 125 526 74 436 q 265 667 176 615 q 460 718 354 718 q 591 693 531 718 q 694 622 651 668 l 675 603 q 457 690 588 690 q 276 644 358 690 q 147 514 194 597 q 100 326 100 431 q 137 171 100 239 q 240 65 174 103 q 392 28 306 28 q 530 55 465 28 q 643 132 594 82 l 660 113 q 537 29 607 58 q 389 0 467 0 m 642 867 l 606 867 l 508 994 l 361 867 l 325 867 l 490 1019 l 535 1019 l 642 867 z "},"ċ":{"ha":801,"x_min":74,"x_max":694,"o":"m 389 0 q 226 42 297 0 q 114 157 154 83 q 74 325 74 231 q 125 526 74 436 q 265 667 176 615 q 460 718 354 718 q 591 693 531 718 q 694 622 651 668 l 675 603 q 457 690 588 690 q 276 644 358 690 q 147 514 194 597 q 100 326 100 431 q 137 171 100 239 q 240 65 174 103 q 392 28 306 28 q 530 55 465 28 q 643 132 594 82 l 660 113 q 537 29 607 58 q 389 0 467 0 m 503 961 q 524 952 515 961 q 532 931 532 943 q 518 901 532 914 q 488 889 504 889 q 467 898 475 889 q 458 919 458 907 q 472 949 458 936 q 503 961 486 961 z "},"d":{"ha":939,"x_min":71,"x_max":913,"o":"m 392 -3 q 226 37 299 -3 q 112 148 153 76 q 71 311 71 219 q 123 517 71 424 q 264 666 175 611 q 458 721 353 721 q 667 653 581 721 q 774 472 753 585 l 885 1031 l 913 1031 l 707 0 l 679 0 l 715 178 q 576 44 661 92 q 392 -3 490 -3 m 394 25 q 574 76 492 25 q 703 213 656 126 q 751 403 751 300 q 714 553 751 488 q 609 656 676 619 q 456 693 542 693 q 276 642 358 693 q 147 505 194 592 q 99 315 99 418 q 136 165 99 231 q 241 62 174 99 q 394 25 308 25 z "},"ð":{"ha":793,"x_min":74,"x_max":726,"o":"m 529 851 q 668 623 619 744 q 717 381 717 501 q 624 102 717 203 q 368 1 532 1 q 153 74 233 1 q 74 268 74 146 q 117 444 74 367 q 238 564 160 521 q 415 607 315 607 q 596 558 519 607 q 696 428 672 510 q 631 641 682 535 q 501 839 581 747 l 246 731 l 236 754 l 483 860 q 304 1010 400 950 l 324 1033 q 513 871 433 960 l 717 958 l 726 935 l 529 851 m 367 29 q 533 68 461 29 q 645 177 606 107 q 685 338 685 247 q 612 514 685 449 q 414 579 539 579 q 251 541 322 579 q 142 433 181 503 q 103 272 103 363 q 174 95 103 161 q 367 29 244 29 z "},"ď":{"ha":993,"x_min":71,"x_max":1065,"o":"m 392 -3 q 226 37 299 -3 q 112 148 153 76 q 71 311 71 219 q 123 517 71 424 q 264 666 175 611 q 458 721 353 721 q 667 653 581 721 q 774 472 753 585 l 885 1031 l 913 1031 l 707 0 l 679 0 l 715 178 q 576 44 661 92 q 392 -3 490 -3 m 394 25 q 574 76 492 25 q 703 213 656 126 q 751 403 751 300 q 714 553 751 488 q 609 656 676 619 q 456 693 542 693 q 276 642 358 693 q 147 505 194 592 q 99 315 99 418 q 136 165 99 231 q 241 62 174 99 q 394 25 308 25 m 1038 1031 l 1065 1031 l 1014 782 l 989 782 l 1038 1031 z "},"đ":{"ha":960,"x_min":71,"x_max":996,"o":"m 990 860 l 878 860 l 707 0 l 679 0 l 715 178 q 576 44 661 92 q 392 -3 490 -3 q 226 37 299 -3 q 112 148 153 76 q 71 311 71 219 q 123 517 71 424 q 264 666 175 611 q 458 721 353 721 q 667 653 581 721 q 774 472 753 585 l 851 860 l 504 860 l 510 888 l 857 888 l 885 1031 l 913 1031 l 883 888 l 996 888 l 990 860 m 394 25 q 574 76 492 25 q 703 213 656 126 q 751 403 751 300 q 714 553 751 488 q 609 656 676 619 q 456 693 542 693 q 276 642 358 693 q 147 505 194 592 q 99 315 99 418 q 136 165 99 231 q 241 62 174 99 q 394 25 308 25 z "},"ḍ":{"ha":939,"x_min":71,"x_max":913,"o":"m 392 -3 q 226 37 299 -3 q 112 148 153 76 q 71 311 71 219 q 123 517 71 424 q 264 666 175 611 q 458 721 353 721 q 667 653 581 721 q 774 472 753 585 l 885 1031 l 913 1031 l 707 0 l 679 0 l 715 178 q 576 44 661 92 q 392 -3 490 -3 m 394 25 q 574 76 492 25 q 703 213 656 126 q 751 403 751 300 q 714 553 751 488 q 609 656 676 619 q 456 693 542 693 q 276 642 358 693 q 147 505 194 592 q 99 315 99 418 q 136 165 99 231 q 241 62 174 99 q 394 25 308 25 m 401 -111 q 422 -120 414 -111 q 431 -142 431 -129 q 417 -171 431 -158 q 386 -183 403 -183 q 365 -174 374 -183 q 357 -153 357 -165 q 371 -124 357 -136 q 401 -111 385 -111 z "},"ḏ":{"ha":939,"x_min":71,"x_max":913,"o":"m 392 -3 q 226 37 299 -3 q 112 148 153 76 q 71 311 71 219 q 123 517 71 424 q 264 666 175 611 q 458 721 353 721 q 667 653 581 721 q 774 472 753 585 l 885 1031 l 913 1031 l 707 0 l 679 0 l 715 178 q 576 44 661 92 q 392 -3 490 -3 m 394 25 q 574 76 492 25 q 703 213 656 126 q 751 403 751 300 q 714 553 751 488 q 609 656 676 619 q 456 693 542 693 q 276 642 358 693 q 147 505 194 592 q 99 315 99 418 q 136 165 99 231 q 241 62 174 99 q 394 25 308 25 m 247 -125 l 549 -125 l 543 -153 l 242 -153 l 247 -125 z "},"ǆ":{"ha":1647,"x_min":71,"x_max":1638,"o":"m 392 -3 q 226 37 299 -3 q 112 148 153 76 q 71 311 71 219 q 123 517 71 424 q 264 666 175 611 q 458 721 353 721 q 667 653 581 721 q 774 472 753 585 l 885 1031 l 913 1031 l 707 0 l 679 0 l 715 178 q 576 44 661 92 q 392 -3 490 -3 m 394 25 q 574 76 492 25 q 703 213 656 126 q 751 403 751 300 q 714 553 751 488 q 609 656 676 619 q 456 693 542 693 q 276 642 358 693 q 147 505 194 592 q 99 315 99 418 q 136 165 99 231 q 241 62 174 99 q 394 25 308 25 m 1638 717 l 1631 682 l 986 28 l 1510 26 l 1504 -1 l 953 0 l 960 35 l 1604 689 l 1103 690 l 1108 718 l 1638 717 m 1546 1019 l 1582 1019 l 1417 867 l 1372 867 l 1265 1019 l 1301 1019 l 1399 892 l 1546 1019 z "},"e":{"ha":822,"x_min":74,"x_max":757,"o":"m 103 360 q 101 326 101 349 q 138 171 101 239 q 239 65 174 103 q 389 28 304 28 q 535 55 467 28 q 653 132 604 82 l 671 113 q 542 29 617 58 q 386 0 468 0 q 224 42 294 0 q 113 157 153 83 q 74 325 74 231 q 125 526 74 436 q 264 667 176 615 q 457 718 351 718 q 617 678 549 718 q 721 567 685 639 q 757 404 757 496 q 756 360 757 375 l 103 360 m 454 690 q 291 652 365 690 q 167 545 217 614 q 106 388 118 476 l 731 388 q 660 607 733 524 q 454 690 586 690 z "},"é":{"ha":822,"x_min":74,"x_max":757,"o":"m 103 360 q 101 326 101 349 q 138 171 101 239 q 239 65 174 103 q 389 28 304 28 q 535 55 467 28 q 653 132 604 82 l 671 113 q 542 29 617 58 q 386 0 468 0 q 224 42 294 0 q 113 157 153 83 q 74 325 74 231 q 125 526 74 436 q 264 667 176 615 q 457 718 351 718 q 617 678 549 718 q 721 567 685 639 q 757 404 757 496 q 756 360 757 375 l 103 360 m 454 690 q 291 652 365 690 q 167 545 217 614 q 106 388 118 476 l 731 388 q 660 607 733 524 q 454 690 586 690 m 629 1026 l 656 1013 l 476 867 l 440 874 l 629 1026 z "},"ĕ":{"ha":822,"x_min":74,"x_max":757,"o":"m 103 360 q 101 326 101 349 q 138 171 101 239 q 239 65 174 103 q 389 28 304 28 q 535 55 467 28 q 653 132 604 82 l 671 113 q 542 29 617 58 q 386 0 468 0 q 224 42 294 0 q 113 157 153 83 q 74 325 74 231 q 125 526 74 436 q 264 667 176 615 q 457 718 351 718 q 617 678 549 718 q 721 567 685 639 q 757 404 757 496 q 756 360 757 375 l 103 360 m 454 690 q 291 652 365 690 q 167 545 217 614 q 106 388 118 476 l 731 388 q 660 607 733 524 q 454 690 586 690 m 388 1008 q 386 989 386 1001 q 413 918 386 946 q 482 890 439 890 q 572 924 531 890 q 624 1008 613 958 l 651 1008 q 588 904 638 946 q 478 863 538 863 q 391 896 425 863 q 357 982 357 929 q 360 1008 357 992 l 388 1008 z "},"ě":{"ha":822,"x_min":74,"x_max":757,"o":"m 103 360 q 101 326 101 349 q 138 171 101 239 q 239 65 174 103 q 389 28 304 28 q 535 55 467 28 q 653 132 604 82 l 671 113 q 542 29 617 58 q 386 0 468 0 q 224 42 294 0 q 113 157 153 83 q 74 325 74 231 q 125 526 74 436 q 264 667 176 615 q 457 718 351 718 q 617 678 549 718 q 721 567 685 639 q 757 404 757 496 q 756 360 757 375 l 103 360 m 454 690 q 291 652 365 690 q 167 545 217 614 q 106 388 118 476 l 731 388 q 660 607 733 524 q 454 690 586 690 m 629 1019 l 665 1019 l 500 867 l 456 867 l 349 1019 l 385 1019 l 482 892 l 629 1019 z "},"ḝ":{"ha":822,"x_min":74,"x_max":757,"o":"m 526 863 q 440 896 474 863 q 406 982 406 929 q 408 1008 406 992 l 436 1008 q 435 989 435 1001 q 461 918 435 946 q 531 890 488 890 q 620 924 579 890 q 672 1008 661 958 l 700 1008 q 636 904 686 946 q 526 863 586 863 m 103 360 q 101 326 101 349 q 138 171 101 239 q 239 65 174 103 q 389 28 304 28 q 535 55 467 28 q 653 132 604 82 l 671 113 q 548 31 618 61 q 399 0 478 1 l 400 0 l 364 -75 q 434 -101 410 -76 q 458 -162 458 -126 q 440 -226 458 -194 q 387 -276 421 -257 q 310 -296 353 -296 q 256 -287 283 -296 q 214 -265 228 -279 l 232 -237 q 269 -258 246 -250 q 315 -267 293 -267 q 397 -236 365 -267 q 428 -168 428 -206 q 410 -120 428 -139 q 363 -101 393 -101 l 322 -101 l 371 0 q 216 47 283 4 q 111 161 149 89 q 74 325 74 233 q 125 526 74 436 q 264 667 176 615 q 457 718 351 718 q 617 678 549 718 q 721 567 685 639 q 757 404 757 496 q 756 360 757 375 l 103 360 m 454 690 q 291 652 365 690 q 167 545 217 614 q 106 388 118 476 l 731 388 q 660 607 733 524 q 454 690 586 690 z "},"ê":{"ha":822,"x_min":74,"x_max":757,"o":"m 103 360 q 101 326 101 349 q 138 171 101 239 q 239 65 174 103 q 389 28 304 28 q 535 55 467 28 q 653 132 604 82 l 671 113 q 542 29 617 58 q 386 0 468 0 q 224 42 294 0 q 113 157 153 83 q 74 325 74 231 q 125 526 74 436 q 264 667 176 615 q 457 718 351 718 q 617 678 549 718 q 721 567 685 639 q 757 404 757 496 q 756 360 757 375 l 103 360 m 454 690 q 291 652 365 690 q 167 545 217 614 q 106 388 118 476 l 731 388 q 660 607 733 524 q 454 690 586 690 m 636 867 l 600 867 l 503 994 l 356 867 l 319 867 l 485 1019 l 529 1019 l 636 867 z "},"ế":{"ha":822,"x_min":74,"x_max":757,"o":"m 103 360 q 101 326 101 349 q 138 171 101 239 q 239 65 174 103 q 389 28 304 28 q 535 55 467 28 q 653 132 604 82 l 671 113 q 542 29 617 58 q 386 0 468 0 q 224 42 294 0 q 113 157 153 83 q 74 325 74 231 q 125 526 74 436 q 264 667 176 615 q 457 718 351 718 q 617 678 549 718 q 721 567 685 639 q 757 404 757 496 q 756 360 757 375 l 103 360 m 454 690 q 291 652 365 690 q 167 545 217 614 q 106 388 118 476 l 731 388 q 660 607 733 524 q 454 690 586 690 m 653 867 l 615 867 l 504 963 l 349 867 l 308 867 l 481 978 l 525 978 l 653 867 m 650 1157 l 674 1139 l 472 1026 l 438 1039 l 650 1157 z "},"ệ":{"ha":822,"x_min":74,"x_max":757,"o":"m 103 360 q 101 326 101 349 q 138 171 101 239 q 239 65 174 103 q 389 28 304 28 q 535 55 467 28 q 653 132 604 82 l 671 113 q 542 29 617 58 q 386 0 468 0 q 224 42 294 0 q 113 157 153 83 q 74 325 74 231 q 125 526 74 436 q 264 667 176 615 q 457 718 351 718 q 617 678 549 718 q 721 567 685 639 q 757 404 757 496 q 756 360 757 375 l 103 360 m 454 690 q 291 652 365 690 q 167 545 217 614 q 106 388 118 476 l 731 388 q 660 607 733 524 q 454 690 586 690 m 365 -111 q 386 -120 378 -111 q 394 -142 394 -129 q 381 -171 394 -158 q 350 -183 367 -183 q 329 -174 338 -183 q 321 -153 321 -165 q 335 -124 321 -136 q 365 -111 349 -111 m 665 867 l 629 867 l 532 994 l 385 867 l 349 867 l 514 1019 l 558 1019 l 665 867 z "},"ề":{"ha":822,"x_min":74,"x_max":757,"o":"m 103 360 q 101 326 101 349 q 138 171 101 239 q 239 65 174 103 q 389 28 304 28 q 535 55 467 28 q 653 132 604 82 l 671 113 q 542 29 617 58 q 386 0 468 0 q 224 42 294 0 q 113 157 153 83 q 74 325 74 231 q 125 526 74 436 q 264 667 176 615 q 457 718 351 718 q 617 678 549 718 q 721 567 685 639 q 757 404 757 496 q 756 360 757 375 l 103 360 m 454 690 q 291 652 365 690 q 167 545 217 614 q 106 388 118 476 l 731 388 q 660 607 733 524 q 454 690 586 690 m 651 867 l 614 867 l 503 963 l 347 867 l 307 867 l 479 978 l 524 978 l 651 867 m 389 1157 l 601 1039 l 567 1026 l 365 1139 l 389 1157 z "},"ể":{"ha":822,"x_min":74,"x_max":757,"o":"m 103 360 q 101 326 101 349 q 138 171 101 239 q 239 65 174 103 q 389 28 304 28 q 535 55 467 28 q 653 132 604 82 l 671 113 q 542 29 617 58 q 386 0 468 0 q 224 42 294 0 q 113 157 153 83 q 74 325 74 231 q 125 526 74 436 q 264 667 176 615 q 457 718 351 718 q 617 678 549 718 q 721 567 685 639 q 757 404 757 496 q 756 360 757 375 l 103 360 m 454 690 q 291 652 365 690 q 167 545 217 614 q 106 388 118 476 l 731 388 q 660 607 733 524 q 454 690 586 690 m 651 867 l 614 867 l 503 963 l 347 867 l 307 867 l 479 978 l 524 978 l 651 867 m 539 1217 q 596 1198 576 1217 q 615 1149 615 1179 q 588 1084 615 1117 q 514 1028 561 1051 l 489 1039 q 559 1089 533 1061 q 585 1143 585 1117 q 571 1175 585 1163 q 532 1188 557 1188 q 465 1168 501 1188 l 454 1190 q 539 1217 503 1217 z "},"ễ":{"ha":822,"x_min":74,"x_max":757,"o":"m 103 360 q 101 326 101 349 q 138 171 101 239 q 239 65 174 103 q 389 28 304 28 q 535 55 467 28 q 653 132 604 82 l 671 113 q 542 29 617 58 q 386 0 468 0 q 224 42 294 0 q 113 157 153 83 q 74 325 74 231 q 125 526 74 436 q 264 667 176 615 q 457 718 351 718 q 617 678 549 718 q 721 567 685 639 q 757 404 757 496 q 756 360 757 375 l 103 360 m 454 690 q 291 652 365 690 q 167 545 217 614 q 106 388 118 476 l 731 388 q 660 607 733 524 q 454 690 586 690 m 647 867 l 610 867 l 499 963 l 343 867 l 303 867 l 475 978 l 519 978 l 647 867 m 706 1133 q 665 1063 697 1089 q 588 1036 633 1036 q 542 1047 561 1036 q 501 1076 524 1057 q 465 1103 479 1094 q 429 1113 450 1113 q 374 1093 396 1113 q 346 1040 353 1074 l 318 1040 q 356 1113 326 1086 q 429 1139 385 1139 q 474 1128 456 1139 q 515 1099 493 1118 q 552 1072 538 1081 q 588 1063 567 1063 q 647 1082 621 1063 q 679 1133 674 1101 l 706 1133 z "},"ȅ":{"ha":822,"x_min":74,"x_max":757,"o":"m 103 360 q 101 326 101 349 q 138 171 101 239 q 239 65 174 103 q 389 28 304 28 q 535 55 467 28 q 653 132 604 82 l 671 113 q 542 29 617 58 q 386 0 468 0 q 224 42 294 0 q 113 157 153 83 q 74 325 74 231 q 125 526 74 436 q 264 667 176 615 q 457 718 351 718 q 617 678 549 718 q 721 567 685 639 q 757 404 757 496 q 756 360 757 375 l 103 360 m 454 690 q 291 652 365 690 q 167 545 217 614 q 106 388 118 476 l 731 388 q 660 607 733 524 q 454 690 586 690 m 326 1026 l 436 874 l 403 867 l 300 1011 l 326 1026 m 492 1026 l 601 874 l 568 867 l 465 1011 l 492 1026 z "},"ë":{"ha":822,"x_min":74,"x_max":757,"o":"m 103 360 q 101 326 101 349 q 138 171 101 239 q 239 65 174 103 q 389 28 304 28 q 535 55 467 28 q 653 132 604 82 l 671 113 q 542 29 617 58 q 386 0 468 0 q 224 42 294 0 q 113 157 153 83 q 74 325 74 231 q 125 526 74 436 q 264 667 176 615 q 457 718 351 718 q 617 678 549 718 q 721 567 685 639 q 757 404 757 496 q 756 360 757 375 l 103 360 m 454 690 q 291 652 365 690 q 167 545 217 614 q 106 388 118 476 l 731 388 q 660 607 733 524 q 454 690 586 690 m 393 961 q 414 952 406 961 q 422 931 422 943 q 408 901 422 914 q 378 889 394 889 q 357 898 365 889 q 349 919 349 907 q 363 949 349 936 q 393 961 376 961 m 601 961 q 622 952 614 961 q 631 931 631 943 q 617 901 631 914 q 586 889 603 889 q 565 898 574 889 q 557 919 557 907 q 571 949 557 936 q 601 961 585 961 z "},"ė":{"ha":822,"x_min":74,"x_max":757,"o":"m 103 360 q 101 326 101 349 q 138 171 101 239 q 239 65 174 103 q 389 28 304 28 q 535 55 467 28 q 653 132 604 82 l 671 113 q 542 29 617 58 q 386 0 468 0 q 224 42 294 0 q 113 157 153 83 q 74 325 74 231 q 125 526 74 436 q 264 667 176 615 q 457 718 351 718 q 617 678 549 718 q 721 567 685 639 q 757 404 757 496 q 756 360 757 375 l 103 360 m 454 690 q 291 652 365 690 q 167 545 217 614 q 106 388 118 476 l 731 388 q 660 607 733 524 q 454 690 586 690 m 497 961 q 518 952 510 961 q 526 931 526 943 q 513 901 526 914 q 482 889 499 889 q 461 898 469 889 q 453 919 453 907 q 467 949 453 936 q 497 961 481 961 z "},"ẹ":{"ha":822,"x_min":74,"x_max":757,"o":"m 103 360 q 101 326 101 349 q 138 171 101 239 q 239 65 174 103 q 389 28 304 28 q 535 55 467 28 q 653 132 604 82 l 671 113 q 542 29 617 58 q 386 0 468 0 q 224 42 294 0 q 113 157 153 83 q 74 325 74 231 q 125 526 74 436 q 264 667 176 615 q 457 718 351 718 q 617 678 549 718 q 721 567 685 639 q 757 404 757 496 q 756 360 757 375 l 103 360 m 454 690 q 291 652 365 690 q 167 545 217 614 q 106 388 118 476 l 731 388 q 660 607 733 524 q 454 690 586 690 m 365 -111 q 386 -120 378 -111 q 394 -142 394 -129 q 381 -171 394 -158 q 350 -183 367 -183 q 329 -174 338 -183 q 321 -153 321 -165 q 335 -124 321 -136 q 365 -111 349 -111 z "},"è":{"ha":822,"x_min":74,"x_max":757,"o":"m 103 360 q 101 326 101 349 q 138 171 101 239 q 239 65 174 103 q 389 28 304 28 q 535 55 467 28 q 653 132 604 82 l 671 113 q 542 29 617 58 q 386 0 468 0 q 224 42 294 0 q 113 157 153 83 q 74 325 74 231 q 125 526 74 436 q 264 667 176 615 q 457 718 351 718 q 617 678 549 718 q 721 567 685 639 q 757 404 757 496 q 756 360 757 375 l 103 360 m 454 690 q 291 652 365 690 q 167 545 217 614 q 106 388 118 476 l 731 388 q 660 607 733 524 q 454 690 586 690 m 381 1026 l 569 874 l 533 867 l 354 1013 l 381 1026 z "},"ẻ":{"ha":822,"x_min":74,"x_max":757,"o":"m 103 360 q 101 326 101 349 q 138 171 101 239 q 239 65 174 103 q 389 28 304 28 q 535 55 467 28 q 653 132 604 82 l 671 113 q 542 29 617 58 q 386 0 468 0 q 224 42 294 0 q 113 157 153 83 q 74 325 74 231 q 125 526 74 436 q 264 667 176 615 q 457 718 351 718 q 617 678 549 718 q 721 567 685 639 q 757 404 757 496 q 756 360 757 375 l 103 360 m 454 690 q 291 652 365 690 q 167 545 217 614 q 106 388 118 476 l 731 388 q 660 607 733 524 q 454 690 586 690 m 490 1043 q 554 1020 532 1043 q 576 963 576 997 q 549 886 576 925 q 475 817 522 847 l 449 828 q 522 892 494 857 q 549 957 549 926 q 532 999 549 982 q 485 1015 515 1015 q 407 990 450 1015 l 396 1013 q 490 1043 450 1043 z "},"ȇ":{"ha":822,"x_min":74,"x_max":757,"o":"m 103 360 q 101 326 101 349 q 138 171 101 239 q 239 65 174 103 q 389 28 304 28 q 535 55 467 28 q 653 132 604 82 l 671 113 q 542 29 617 58 q 386 0 468 0 q 224 42 294 0 q 113 157 153 83 q 74 325 74 231 q 125 526 74 436 q 264 667 176 615 q 457 718 351 718 q 617 678 549 718 q 721 567 685 639 q 757 404 757 496 q 756 360 757 375 l 103 360 m 454 690 q 291 652 365 690 q 167 545 217 614 q 106 388 118 476 l 731 388 q 660 607 733 524 q 454 690 586 690 m 594 863 q 596 882 596 869 q 569 953 596 925 q 500 981 543 981 q 410 947 451 981 q 358 863 369 913 l 331 863 q 394 967 344 925 q 504 1008 444 1008 q 591 975 557 1008 q 625 889 625 942 q 622 863 625 879 l 594 863 z "},"ē":{"ha":822,"x_min":74,"x_max":757,"o":"m 103 360 q 101 326 101 349 q 138 171 101 239 q 239 65 174 103 q 389 28 304 28 q 535 55 467 28 q 653 132 604 82 l 671 113 q 542 29 617 58 q 386 0 468 0 q 224 42 294 0 q 113 157 153 83 q 74 325 74 231 q 125 526 74 436 q 264 667 176 615 q 457 718 351 718 q 617 678 549 718 q 721 567 685 639 q 757 404 757 496 q 756 360 757 375 l 103 360 m 454 690 q 291 652 365 690 q 167 545 217 614 q 106 388 118 476 l 731 388 q 660 607 733 524 q 454 690 586 690 m 313 940 l 669 940 l 664 913 l 307 913 l 313 940 z "},"ḗ":{"ha":822,"x_min":74,"x_max":757,"o":"m 103 360 q 101 326 101 349 q 138 171 101 239 q 239 65 174 103 q 389 28 304 28 q 535 55 467 28 q 653 132 604 82 l 671 113 q 542 29 617 58 q 386 0 468 0 q 224 42 294 0 q 113 157 153 83 q 74 325 74 231 q 125 526 74 436 q 264 667 176 615 q 457 718 351 718 q 617 678 549 718 q 721 567 685 639 q 757 404 757 496 q 756 360 757 375 l 103 360 m 454 690 q 291 652 365 690 q 167 545 217 614 q 106 388 118 476 l 731 388 q 660 607 733 524 q 454 690 586 690 m 332 893 l 633 893 l 628 865 l 326 865 l 332 893 m 640 1115 l 664 1097 l 463 985 l 428 997 l 640 1115 z "},"ḕ":{"ha":822,"x_min":74,"x_max":757,"o":"m 103 360 q 101 326 101 349 q 138 171 101 239 q 239 65 174 103 q 389 28 304 28 q 535 55 467 28 q 653 132 604 82 l 671 113 q 542 29 617 58 q 386 0 468 0 q 224 42 294 0 q 113 157 153 83 q 74 325 74 231 q 125 526 74 436 q 264 667 176 615 q 457 718 351 718 q 617 678 549 718 q 721 567 685 639 q 757 404 757 496 q 756 360 757 375 l 103 360 m 454 690 q 291 652 365 690 q 167 545 217 614 q 106 388 118 476 l 731 388 q 660 607 733 524 q 454 690 586 690 m 332 893 l 633 893 l 628 865 l 326 865 l 332 893 m 381 1115 l 593 997 l 558 985 l 357 1097 l 381 1115 z "},"ę":{"ha":822,"x_min":74,"x_max":757,"o":"m 103 360 q 101 326 101 349 q 138 171 101 239 q 239 65 174 103 q 389 28 304 28 q 535 55 467 28 q 653 132 604 82 l 671 113 q 607 63 640 82 q 427 -90 489 -22 q 365 -210 365 -157 q 382 -253 365 -239 q 425 -268 399 -268 q 514 -240 465 -268 l 522 -262 q 418 -296 468 -296 q 358 -274 379 -296 q 336 -212 336 -251 q 379 -106 336 -162 q 507 17 422 -50 q 386 0 449 0 q 224 42 294 0 q 113 157 153 83 q 74 325 74 231 q 125 526 74 436 q 264 667 176 615 q 457 718 351 718 q 617 678 549 718 q 721 567 685 639 q 757 404 757 496 q 756 360 757 375 l 103 360 m 454 690 q 291 652 365 690 q 167 545 217 614 q 106 388 118 476 l 731 388 q 660 607 733 524 q 454 690 586 690 z "},"ẽ":{"ha":822,"x_min":74,"x_max":757,"o":"m 103 360 q 101 326 101 349 q 138 171 101 239 q 239 65 174 103 q 389 28 304 28 q 535 55 467 28 q 653 132 604 82 l 671 113 q 542 29 617 58 q 386 0 468 0 q 224 42 294 0 q 113 157 153 83 q 74 325 74 231 q 125 526 74 436 q 264 667 176 615 q 457 718 351 718 q 617 678 549 718 q 721 567 685 639 q 757 404 757 496 q 756 360 757 375 l 103 360 m 454 690 q 291 652 365 690 q 167 545 217 614 q 106 388 118 476 l 731 388 q 660 607 733 524 q 454 690 586 690 m 685 986 q 642 904 674 935 q 564 874 610 874 q 521 885 538 874 q 479 921 504 896 q 445 953 461 942 q 408 964 429 964 q 352 942 375 964 q 322 879 329 919 l 296 879 q 336 962 307 932 q 410 992 365 992 q 453 981 436 992 q 494 944 469 969 q 528 913 513 924 q 565 901 544 901 q 625 924 599 901 q 658 986 651 947 l 685 986 z "},"ə":{"ha":828,"x_min":71,"x_max":754,"o":"m 442 718 q 604 676 533 718 q 715 561 675 635 q 754 393 754 488 q 703 192 754 282 q 564 51 651 103 q 371 0 476 0 q 211 40 279 0 q 107 151 143 79 q 71 314 71 222 q 72 358 71 343 l 725 358 q 726 392 726 369 q 690 547 726 479 q 589 653 654 615 q 439 690 524 690 q 292 663 361 690 q 175 586 224 636 l 157 606 q 285 689 211 660 q 442 718 360 718 m 374 28 q 537 66 463 28 q 660 173 611 104 q 722 331 710 242 l 97 331 q 168 111 94 194 q 374 28 242 28 z "},"f":{"ha":411,"x_min":92,"x_max":610,"o":"m 493 1044 q 610 1011 558 1044 l 593 989 q 500 1017 547 1017 q 363 960 425 1017 q 283 818 300 903 l 261 704 l 493 704 l 488 676 l 256 676 l 119 0 l 92 0 l 226 676 l 136 676 l 142 704 l 232 704 l 256 821 q 303 933 268 882 q 390 1015 339 985 q 493 1044 440 1044 z "},"g":{"ha":874,"x_min":13,"x_max":814,"o":"m 308 -268 q 143 -235 214 -265 q 13 -142 72 -204 l 33 -125 q 153 -210 86 -182 q 308 -240 219 -237 q 533 -169 443 -242 q 650 33 624 -97 l 685 210 q 553 85 633 129 q 379 40 472 40 q 223 78 292 40 q 115 183 154 115 q 76 336 76 250 q 126 530 76 442 q 259 669 175 618 q 443 721 343 721 q 640 658 558 721 q 740 489 721 594 l 786 718 l 814 718 l 678 31 q 553 -190 650 -111 q 308 -268 456 -269 m 383 68 q 552 115 475 68 q 674 244 629 163 q 719 421 719 325 q 684 563 719 501 q 585 659 649 625 q 440 693 522 693 q 272 646 349 693 q 149 517 194 599 q 104 340 104 436 q 140 199 104 261 q 238 103 175 138 q 383 68 301 68 z "},"ğ":{"ha":874,"x_min":13,"x_max":814,"o":"m 308 -268 q 143 -235 214 -265 q 13 -142 72 -204 l 33 -125 q 153 -210 86 -182 q 308 -240 219 -237 q 533 -169 443 -242 q 650 33 624 -97 l 685 210 q 553 85 633 129 q 379 40 472 40 q 223 78 292 40 q 115 183 154 115 q 76 336 76 250 q 126 530 76 442 q 259 669 175 618 q 443 721 343 721 q 640 658 558 721 q 740 489 721 594 l 786 718 l 814 718 l 678 31 q 553 -190 650 -111 q 308 -268 456 -269 m 383 68 q 552 115 475 68 q 674 244 629 163 q 719 421 719 325 q 684 563 719 501 q 585 659 649 625 q 440 693 522 693 q 272 646 349 693 q 149 517 194 599 q 104 340 104 436 q 140 199 104 261 q 238 103 175 138 q 383 68 301 68 m 449 1008 q 447 989 447 1001 q 474 918 447 946 q 543 890 500 890 q 633 924 592 890 q 685 1008 674 958 l 713 1008 q 649 904 699 946 q 539 863 599 863 q 452 896 486 863 q 418 982 418 929 q 421 1008 418 992 l 449 1008 z "},"ǧ":{"ha":874,"x_min":13,"x_max":814,"o":"m 308 -268 q 143 -235 214 -265 q 13 -142 72 -204 l 33 -125 q 153 -210 86 -182 q 308 -240 219 -237 q 533 -169 443 -242 q 650 33 624 -97 l 685 210 q 553 85 633 129 q 379 40 472 40 q 223 78 292 40 q 115 183 154 115 q 76 336 76 250 q 126 530 76 442 q 259 669 175 618 q 443 721 343 721 q 640 658 558 721 q 740 489 721 594 l 786 718 l 814 718 l 678 31 q 553 -190 650 -111 q 308 -268 456 -269 m 383 68 q 552 115 475 68 q 674 244 629 163 q 719 421 719 325 q 684 563 719 501 q 585 659 649 625 q 440 693 522 693 q 272 646 349 693 q 149 517 194 599 q 104 340 104 436 q 140 199 104 261 q 238 103 175 138 q 383 68 301 68 m 690 1019 l 726 1019 l 561 867 l 517 867 l 410 1019 l 446 1019 l 543 892 l 690 1019 z "},"ĝ":{"ha":874,"x_min":13,"x_max":814,"o":"m 308 -268 q 143 -235 214 -265 q 13 -142 72 -204 l 33 -125 q 153 -210 86 -182 q 308 -240 219 -237 q 533 -169 443 -242 q 650 33 624 -97 l 685 210 q 553 85 633 129 q 379 40 472 40 q 223 78 292 40 q 115 183 154 115 q 76 336 76 250 q 126 530 76 442 q 259 669 175 618 q 443 721 343 721 q 640 658 558 721 q 740 489 721 594 l 786 718 l 814 718 l 678 31 q 553 -190 650 -111 q 308 -268 456 -269 m 383 68 q 552 115 475 68 q 674 244 629 163 q 719 421 719 325 q 684 563 719 501 q 585 659 649 625 q 440 693 522 693 q 272 646 349 693 q 149 517 194 599 q 104 340 104 436 q 140 199 104 261 q 238 103 175 138 q 383 68 301 68 m 697 867 l 661 867 l 564 994 l 417 867 l 381 867 l 546 1019 l 590 1019 l 697 867 z "},"ģ":{"ha":874,"x_min":13,"x_max":814,"o":"m 308 -268 q 143 -235 214 -265 q 13 -142 72 -204 l 33 -125 q 153 -210 86 -182 q 308 -240 219 -237 q 533 -169 443 -242 q 650 33 624 -97 l 685 210 q 553 85 633 129 q 379 40 472 40 q 223 78 292 40 q 115 183 154 115 q 76 336 76 250 q 126 530 76 442 q 259 669 175 618 q 443 721 343 721 q 640 658 558 721 q 740 489 721 594 l 786 718 l 814 718 l 678 31 q 553 -190 650 -111 q 308 -268 456 -269 m 383 68 q 552 115 475 68 q 674 244 629 163 q 719 421 719 325 q 684 563 719 501 q 585 659 649 625 q 440 693 522 693 q 272 646 349 693 q 149 517 194 599 q 104 340 104 436 q 140 199 104 261 q 238 103 175 138 q 383 68 301 68 m 543 854 l 507 854 l 607 1061 l 632 1061 l 543 854 z "},"ġ":{"ha":874,"x_min":13,"x_max":814,"o":"m 308 -268 q 143 -235 214 -265 q 13 -142 72 -204 l 33 -125 q 153 -210 86 -182 q 308 -240 219 -237 q 533 -169 443 -242 q 650 33 624 -97 l 685 210 q 553 85 633 129 q 379 40 472 40 q 223 78 292 40 q 115 183 154 115 q 76 336 76 250 q 126 530 76 442 q 259 669 175 618 q 443 721 343 721 q 640 658 558 721 q 740 489 721 594 l 786 718 l 814 718 l 678 31 q 553 -190 650 -111 q 308 -268 456 -269 m 383 68 q 552 115 475 68 q 674 244 629 163 q 719 421 719 325 q 684 563 719 501 q 585 659 649 625 q 440 693 522 693 q 272 646 349 693 q 149 517 194 599 q 104 340 104 436 q 140 199 104 261 q 238 103 175 138 q 383 68 301 68 m 558 961 q 579 952 571 961 q 588 931 588 943 q 574 901 588 914 q 543 889 560 889 q 522 898 531 889 q 514 919 514 907 q 528 949 514 936 q 558 961 542 961 z "},"ḡ":{"ha":874,"x_min":13,"x_max":814,"o":"m 308 -268 q 143 -235 214 -265 q 13 -142 72 -204 l 33 -125 q 153 -210 86 -182 q 308 -240 219 -237 q 533 -169 443 -242 q 650 33 624 -97 l 685 210 q 553 85 633 129 q 379 40 472 40 q 223 78 292 40 q 115 183 154 115 q 76 336 76 250 q 126 530 76 442 q 259 669 175 618 q 443 721 343 721 q 640 658 558 721 q 740 489 721 594 l 786 718 l 814 718 l 678 31 q 553 -190 650 -111 q 308 -268 456 -269 m 383 68 q 552 115 475 68 q 674 244 629 163 q 719 421 719 325 q 684 563 719 501 q 585 659 649 625 q 440 693 522 693 q 272 646 349 693 q 149 517 194 599 q 104 340 104 436 q 140 199 104 261 q 238 103 175 138 q 383 68 301 68 m 374 940 l 731 940 l 725 913 l 368 913 l 374 940 z "},"h":{"ha":906,"x_min":92,"x_max":799,"o":"m 560 718 q 737 663 675 718 q 799 508 799 608 q 790 435 799 475 l 704 0 l 676 0 l 763 435 q 769 503 769 474 q 715 642 769 593 q 560 690 661 690 q 320 603 419 688 q 192 369 221 518 l 119 0 l 92 0 l 294 1031 l 322 1031 l 221 511 q 361 662 274 608 q 560 718 449 715 z "},"ħ":{"ha":906,"x_min":92,"x_max":799,"o":"m 560 718 q 737 663 675 718 q 799 508 799 608 q 790 435 799 475 l 704 0 l 676 0 l 763 435 q 769 503 769 474 q 715 642 769 593 q 560 690 661 690 q 320 603 419 688 q 192 369 221 518 l 119 0 l 92 0 l 261 860 l 151 860 l 157 888 l 267 888 l 294 1031 l 322 1031 l 294 888 l 614 888 l 608 860 l 289 860 l 221 511 q 361 662 274 608 q 560 718 449 715 z "},"ḫ":{"ha":906,"x_min":92,"x_max":799,"o":"m 560 718 q 737 663 675 718 q 799 508 799 608 q 790 435 799 475 l 704 0 l 676 0 l 763 435 q 769 503 769 474 q 715 642 769 593 q 560 690 661 690 q 320 603 419 688 q 192 369 221 518 l 119 0 l 92 0 l 294 1031 l 322 1031 l 221 511 q 361 662 274 608 q 560 718 449 715 m 249 -69 q 247 -89 247 -76 q 274 -160 247 -132 q 343 -187 300 -187 q 433 -153 392 -187 q 485 -69 474 -119 l 513 -69 q 449 -174 499 -132 q 339 -215 399 -215 q 252 -182 286 -215 q 218 -96 218 -149 q 221 -69 218 -86 l 249 -69 z "},"ĥ":{"ha":906,"x_min":92,"x_max":799,"o":"m 560 718 q 737 663 675 718 q 799 508 799 608 q 790 435 799 475 l 704 0 l 676 0 l 763 435 q 769 503 769 474 q 715 642 769 593 q 560 690 661 690 q 320 603 419 688 q 192 369 221 518 l 119 0 l 92 0 l 294 1031 l 322 1031 l 221 511 q 361 662 274 608 q 560 718 449 715 m 488 1138 l 451 1138 l 354 1265 l 207 1138 l 171 1138 l 336 1290 l 381 1290 l 488 1138 z "},"ḥ":{"ha":906,"x_min":92,"x_max":799,"o":"m 560 718 q 737 663 675 718 q 799 508 799 608 q 790 435 799 475 l 704 0 l 676 0 l 763 435 q 769 503 769 474 q 715 642 769 593 q 560 690 661 690 q 320 603 419 688 q 192 369 221 518 l 119 0 l 92 0 l 294 1031 l 322 1031 l 221 511 q 361 662 274 608 q 560 718 449 715 m 360 -111 q 381 -120 372 -111 q 389 -142 389 -129 q 375 -171 389 -158 q 344 -183 361 -183 q 324 -174 332 -183 q 315 -153 315 -165 q 329 -124 315 -136 q 360 -111 343 -111 z "},"i":{"ha":335,"x_min":82,"x_max":317,"o":"m 253 718 l 110 0 l 82 0 l 225 718 l 253 718 m 288 961 q 308 952 300 961 q 317 931 317 943 q 303 901 317 914 q 272 889 289 889 q 251 898 260 889 q 243 919 243 907 q 257 949 243 936 q 288 961 271 961 z "},"ı":{"ha":335,"x_min":82,"x_max":253,"o":"m 253 718 l 110 0 l 82 0 l 225 718 l 253 718 z "},"í":{"ha":335,"x_min":82,"x_max":446,"o":"m 253 718 l 110 0 l 82 0 l 225 718 l 253 718 m 419 1026 l 446 1013 l 267 867 l 231 874 l 419 1026 z "},"ĭ":{"ha":335,"x_min":82,"x_max":442,"o":"m 253 718 l 110 0 l 82 0 l 225 718 l 253 718 m 178 1008 q 176 989 176 1001 q 203 918 176 946 q 272 890 229 890 q 362 924 321 890 q 414 1008 403 958 l 442 1008 q 378 904 428 946 q 268 863 328 863 q 181 896 215 863 q 147 982 147 929 q 150 1008 147 992 l 178 1008 z "},"î":{"ha":335,"x_min":82,"x_max":426,"o":"m 253 718 l 110 0 l 82 0 l 225 718 l 253 718 m 426 867 l 390 867 l 293 994 l 146 867 l 110 867 l 275 1019 l 319 1019 l 426 867 z "},"ȉ":{"ha":335,"x_min":82,"x_max":392,"o":"m 253 718 l 110 0 l 82 0 l 225 718 l 253 718 m 117 1026 l 226 874 l 193 867 l 90 1011 l 117 1026 m 282 1026 l 392 874 l 358 867 l 256 1011 l 282 1026 z "},"ï":{"ha":335,"x_min":82,"x_max":393,"o":"m 253 718 l 110 0 l 82 0 l 225 718 l 253 718 m 211 961 q 232 952 224 961 q 240 931 240 943 q 226 901 240 914 q 196 889 213 889 q 175 898 183 889 q 167 919 167 907 q 181 949 167 936 q 211 961 194 961 m 364 961 q 385 952 376 961 q 393 931 393 943 q 379 901 393 914 q 349 889 365 889 q 328 898 336 889 q 319 919 319 907 q 333 949 319 936 q 364 961 347 961 z "},"ḯ":{"ha":335,"x_min":82,"x_max":447,"o":"m 253 718 l 110 0 l 82 0 l 225 718 l 253 718 m 186 939 q 207 930 199 939 q 215 908 215 921 q 201 879 215 892 q 171 867 188 867 q 150 876 158 867 q 142 897 142 885 q 156 926 142 914 q 186 939 169 939 m 369 939 q 390 930 382 939 q 399 908 399 921 q 385 879 399 892 q 354 867 371 867 q 333 876 342 867 q 325 897 325 885 q 339 926 325 914 q 369 939 353 939 m 424 1111 l 447 1093 l 246 981 l 211 993 l 424 1111 z "},"ị":{"ha":335,"x_min":31,"x_max":317,"o":"m 253 718 l 110 0 l 82 0 l 225 718 l 253 718 m 288 961 q 308 952 300 961 q 317 931 317 943 q 303 901 317 914 q 272 889 289 889 q 251 898 260 889 q 243 919 243 907 q 257 949 243 936 q 288 961 271 961 m 75 -111 q 96 -120 88 -111 q 104 -142 104 -129 q 90 -171 104 -158 q 60 -183 76 -183 q 39 -174 47 -183 q 31 -153 31 -165 q 44 -124 31 -136 q 75 -111 58 -111 z "},"ì":{"ha":335,"x_min":82,"x_max":360,"o":"m 253 718 l 110 0 l 82 0 l 225 718 l 253 718 m 171 1026 l 360 874 l 324 867 l 144 1013 l 171 1026 z "},"ỉ":{"ha":335,"x_min":82,"x_max":367,"o":"m 253 718 l 110 0 l 82 0 l 225 718 l 253 718 m 281 1043 q 344 1020 322 1043 q 367 963 367 997 q 340 886 367 925 q 265 817 313 847 l 239 828 q 312 892 285 857 q 339 957 339 926 q 322 999 339 982 q 275 1015 306 1015 q 197 990 240 1015 l 186 1013 q 281 1043 240 1043 z "},"ȋ":{"ha":335,"x_min":82,"x_max":385,"o":"m 253 718 l 110 0 l 82 0 l 225 718 l 253 718 m 357 863 q 358 888 358 871 q 339 955 358 929 q 286 981 319 981 q 215 947 247 981 q 171 863 182 913 l 144 863 q 201 967 160 925 q 292 1008 243 1008 q 359 977 333 1008 q 385 897 385 946 q 382 863 385 875 l 357 863 z "},"ĳ":{"ha":654,"x_min":82,"x_max":643,"o":"m 253 718 l 110 0 l 82 0 l 225 718 l 253 718 m 288 961 q 308 952 300 961 q 317 931 317 943 q 303 901 317 914 q 272 889 289 889 q 251 898 260 889 q 243 919 243 907 q 257 949 243 936 q 288 961 271 961 m 154 -225 q 224 -240 183 -237 q 335 -191 290 -242 q 400 -42 381 -140 l 551 718 l 579 718 l 428 -44 q 355 -212 406 -156 q 226 -268 304 -268 q 140 -249 182 -268 l 154 -225 m 614 961 q 635 952 626 961 q 643 931 643 943 q 629 901 643 914 q 599 889 615 889 q 578 898 586 889 q 569 919 569 907 q 583 949 569 936 q 614 961 597 961 z "},"ī":{"ha":335,"x_min":82,"x_max":432,"o":"m 253 718 l 110 0 l 82 0 l 225 718 l 253 718 m 131 940 l 432 940 l 426 913 l 125 913 l 131 940 z "},"į":{"ha":335,"x_min":-129,"x_max":317,"o":"m 288 961 q 308 952 300 961 q 317 931 317 943 q 303 901 317 914 q 272 889 289 889 q 251 898 260 889 q 243 919 243 907 q 257 949 243 936 q 288 961 271 961 m 225 718 l 253 718 l 110 0 q -52 -111 -4 -65 q -100 -210 -100 -157 q -83 -253 -100 -237 q -40 -268 -67 -268 q 49 -240 0 -268 l 57 -262 q -47 -296 3 -296 q -108 -274 -86 -296 q -129 -214 -129 -253 q -79 -101 -129 -150 q 85 13 -29 -51 l 225 718 z "},"ĩ":{"ha":335,"x_min":82,"x_max":440,"o":"m 253 718 l 110 0 l 82 0 l 225 718 l 253 718 m 440 986 q 402 904 429 935 q 338 874 375 874 q 301 885 315 874 q 271 922 288 897 q 244 954 254 944 q 217 964 233 964 q 172 942 190 964 q 146 879 153 919 l 121 879 q 159 961 132 931 q 224 992 186 992 q 260 980 246 992 q 290 943 274 968 q 317 911 307 921 q 344 901 328 901 q 390 924 371 901 q 415 986 408 946 l 440 986 z "},"j":{"ha":319,"x_min":-194,"x_max":308,"o":"m -181 -225 q -111 -240 -151 -237 q 1 -191 -44 -242 q 65 -42 46 -140 l 217 718 l 244 718 l 93 -44 q 20 -212 71 -156 q -108 -268 -31 -268 q -194 -249 -153 -268 l -181 -225 m 279 961 q 300 952 292 961 q 308 931 308 943 q 294 901 308 914 q 264 889 281 889 q 243 898 251 889 q 235 919 235 907 q 249 949 235 936 q 279 961 263 961 z "},"ȷ":{"ha":319,"x_min":-194,"x_max":244,"o":"m -181 -225 q -111 -240 -151 -237 q 1 -191 -44 -242 q 65 -42 46 -140 l 217 718 l 244 718 l 93 -44 q 20 -212 71 -156 q -108 -268 -31 -268 q -194 -249 -153 -268 l -181 -225 z "},"ĵ":{"ha":319,"x_min":-194,"x_max":418,"o":"m -181 -225 q -111 -240 -151 -237 q 1 -191 -44 -242 q 65 -42 46 -140 l 217 718 l 244 718 l 93 -44 q 20 -212 71 -156 q -108 -268 -31 -268 q -194 -249 -153 -268 l -181 -225 m 418 867 l 382 867 l 285 994 l 138 867 l 101 867 l 267 1019 l 311 1019 l 418 867 z "},"k":{"ha":749,"x_min":89,"x_max":756,"o":"m 756 718 l 426 440 l 654 0 l 621 0 l 403 419 l 160 214 l 117 0 l 89 0 l 294 1031 l 322 1031 l 168 257 l 717 718 l 756 718 z "},"ķ":{"ha":749,"x_min":89,"x_max":756,"o":"m 756 718 l 426 440 l 654 0 l 621 0 l 403 419 l 160 214 l 117 0 l 89 0 l 294 1031 l 322 1031 l 168 257 l 717 718 l 756 718 m 308 -90 l 344 -90 l 244 -297 l 219 -297 l 308 -90 z "},"ĸ":{"ha":742,"x_min":82,"x_max":749,"o":"m 749 718 l 419 440 l 647 0 l 614 0 l 396 419 l 153 214 l 110 0 l 82 0 l 225 718 l 253 718 l 161 257 l 710 718 l 749 718 z "},"l":{"ha":349,"x_min":89,"x_max":322,"o":"m 322 1031 l 117 0 l 89 0 l 294 1031 l 322 1031 z "},"ĺ":{"ha":349,"x_min":89,"x_max":507,"o":"m 322 1031 l 117 0 l 89 0 l 294 1031 l 322 1031 m 481 1297 l 507 1283 l 328 1138 l 292 1144 l 481 1297 z "},"ľ":{"ha":403,"x_min":89,"x_max":475,"o":"m 322 1031 l 117 0 l 89 0 l 294 1031 l 322 1031 m 447 1031 l 475 1031 l 424 782 l 399 782 l 447 1031 z "},"ļ":{"ha":349,"x_min":-19,"x_max":322,"o":"m 322 1031 l 117 0 l 89 0 l 294 1031 l 322 1031 m 69 -90 l 106 -90 l 6 -297 l -19 -297 l 69 -90 z "},"ŀ":{"ha":461,"x_min":89,"x_max":415,"o":"m 322 1031 l 117 0 l 89 0 l 294 1031 l 322 1031 m 386 578 q 407 569 399 578 q 415 547 415 560 q 401 518 415 531 q 371 506 388 506 q 350 515 358 506 q 342 536 342 524 q 356 565 342 553 q 386 578 369 578 z "},"ḷ":{"ha":349,"x_min":38,"x_max":322,"o":"m 322 1031 l 117 0 l 89 0 l 294 1031 l 322 1031 m 82 -111 q 103 -120 94 -111 q 111 -142 111 -129 q 97 -171 111 -158 q 67 -183 83 -183 q 46 -174 54 -183 q 38 -153 38 -165 q 51 -124 38 -136 q 82 -111 65 -111 z "},"ǉ":{"ha":668,"x_min":89,"x_max":657,"o":"m 322 1031 l 117 0 l 89 0 l 294 1031 l 322 1031 m 168 -225 q 238 -240 197 -237 q 349 -191 304 -242 q 414 -42 394 -140 l 565 718 l 593 718 l 442 -44 q 369 -212 419 -156 q 240 -268 318 -268 q 154 -249 196 -268 l 168 -225 m 628 961 q 649 952 640 961 q 657 931 657 943 q 643 901 657 914 q 613 889 629 889 q 592 898 600 889 q 583 919 583 907 q 597 949 583 936 q 628 961 611 961 z "},"ḻ":{"ha":349,"x_min":-78,"x_max":322,"o":"m 322 1031 l 117 0 l 89 0 l 294 1031 l 322 1031 m -72 -125 l 229 -125 l 224 -153 l -78 -153 l -72 -125 z "},"ł":{"ha":435,"x_min":79,"x_max":457,"o":"m 457 639 l 451 607 l 281 515 l 178 0 l 150 0 l 250 499 l 79 407 l 85 439 l 256 531 l 356 1031 l 383 1031 l 288 547 l 457 639 z "},"m":{"ha":1482,"x_min":83,"x_max":1375,"o":"m 1136 718 q 1313 663 1251 718 q 1375 508 1375 608 q 1367 435 1375 475 l 1281 0 l 1253 0 l 1339 435 q 1346 503 1346 474 q 1292 641 1346 592 q 1136 690 1238 690 q 906 610 1001 688 q 775 401 811 533 l 696 0 l 668 0 l 754 435 q 761 503 761 474 q 707 641 761 592 q 551 690 653 690 q 310 601 408 688 q 183 369 211 515 l 111 0 l 83 0 l 225 718 l 253 718 l 213 511 q 353 662 265 608 q 551 718 440 715 q 730 660 668 718 q 789 499 792 603 q 931 659 842 603 q 1136 718 1019 715 z "},"ṃ":{"ha":1482,"x_min":83,"x_max":1375,"o":"m 1136 718 q 1313 663 1251 718 q 1375 508 1375 608 q 1367 435 1375 475 l 1281 0 l 1253 0 l 1339 435 q 1346 503 1346 474 q 1292 641 1346 592 q 1136 690 1238 690 q 906 610 1001 688 q 775 401 811 533 l 696 0 l 668 0 l 754 435 q 761 503 761 474 q 707 641 761 592 q 551 690 653 690 q 310 601 408 688 q 183 369 211 515 l 111 0 l 83 0 l 225 718 l 253 718 l 213 511 q 353 662 265 608 q 551 718 440 715 q 730 660 668 718 q 789 499 792 603 q 931 659 842 603 q 1136 718 1019 715 m 660 -111 q 681 -120 672 -111 q 689 -142 689 -129 q 675 -171 689 -158 q 644 -183 661 -183 q 624 -174 632 -183 q 615 -153 615 -165 q 629 -124 615 -136 q 660 -111 643 -111 z "},"n":{"ha":897,"x_min":83,"x_max":790,"o":"m 551 718 q 728 663 667 718 q 790 508 790 608 q 782 435 790 475 l 696 0 l 668 0 l 754 435 q 761 503 761 474 q 707 642 761 593 q 551 690 653 690 q 312 603 411 688 q 183 369 213 518 l 111 0 l 83 0 l 225 718 l 253 718 l 213 511 q 353 662 265 608 q 551 718 440 715 z "},"ń":{"ha":897,"x_min":83,"x_max":790,"o":"m 551 718 q 728 663 667 718 q 790 508 790 608 q 782 435 790 475 l 696 0 l 668 0 l 754 435 q 761 503 761 474 q 707 642 761 593 q 551 690 653 690 q 312 603 411 688 q 183 369 213 518 l 111 0 l 83 0 l 225 718 l 253 718 l 213 511 q 353 662 265 608 q 551 718 440 715 m 694 1026 l 721 1013 l 542 867 l 506 874 l 694 1026 z "},"ŉ":{"ha":985,"x_min":78,"x_max":878,"o":"m 154 971 l 182 971 l 103 611 l 78 611 l 154 971 m 639 718 q 816 663 754 718 q 878 508 878 608 q 869 435 878 475 l 783 0 l 756 0 l 842 435 q 849 503 849 474 q 794 642 849 593 q 639 690 740 690 q 399 603 499 688 q 271 369 300 518 l 199 0 l 171 0 l 313 718 l 340 718 l 300 511 q 440 662 353 608 q 639 718 528 715 z "},"ň":{"ha":897,"x_min":83,"x_max":790,"o":"m 551 718 q 728 663 667 718 q 790 508 790 608 q 782 435 790 475 l 696 0 l 668 0 l 754 435 q 761 503 761 474 q 707 642 761 593 q 551 690 653 690 q 312 603 411 688 q 183 369 213 518 l 111 0 l 83 0 l 225 718 l 253 718 l 213 511 q 353 662 265 608 q 551 718 440 715 m 694 1019 l 731 1019 l 565 867 l 521 867 l 414 1019 l 450 1019 l 547 892 l 694 1019 z "},"ņ":{"ha":897,"x_min":83,"x_max":790,"o":"m 551 718 q 728 663 667 718 q 790 508 790 608 q 782 435 790 475 l 696 0 l 668 0 l 754 435 q 761 503 761 474 q 707 642 761 593 q 551 690 653 690 q 312 603 411 688 q 183 369 213 518 l 111 0 l 83 0 l 225 718 l 253 718 l 213 511 q 353 662 265 608 q 551 718 440 715 m 371 -90 l 407 -90 l 307 -297 l 282 -297 l 371 -90 z "},"ṅ":{"ha":897,"x_min":83,"x_max":790,"o":"m 551 718 q 728 663 667 718 q 790 508 790 608 q 782 435 790 475 l 696 0 l 668 0 l 754 435 q 761 503 761 474 q 707 642 761 593 q 551 690 653 690 q 312 603 411 688 q 183 369 213 518 l 111 0 l 83 0 l 225 718 l 253 718 l 213 511 q 353 662 265 608 q 551 718 440 715 m 563 961 q 583 952 575 961 q 592 931 592 943 q 578 901 592 914 q 547 889 564 889 q 526 898 535 889 q 518 919 518 907 q 532 949 518 936 q 563 961 546 961 z "},"ṇ":{"ha":897,"x_min":83,"x_max":790,"o":"m 551 718 q 728 663 667 718 q 790 508 790 608 q 782 435 790 475 l 696 0 l 668 0 l 754 435 q 761 503 761 474 q 707 642 761 593 q 551 690 653 690 q 312 603 411 688 q 183 369 213 518 l 111 0 l 83 0 l 225 718 l 253 718 l 213 511 q 353 662 265 608 q 551 718 440 715 m 383 -111 q 404 -120 396 -111 q 413 -142 413 -129 q 399 -171 413 -158 q 368 -183 385 -183 q 347 -174 356 -183 q 339 -153 339 -165 q 353 -124 339 -136 q 383 -111 367 -111 z "},"ŋ":{"ha":896,"x_min":82,"x_max":790,"o":"m 556 718 q 729 664 668 718 q 790 510 790 610 q 782 435 790 475 l 686 -44 q 485 -268 640 -268 q 349 -217 404 -268 l 369 -194 q 488 -240 418 -240 q 596 -191 553 -240 q 658 -44 639 -142 l 754 435 q 761 503 761 474 q 706 642 761 593 q 550 690 651 690 q 322 610 417 690 q 188 390 226 531 l 110 0 l 82 0 l 225 718 l 253 718 l 213 515 q 356 665 267 611 q 556 718 444 718 z "},"ǌ":{"ha":1217,"x_min":83,"x_max":1206,"o":"m 551 718 q 728 663 667 718 q 790 508 790 608 q 782 435 790 475 l 696 0 l 668 0 l 754 435 q 761 503 761 474 q 707 642 761 593 q 551 690 653 690 q 312 603 411 688 q 183 369 213 518 l 111 0 l 83 0 l 225 718 l 253 718 l 213 511 q 353 662 265 608 q 551 718 440 715 m 717 -225 q 786 -240 746 -237 q 898 -191 853 -242 q 963 -42 943 -140 l 1114 718 l 1142 718 l 990 -44 q 917 -212 968 -156 q 789 -268 867 -268 q 703 -249 744 -268 l 717 -225 m 1176 961 q 1197 952 1189 961 q 1206 931 1206 943 q 1192 901 1206 914 q 1161 889 1178 889 q 1140 898 1149 889 q 1132 919 1132 907 q 1146 949 1132 936 q 1176 961 1160 961 z "},"ṉ":{"ha":897,"x_min":83,"x_max":790,"o":"m 551 718 q 728 663 667 718 q 790 508 790 608 q 782 435 790 475 l 696 0 l 668 0 l 754 435 q 761 503 761 474 q 707 642 761 593 q 551 690 653 690 q 312 603 411 688 q 183 369 213 518 l 111 0 l 83 0 l 225 718 l 253 718 l 213 511 q 353 662 265 608 q 551 718 440 715 m 229 -125 l 531 -125 l 525 -153 l 224 -153 l 229 -125 z "},"ñ":{"ha":897,"x_min":83,"x_max":790,"o":"m 551 718 q 728 663 667 718 q 790 508 790 608 q 782 435 790 475 l 696 0 l 668 0 l 754 435 q 761 503 761 474 q 707 642 761 593 q 551 690 653 690 q 312 603 411 688 q 183 369 213 518 l 111 0 l 83 0 l 225 718 l 253 718 l 213 511 q 353 662 265 608 q 551 718 440 715 m 750 986 q 707 904 739 935 q 629 874 675 874 q 586 885 603 874 q 544 921 569 896 q 510 953 526 942 q 474 964 494 964 q 417 942 440 964 q 388 879 394 919 l 361 879 q 401 962 372 932 q 475 992 431 992 q 518 981 501 992 q 560 944 535 969 q 594 913 578 924 q 631 901 610 901 q 690 924 664 901 q 724 986 717 947 l 750 986 z "},"o":{"ha":849,"x_min":74,"x_max":775,"o":"m 460 718 q 623 676 551 718 q 735 561 694 635 q 775 394 775 488 q 724 193 775 283 q 583 51 672 103 q 389 0 494 0 q 226 42 297 0 q 114 157 154 83 q 74 325 74 231 q 125 526 74 436 q 265 667 176 615 q 460 718 354 718 m 457 690 q 277 644 358 690 q 149 514 196 597 q 101 326 101 431 q 138 171 101 239 q 240 65 174 103 q 392 28 306 28 q 572 74 490 28 q 700 204 653 121 q 747 393 747 288 q 711 547 747 479 q 609 653 675 615 q 457 690 543 690 z "},"ó":{"ha":849,"x_min":74,"x_max":775,"o":"m 460 718 q 623 676 551 718 q 735 561 694 635 q 775 394 775 488 q 724 193 775 283 q 583 51 672 103 q 389 0 494 0 q 226 42 297 0 q 114 157 154 83 q 74 325 74 231 q 125 526 74 436 q 265 667 176 615 q 460 718 354 718 m 457 690 q 277 644 358 690 q 149 514 196 597 q 101 326 101 431 q 138 171 101 239 q 240 65 174 103 q 392 28 306 28 q 572 74 490 28 q 700 204 653 121 q 747 393 747 288 q 711 547 747 479 q 609 653 675 615 q 457 690 543 690 m 640 1026 l 667 1013 l 488 867 l 451 874 l 640 1026 z "},"ŏ":{"ha":849,"x_min":74,"x_max":775,"o":"m 460 718 q 623 676 551 718 q 735 561 694 635 q 775 394 775 488 q 724 193 775 283 q 583 51 672 103 q 389 0 494 0 q 226 42 297 0 q 114 157 154 83 q 74 325 74 231 q 125 526 74 436 q 265 667 176 615 q 460 718 354 718 m 457 690 q 277 644 358 690 q 149 514 196 597 q 101 326 101 431 q 138 171 101 239 q 240 65 174 103 q 392 28 306 28 q 572 74 490 28 q 700 204 653 121 q 747 393 747 288 q 711 547 747 479 q 609 653 675 615 q 457 690 543 690 m 399 1008 q 397 989 397 1001 q 424 918 397 946 q 493 890 450 890 q 583 924 542 890 q 635 1008 624 958 l 663 1008 q 599 904 649 946 q 489 863 549 863 q 402 896 436 863 q 368 982 368 929 q 371 1008 368 992 l 399 1008 z "},"ô":{"ha":849,"x_min":74,"x_max":775,"o":"m 460 718 q 623 676 551 718 q 735 561 694 635 q 775 394 775 488 q 724 193 775 283 q 583 51 672 103 q 389 0 494 0 q 226 42 297 0 q 114 157 154 83 q 74 325 74 231 q 125 526 74 436 q 265 667 176 615 q 460 718 354 718 m 457 690 q 277 644 358 690 q 149 514 196 597 q 101 326 101 431 q 138 171 101 239 q 240 65 174 103 q 392 28 306 28 q 572 74 490 28 q 700 204 653 121 q 747 393 747 288 q 711 547 747 479 q 609 653 675 615 q 457 690 543 690 m 647 867 l 611 867 l 514 994 l 367 867 l 331 867 l 496 1019 l 540 1019 l 647 867 z "},"ố":{"ha":849,"x_min":74,"x_max":775,"o":"m 460 718 q 623 676 551 718 q 735 561 694 635 q 775 394 775 488 q 724 193 775 283 q 583 51 672 103 q 389 0 494 0 q 226 42 297 0 q 114 157 154 83 q 74 325 74 231 q 125 526 74 436 q 265 667 176 615 q 460 718 354 718 m 457 690 q 277 644 358 690 q 149 514 196 597 q 101 326 101 431 q 138 171 101 239 q 240 65 174 103 q 392 28 306 28 q 572 74 490 28 q 700 204 653 121 q 747 393 747 288 q 711 547 747 479 q 609 653 675 615 q 457 690 543 690 m 664 867 l 626 867 l 515 963 l 360 867 l 319 867 l 492 978 l 536 978 l 664 867 m 661 1157 l 685 1139 l 483 1026 l 449 1039 l 661 1157 z "},"ộ":{"ha":849,"x_min":74,"x_max":775,"o":"m 460 718 q 623 676 551 718 q 735 561 694 635 q 775 394 775 488 q 724 193 775 283 q 583 51 672 103 q 389 0 494 0 q 226 42 297 0 q 114 157 154 83 q 74 325 74 231 q 125 526 74 436 q 265 667 176 615 q 460 718 354 718 m 457 690 q 277 644 358 690 q 149 514 196 597 q 101 326 101 431 q 138 171 101 239 q 240 65 174 103 q 392 28 306 28 q 572 74 490 28 q 700 204 653 121 q 747 393 747 288 q 711 547 747 479 q 609 653 675 615 q 457 690 543 690 m 374 -111 q 394 -120 386 -111 q 403 -142 403 -129 q 389 -171 403 -158 q 358 -183 375 -183 q 338 -174 346 -183 q 329 -153 329 -165 q 343 -124 329 -136 q 374 -111 357 -111 m 674 867 l 638 867 l 540 994 l 393 867 l 357 867 l 522 1019 l 567 1019 l 674 867 z "},"ồ":{"ha":849,"x_min":74,"x_max":775,"o":"m 460 718 q 623 676 551 718 q 735 561 694 635 q 775 394 775 488 q 724 193 775 283 q 583 51 672 103 q 389 0 494 0 q 226 42 297 0 q 114 157 154 83 q 74 325 74 231 q 125 526 74 436 q 265 667 176 615 q 460 718 354 718 m 457 690 q 277 644 358 690 q 149 514 196 597 q 101 326 101 431 q 138 171 101 239 q 240 65 174 103 q 392 28 306 28 q 572 74 490 28 q 700 204 653 121 q 747 393 747 288 q 711 547 747 479 q 609 653 675 615 q 457 690 543 690 m 663 867 l 625 867 l 514 963 l 358 867 l 318 867 l 490 978 l 535 978 l 663 867 m 400 1157 l 613 1039 l 578 1026 l 376 1139 l 400 1157 z "},"ổ":{"ha":849,"x_min":74,"x_max":775,"o":"m 460 718 q 623 676 551 718 q 735 561 694 635 q 775 394 775 488 q 724 193 775 283 q 583 51 672 103 q 389 0 494 0 q 226 42 297 0 q 114 157 154 83 q 74 325 74 231 q 125 526 74 436 q 265 667 176 615 q 460 718 354 718 m 457 690 q 277 644 358 690 q 149 514 196 597 q 101 326 101 431 q 138 171 101 239 q 240 65 174 103 q 392 28 306 28 q 572 74 490 28 q 700 204 653 121 q 747 393 747 288 q 711 547 747 479 q 609 653 675 615 q 457 690 543 690 m 663 867 l 625 867 l 514 963 l 358 867 l 318 867 l 490 978 l 535 978 l 663 867 m 550 1217 q 607 1198 588 1217 q 626 1149 626 1179 q 599 1084 626 1117 q 525 1028 572 1051 l 500 1039 q 570 1089 544 1061 q 596 1143 596 1117 q 582 1175 596 1163 q 543 1188 568 1188 q 476 1168 513 1188 l 465 1190 q 550 1217 514 1217 z "},"ỗ":{"ha":849,"x_min":74,"x_max":775,"o":"m 460 718 q 623 676 551 718 q 735 561 694 635 q 775 394 775 488 q 724 193 775 283 q 583 51 672 103 q 389 0 494 0 q 226 42 297 0 q 114 157 154 83 q 74 325 74 231 q 125 526 74 436 q 265 667 176 615 q 460 718 354 718 m 457 690 q 277 644 358 690 q 149 514 196 597 q 101 326 101 431 q 138 171 101 239 q 240 65 174 103 q 392 28 306 28 q 572 74 490 28 q 700 204 653 121 q 747 393 747 288 q 711 547 747 479 q 609 653 675 615 q 457 690 543 690 m 658 867 l 621 867 l 510 963 l 354 867 l 314 867 l 486 978 l 531 978 l 658 867 m 717 1133 q 676 1063 708 1089 q 599 1036 644 1036 q 553 1047 572 1036 q 513 1076 535 1057 q 476 1103 490 1094 q 440 1113 461 1113 q 385 1093 407 1113 q 357 1040 364 1074 l 329 1040 q 367 1113 338 1086 q 440 1139 396 1139 q 485 1128 467 1139 q 526 1099 504 1118 q 563 1072 549 1081 q 599 1063 578 1063 q 658 1082 632 1063 q 690 1133 685 1101 l 717 1133 z "},"ȍ":{"ha":849,"x_min":74,"x_max":775,"o":"m 460 718 q 623 676 551 718 q 735 561 694 635 q 775 394 775 488 q 724 193 775 283 q 583 51 672 103 q 389 0 494 0 q 226 42 297 0 q 114 157 154 83 q 74 325 74 231 q 125 526 74 436 q 265 667 176 615 q 460 718 354 718 m 457 690 q 277 644 358 690 q 149 514 196 597 q 101 326 101 431 q 138 171 101 239 q 240 65 174 103 q 392 28 306 28 q 572 74 490 28 q 700 204 653 121 q 747 393 747 288 q 711 547 747 479 q 609 653 675 615 q 457 690 543 690 m 338 1026 l 447 874 l 414 867 l 311 1011 l 338 1026 m 503 1026 l 613 874 l 579 867 l 476 1011 l 503 1026 z "},"ö":{"ha":849,"x_min":74,"x_max":775,"o":"m 460 718 q 623 676 551 718 q 735 561 694 635 q 775 394 775 488 q 724 193 775 283 q 583 51 672 103 q 389 0 494 0 q 226 42 297 0 q 114 157 154 83 q 74 325 74 231 q 125 526 74 436 q 265 667 176 615 q 460 718 354 718 m 457 690 q 277 644 358 690 q 149 514 196 597 q 101 326 101 431 q 138 171 101 239 q 240 65 174 103 q 392 28 306 28 q 572 74 490 28 q 700 204 653 121 q 747 393 747 288 q 711 547 747 479 q 609 653 675 615 q 457 690 543 690 m 404 961 q 425 952 417 961 q 433 931 433 943 q 419 901 433 914 q 389 889 406 889 q 368 898 376 889 q 360 919 360 907 q 374 949 360 936 q 404 961 388 961 m 613 961 q 633 952 625 961 q 642 931 642 943 q 628 901 642 914 q 597 889 614 889 q 576 898 585 889 q 568 919 568 907 q 582 949 568 936 q 613 961 596 961 z "},"ȫ":{"ha":849,"x_min":74,"x_max":775,"o":"m 460 718 q 623 676 551 718 q 735 561 694 635 q 775 394 775 488 q 724 193 775 283 q 583 51 672 103 q 389 0 494 0 q 226 42 297 0 q 114 157 154 83 q 74 325 74 231 q 125 526 74 436 q 265 667 176 615 q 460 718 354 718 m 457 690 q 277 644 358 690 q 149 514 196 597 q 101 326 101 431 q 138 171 101 239 q 240 65 174 103 q 392 28 306 28 q 572 74 490 28 q 700 204 653 121 q 747 393 747 288 q 711 547 747 479 q 609 653 675 615 q 457 690 543 690 m 413 939 q 433 930 425 939 q 442 908 442 921 q 428 879 442 892 q 397 867 414 867 q 376 876 385 867 q 368 897 368 885 q 382 926 368 914 q 413 939 396 939 m 596 939 q 617 930 608 939 q 625 908 625 921 q 611 879 625 892 q 581 867 597 867 q 560 876 568 867 q 551 897 551 885 q 565 926 551 914 q 596 939 579 939 m 369 1031 l 671 1031 l 665 1003 l 364 1003 l 369 1031 z "},"ȱ":{"ha":849,"x_min":74,"x_max":775,"o":"m 460 718 q 623 676 551 718 q 735 561 694 635 q 775 394 775 488 q 724 193 775 283 q 583 51 672 103 q 389 0 494 0 q 226 42 297 0 q 114 157 154 83 q 74 325 74 231 q 125 526 74 436 q 265 667 176 615 q 460 718 354 718 m 457 690 q 277 644 358 690 q 149 514 196 597 q 101 326 101 431 q 138 171 101 239 q 240 65 174 103 q 392 28 306 28 q 572 74 490 28 q 700 204 653 121 q 747 393 747 288 q 711 547 747 479 q 609 653 675 615 q 457 690 543 690 m 504 939 q 525 930 517 939 q 533 908 533 921 q 519 879 533 892 q 489 867 506 867 q 468 876 476 867 q 460 897 460 885 q 474 926 460 914 q 504 939 488 939 m 369 1031 l 671 1031 l 665 1003 l 364 1003 l 369 1031 z "},"ọ":{"ha":849,"x_min":74,"x_max":775,"o":"m 460 718 q 623 676 551 718 q 735 561 694 635 q 775 394 775 488 q 724 193 775 283 q 583 51 672 103 q 389 0 494 0 q 226 42 297 0 q 114 157 154 83 q 74 325 74 231 q 125 526 74 436 q 265 667 176 615 q 460 718 354 718 m 457 690 q 277 644 358 690 q 149 514 196 597 q 101 326 101 431 q 138 171 101 239 q 240 65 174 103 q 392 28 306 28 q 572 74 490 28 q 700 204 653 121 q 747 393 747 288 q 711 547 747 479 q 609 653 675 615 q 457 690 543 690 m 374 -111 q 394 -120 386 -111 q 403 -142 403 -129 q 389 -171 403 -158 q 358 -183 375 -183 q 338 -174 346 -183 q 329 -153 329 -165 q 343 -124 329 -136 q 374 -111 357 -111 z "},"ò":{"ha":849,"x_min":74,"x_max":775,"o":"m 460 718 q 623 676 551 718 q 735 561 694 635 q 775 394 775 488 q 724 193 775 283 q 583 51 672 103 q 389 0 494 0 q 226 42 297 0 q 114 157 154 83 q 74 325 74 231 q 125 526 74 436 q 265 667 176 615 q 460 718 354 718 m 457 690 q 277 644 358 690 q 149 514 196 597 q 101 326 101 431 q 138 171 101 239 q 240 65 174 103 q 392 28 306 28 q 572 74 490 28 q 700 204 653 121 q 747 393 747 288 q 711 547 747 479 q 609 653 675 615 q 457 690 543 690 m 392 1026 l 581 874 l 544 867 l 365 1013 l 392 1026 z "},"ỏ":{"ha":849,"x_min":74,"x_max":775,"o":"m 460 718 q 623 676 551 718 q 735 561 694 635 q 775 394 775 488 q 724 193 775 283 q 583 51 672 103 q 389 0 494 0 q 226 42 297 0 q 114 157 154 83 q 74 325 74 231 q 125 526 74 436 q 265 667 176 615 q 460 718 354 718 m 457 690 q 277 644 358 690 q 149 514 196 597 q 101 326 101 431 q 138 171 101 239 q 240 65 174 103 q 392 28 306 28 q 572 74 490 28 q 700 204 653 121 q 747 393 747 288 q 711 547 747 479 q 609 653 675 615 q 457 690 543 690 m 501 1043 q 565 1020 543 1043 q 588 963 588 997 q 560 886 588 925 q 486 817 533 847 l 460 828 q 533 892 506 857 q 560 957 560 926 q 543 999 560 982 q 496 1015 526 1015 q 418 990 461 1015 l 407 1013 q 501 1043 461 1043 z "},"ơ":{"ha":849,"x_min":74,"x_max":860,"o":"m 844 881 q 860 815 860 847 q 837 730 860 771 q 774 663 814 689 q 689 638 735 638 l 676 638 q 749 532 724 594 q 775 394 775 469 q 724 193 775 283 q 583 51 672 103 q 389 0 494 0 q 226 42 297 0 q 114 157 154 83 q 74 325 74 231 q 125 526 74 436 q 265 667 176 615 q 460 718 354 718 q 633 671 558 718 q 690 663 658 663 q 760 684 728 663 q 810 740 792 706 q 828 810 828 774 q 814 867 828 840 l 844 881 m 747 393 q 711 547 747 479 q 609 653 675 615 q 457 690 543 690 q 277 644 358 690 q 149 514 196 597 q 101 326 101 431 q 138 171 101 239 q 240 65 174 103 q 392 28 306 28 q 572 74 490 28 q 700 204 653 121 q 747 393 747 288 z "},"ớ":{"ha":849,"x_min":74,"x_max":860,"o":"m 844 881 q 860 815 860 847 q 837 730 860 771 q 774 663 814 689 q 689 638 735 638 l 676 638 q 749 532 724 594 q 775 394 775 469 q 724 193 775 283 q 583 51 672 103 q 389 0 494 0 q 226 42 297 0 q 114 157 154 83 q 74 325 74 231 q 125 526 74 436 q 265 667 176 615 q 460 718 354 718 q 633 671 558 718 q 690 663 658 663 q 760 684 728 663 q 810 740 792 706 q 828 810 828 774 q 814 867 828 840 l 844 881 m 747 393 q 711 547 747 479 q 609 653 675 615 q 457 690 543 690 q 277 644 358 690 q 149 514 196 597 q 101 326 101 431 q 138 171 101 239 q 240 65 174 103 q 392 28 306 28 q 572 74 490 28 q 700 204 653 121 q 747 393 747 288 m 640 1026 l 667 1013 l 488 867 l 451 874 l 640 1026 z "},"ợ":{"ha":849,"x_min":74,"x_max":860,"o":"m 844 881 q 860 815 860 847 q 837 730 860 771 q 774 663 814 689 q 689 638 735 638 l 676 638 q 749 532 724 594 q 775 394 775 469 q 724 193 775 283 q 583 51 672 103 q 389 0 494 0 q 226 42 297 0 q 114 157 154 83 q 74 325 74 231 q 125 526 74 436 q 265 667 176 615 q 460 718 354 718 q 633 671 558 718 q 690 663 658 663 q 760 684 728 663 q 810 740 792 706 q 828 810 828 774 q 814 867 828 840 l 844 881 m 747 393 q 711 547 747 479 q 609 653 675 615 q 457 690 543 690 q 277 644 358 690 q 149 514 196 597 q 101 326 101 431 q 138 171 101 239 q 240 65 174 103 q 392 28 306 28 q 572 74 490 28 q 700 204 653 121 q 747 393 747 288 m 374 -111 q 394 -120 386 -111 q 403 -142 403 -129 q 389 -171 403 -158 q 358 -183 375 -183 q 338 -174 346 -183 q 329 -153 329 -165 q 343 -124 329 -136 q 374 -111 357 -111 z "},"ờ":{"ha":849,"x_min":74,"x_max":860,"o":"m 844 881 q 860 815 860 847 q 837 730 860 771 q 774 663 814 689 q 689 638 735 638 l 676 638 q 749 532 724 594 q 775 394 775 469 q 724 193 775 283 q 583 51 672 103 q 389 0 494 0 q 226 42 297 0 q 114 157 154 83 q 74 325 74 231 q 125 526 74 436 q 265 667 176 615 q 460 718 354 718 q 633 671 558 718 q 690 663 658 663 q 760 684 728 663 q 810 740 792 706 q 828 810 828 774 q 814 867 828 840 l 844 881 m 747 393 q 711 547 747 479 q 609 653 675 615 q 457 690 543 690 q 277 644 358 690 q 149 514 196 597 q 101 326 101 431 q 138 171 101 239 q 240 65 174 103 q 392 28 306 28 q 572 74 490 28 q 700 204 653 121 q 747 393 747 288 m 392 1026 l 581 874 l 544 867 l 365 1013 l 392 1026 z "},"ở":{"ha":849,"x_min":74,"x_max":860,"o":"m 844 881 q 860 815 860 847 q 837 730 860 771 q 774 663 814 689 q 689 638 735 638 l 676 638 q 749 532 724 594 q 775 394 775 469 q 724 193 775 283 q 583 51 672 103 q 389 0 494 0 q 226 42 297 0 q 114 157 154 83 q 74 325 74 231 q 125 526 74 436 q 265 667 176 615 q 460 718 354 718 q 633 671 558 718 q 690 663 658 663 q 760 684 728 663 q 810 740 792 706 q 828 810 828 774 q 814 867 828 840 l 844 881 m 747 393 q 711 547 747 479 q 609 653 675 615 q 457 690 543 690 q 277 644 358 690 q 149 514 196 597 q 101 326 101 431 q 138 171 101 239 q 240 65 174 103 q 392 28 306 28 q 572 74 490 28 q 700 204 653 121 q 747 393 747 288 m 501 1043 q 565 1020 543 1043 q 588 963 588 997 q 560 886 588 925 q 486 817 533 847 l 460 828 q 533 892 506 857 q 560 957 560 926 q 543 999 560 982 q 496 1015 526 1015 q 418 990 461 1015 l 407 1013 q 501 1043 461 1043 z "},"ỡ":{"ha":849,"x_min":74,"x_max":860,"o":"m 844 881 q 860 815 860 847 q 837 730 860 771 q 774 663 814 689 q 689 638 735 638 l 676 638 q 749 532 724 594 q 775 394 775 469 q 724 193 775 283 q 583 51 672 103 q 389 0 494 0 q 226 42 297 0 q 114 157 154 83 q 74 325 74 231 q 125 526 74 436 q 265 667 176 615 q 460 718 354 718 q 633 671 558 718 q 690 663 658 663 q 760 684 728 663 q 810 740 792 706 q 828 810 828 774 q 814 867 828 840 l 844 881 m 747 393 q 711 547 747 479 q 609 653 675 615 q 457 690 543 690 q 277 644 358 690 q 149 514 196 597 q 101 326 101 431 q 138 171 101 239 q 240 65 174 103 q 392 28 306 28 q 572 74 490 28 q 700 204 653 121 q 747 393 747 288 m 696 986 q 653 904 685 935 q 575 874 621 874 q 532 885 549 874 q 490 921 515 896 q 456 953 472 942 q 419 964 440 964 q 363 942 386 964 q 333 879 340 919 l 307 879 q 347 962 318 932 q 421 992 376 992 q 464 981 447 992 q 506 944 481 969 q 540 913 524 924 q 576 901 556 901 q 636 924 610 901 q 669 986 663 947 l 696 986 z "},"ő":{"ha":849,"x_min":74,"x_max":775,"o":"m 460 718 q 623 676 551 718 q 735 561 694 635 q 775 394 775 488 q 724 193 775 283 q 583 51 672 103 q 389 0 494 0 q 226 42 297 0 q 114 157 154 83 q 74 325 74 231 q 125 526 74 436 q 265 667 176 615 q 460 718 354 718 m 457 690 q 277 644 358 690 q 149 514 196 597 q 101 326 101 431 q 138 171 101 239 q 240 65 174 103 q 392 28 306 28 q 572 74 490 28 q 700 204 653 121 q 747 393 747 288 q 711 547 747 479 q 609 653 675 615 q 457 690 543 690 m 511 1026 l 535 1011 l 403 867 l 374 874 l 511 1026 m 676 1026 l 700 1011 l 568 867 l 539 874 l 676 1026 z "},"ȏ":{"ha":849,"x_min":74,"x_max":775,"o":"m 460 718 q 623 676 551 718 q 735 561 694 635 q 775 394 775 488 q 724 193 775 283 q 583 51 672 103 q 389 0 494 0 q 226 42 297 0 q 114 157 154 83 q 74 325 74 231 q 125 526 74 436 q 265 667 176 615 q 460 718 354 718 m 457 690 q 277 644 358 690 q 149 514 196 597 q 101 326 101 431 q 138 171 101 239 q 240 65 174 103 q 392 28 306 28 q 572 74 490 28 q 700 204 653 121 q 747 393 747 288 q 711 547 747 479 q 609 653 675 615 q 457 690 543 690 m 606 863 q 607 882 607 869 q 581 953 607 925 q 511 981 554 981 q 422 947 463 981 q 369 863 381 913 l 342 863 q 406 967 356 925 q 515 1008 456 1008 q 602 975 568 1008 q 636 889 636 942 q 633 863 636 879 l 606 863 z "},"ō":{"ha":849,"x_min":74,"x_max":775,"o":"m 460 718 q 623 676 551 718 q 735 561 694 635 q 775 394 775 488 q 724 193 775 283 q 583 51 672 103 q 389 0 494 0 q 226 42 297 0 q 114 157 154 83 q 74 325 74 231 q 125 526 74 436 q 265 667 176 615 q 460 718 354 718 m 457 690 q 277 644 358 690 q 149 514 196 597 q 101 326 101 431 q 138 171 101 239 q 240 65 174 103 q 392 28 306 28 q 572 74 490 28 q 700 204 653 121 q 747 393 747 288 q 711 547 747 479 q 609 653 675 615 q 457 690 543 690 m 324 940 l 681 940 l 675 913 l 318 913 l 324 940 z "},"ṓ":{"ha":849,"x_min":74,"x_max":775,"o":"m 460 718 q 623 676 551 718 q 735 561 694 635 q 775 394 775 488 q 724 193 775 283 q 583 51 672 103 q 389 0 494 0 q 226 42 297 0 q 114 157 154 83 q 74 325 74 231 q 125 526 74 436 q 265 667 176 615 q 460 718 354 718 m 457 690 q 277 644 358 690 q 149 514 196 597 q 101 326 101 431 q 138 171 101 239 q 240 65 174 103 q 392 28 306 28 q 572 74 490 28 q 700 204 653 121 q 747 393 747 288 q 711 547 747 479 q 609 653 675 615 q 457 690 543 690 m 343 893 l 644 893 l 639 865 l 338 865 l 343 893 m 651 1115 l 675 1097 l 474 985 l 439 997 l 651 1115 z "},"ṑ":{"ha":849,"x_min":74,"x_max":775,"o":"m 460 718 q 623 676 551 718 q 735 561 694 635 q 775 394 775 488 q 724 193 775 283 q 583 51 672 103 q 389 0 494 0 q 226 42 297 0 q 114 157 154 83 q 74 325 74 231 q 125 526 74 436 q 265 667 176 615 q 460 718 354 718 m 457 690 q 277 644 358 690 q 149 514 196 597 q 101 326 101 431 q 138 171 101 239 q 240 65 174 103 q 392 28 306 28 q 572 74 490 28 q 700 204 653 121 q 747 393 747 288 q 711 547 747 479 q 609 653 675 615 q 457 690 543 690 m 343 893 l 644 893 l 639 865 l 338 865 l 343 893 m 392 1115 l 604 997 l 569 985 l 368 1097 l 392 1115 z "},"ǫ":{"ha":849,"x_min":74,"x_max":775,"o":"m 775 394 q 731 206 775 292 q 611 68 688 121 q 425 -87 489 -18 q 361 -210 361 -156 q 378 -253 361 -239 q 421 -268 394 -268 q 510 -240 461 -268 l 518 -262 q 414 -296 464 -296 q 353 -274 375 -296 q 332 -212 332 -251 q 374 -107 332 -162 q 501 17 417 -51 q 389 0 447 0 q 226 42 297 0 q 114 157 154 83 q 74 325 74 231 q 125 526 74 436 q 265 667 176 615 q 460 718 354 718 q 623 676 551 718 q 735 561 694 635 q 775 394 775 488 m 392 28 q 572 74 490 28 q 700 204 653 121 q 747 393 747 288 q 711 547 747 479 q 609 653 675 615 q 457 690 543 690 q 277 644 358 690 q 149 514 196 597 q 101 326 101 431 q 138 171 101 239 q 240 65 174 103 q 392 28 306 28 z "},"ø":{"ha":849,"x_min":46,"x_max":796,"o":"m 649 661 q 742 549 708 618 q 775 394 775 481 q 724 193 775 283 q 583 51 672 103 q 389 0 494 0 q 215 47 290 0 l 75 -153 l 46 -153 l 196 61 q 106 172 138 104 q 74 325 74 240 q 125 526 74 436 q 265 667 176 615 q 460 718 354 718 q 628 674 556 718 l 767 871 l 796 871 l 649 661 m 101 326 q 131 186 101 249 q 213 83 160 124 l 611 651 q 457 690 544 690 q 277 644 358 690 q 149 514 196 597 q 101 326 101 431 m 392 28 q 572 74 490 28 q 700 204 653 121 q 747 393 747 288 q 717 535 747 472 q 632 638 686 599 l 232 71 q 392 28 301 28 z "},"ǿ":{"ha":849,"x_min":46,"x_max":796,"o":"m 649 661 q 742 549 708 618 q 775 394 775 481 q 724 193 775 283 q 583 51 672 103 q 389 0 494 0 q 215 47 290 0 l 75 -153 l 46 -153 l 196 61 q 106 172 138 104 q 74 325 74 240 q 125 526 74 436 q 265 667 176 615 q 460 718 354 718 q 628 674 556 718 l 767 871 l 796 871 l 649 661 m 101 326 q 131 186 101 249 q 213 83 160 124 l 611 651 q 457 690 544 690 q 277 644 358 690 q 149 514 196 597 q 101 326 101 431 m 392 28 q 572 74 490 28 q 700 204 653 121 q 747 393 747 288 q 717 535 747 472 q 632 638 686 599 l 232 71 q 392 28 301 28 m 657 1026 l 683 1013 l 504 867 l 468 874 l 657 1026 z "},"õ":{"ha":849,"x_min":74,"x_max":775,"o":"m 460 718 q 623 676 551 718 q 735 561 694 635 q 775 394 775 488 q 724 193 775 283 q 583 51 672 103 q 389 0 494 0 q 226 42 297 0 q 114 157 154 83 q 74 325 74 231 q 125 526 74 436 q 265 667 176 615 q 460 718 354 718 m 457 690 q 277 644 358 690 q 149 514 196 597 q 101 326 101 431 q 138 171 101 239 q 240 65 174 103 q 392 28 306 28 q 572 74 490 28 q 700 204 653 121 q 747 393 747 288 q 711 547 747 479 q 609 653 675 615 q 457 690 543 690 m 696 986 q 653 904 685 935 q 575 874 621 874 q 532 885 549 874 q 490 921 515 896 q 456 953 472 942 q 419 964 440 964 q 363 942 386 964 q 333 879 340 919 l 307 879 q 347 962 318 932 q 421 992 376 992 q 464 981 447 992 q 506 944 481 969 q 540 913 524 924 q 576 901 556 901 q 636 924 610 901 q 669 986 663 947 l 696 986 z "},"ṍ":{"ha":849,"x_min":74,"x_max":775,"o":"m 460 718 q 623 676 551 718 q 735 561 694 635 q 775 394 775 488 q 724 193 775 283 q 583 51 672 103 q 389 0 494 0 q 226 42 297 0 q 114 157 154 83 q 74 325 74 231 q 125 526 74 436 q 265 667 176 615 q 460 718 354 718 m 457 690 q 277 644 358 690 q 149 514 196 597 q 101 326 101 431 q 138 171 101 239 q 240 65 174 103 q 392 28 306 28 q 572 74 490 28 q 700 204 653 121 q 747 393 747 288 q 711 547 747 479 q 609 653 675 615 q 457 690 543 690 m 693 960 q 653 889 685 915 q 575 863 621 863 q 530 873 549 863 q 489 903 511 883 q 452 930 467 921 q 417 939 438 939 q 362 919 383 939 q 333 867 340 900 l 306 867 q 343 939 314 913 q 417 965 372 965 q 462 955 443 965 q 503 925 481 944 q 540 898 525 907 q 575 889 554 889 q 635 908 608 889 q 667 960 661 928 l 693 960 m 663 1154 l 686 1136 l 485 1024 l 450 1036 l 663 1154 z "},"ṏ":{"ha":849,"x_min":74,"x_max":775,"o":"m 460 718 q 623 676 551 718 q 735 561 694 635 q 775 394 775 488 q 724 193 775 283 q 583 51 672 103 q 389 0 494 0 q 226 42 297 0 q 114 157 154 83 q 74 325 74 231 q 125 526 74 436 q 265 667 176 615 q 460 718 354 718 m 457 690 q 277 644 358 690 q 149 514 196 597 q 101 326 101 431 q 138 171 101 239 q 240 65 174 103 q 392 28 306 28 q 572 74 490 28 q 700 204 653 121 q 747 393 747 288 q 711 547 747 479 q 609 653 675 615 q 457 690 543 690 m 692 960 q 651 889 683 915 q 574 863 619 863 q 528 873 547 863 q 488 903 510 883 q 451 930 465 921 q 415 939 436 939 q 360 919 382 939 q 332 867 339 900 l 304 867 q 342 939 313 913 q 415 965 371 965 q 460 955 442 965 q 501 925 479 944 q 538 898 524 907 q 574 889 553 889 q 633 908 607 889 q 665 960 660 928 l 692 960 m 444 1096 q 465 1087 457 1096 q 474 1065 474 1078 q 460 1036 474 1049 q 429 1024 446 1024 q 408 1033 417 1024 q 400 1054 400 1042 q 414 1083 400 1071 q 444 1096 428 1096 m 628 1096 q 649 1087 640 1096 q 657 1065 657 1078 q 643 1036 657 1049 q 613 1024 629 1024 q 592 1033 600 1024 q 583 1054 583 1042 q 597 1083 583 1071 q 628 1096 611 1096 z "},"ȭ":{"ha":849,"x_min":74,"x_max":775,"o":"m 460 718 q 623 676 551 718 q 735 561 694 635 q 775 394 775 488 q 724 193 775 283 q 583 51 672 103 q 389 0 494 0 q 226 42 297 0 q 114 157 154 83 q 74 325 74 231 q 125 526 74 436 q 265 667 176 615 q 460 718 354 718 m 457 690 q 277 644 358 690 q 149 514 196 597 q 101 326 101 431 q 138 171 101 239 q 240 65 174 103 q 392 28 306 28 q 572 74 490 28 q 700 204 653 121 q 747 393 747 288 q 711 547 747 479 q 609 653 675 615 q 457 690 543 690 m 692 960 q 651 889 683 915 q 574 863 619 863 q 528 873 547 863 q 488 903 510 883 q 451 930 465 921 q 415 939 436 939 q 360 919 382 939 q 332 867 339 900 l 304 867 q 342 939 313 913 q 415 965 371 965 q 460 955 442 965 q 501 925 479 944 q 538 898 524 907 q 574 889 553 889 q 633 908 607 889 q 665 960 660 928 l 692 960 m 376 1051 l 678 1051 l 672 1024 l 371 1024 l 376 1051 z "},"œ":{"ha":1496,"x_min":72,"x_max":1431,"o":"m 774 358 q 772 318 772 344 q 808 167 772 233 q 910 65 844 101 q 1060 28 975 28 q 1208 55 1139 28 q 1326 132 1276 82 l 1344 113 q 1215 29 1289 58 q 1060 0 1142 0 q 852 69 936 0 q 749 256 768 139 q 609 70 707 140 q 389 0 511 0 q 224 40 296 0 q 113 153 153 81 q 72 318 72 225 q 75 361 72 333 q 138 544 85 463 q 274 672 190 626 q 457 718 358 718 q 665 649 581 718 q 768 464 749 579 q 908 648 810 578 q 1128 718 1006 718 q 1288 678 1219 718 q 1394 567 1357 639 q 1431 403 1431 496 q 1429 360 1431 375 l 774 360 l 774 358 m 389 28 q 560 70 482 28 q 686 188 638 113 q 744 361 735 264 q 746 399 746 374 q 710 551 746 485 q 608 653 674 617 q 457 690 542 690 q 277 642 358 690 q 149 510 196 594 q 101 318 101 425 q 138 167 101 233 q 239 65 174 101 q 389 28 304 28 m 1128 690 q 965 652 1040 690 q 841 545 890 614 q 778 388 792 476 l 1404 388 q 1333 607 1407 524 q 1128 690 1258 690 z "},"p":{"ha":939,"x_min":35,"x_max":868,"o":"m 547 721 q 713 681 640 721 q 827 570 786 642 q 868 407 868 499 q 816 201 868 294 q 675 52 764 107 q 481 -3 586 -3 q 272 65 358 -3 q 165 246 186 133 l 63 -269 l 35 -269 l 232 718 l 260 718 l 224 540 q 363 674 278 626 q 547 721 449 721 m 544 693 q 365 642 447 693 q 235 505 283 592 q 188 315 188 418 q 225 165 188 231 q 330 62 263 99 q 483 25 397 25 q 663 76 581 25 q 792 213 744 126 q 840 403 840 300 q 803 553 840 488 q 698 656 765 619 q 544 693 631 693 z "},"þ":{"ha":939,"x_min":35,"x_max":868,"o":"m 547 721 q 713 681 640 721 q 827 570 786 642 q 868 407 868 499 q 816 201 868 294 q 675 52 764 107 q 481 -3 586 -3 q 272 65 358 -3 q 165 246 186 133 l 63 -269 l 35 -269 l 296 1031 l 324 1031 l 224 540 q 363 674 278 626 q 547 721 449 721 m 544 693 q 365 642 447 693 q 235 505 283 592 q 188 315 188 418 q 225 165 188 231 q 330 62 263 99 q 483 25 397 25 q 663 76 581 25 q 792 213 744 126 q 840 403 840 300 q 803 553 840 488 q 698 656 765 619 q 544 693 631 693 z "},"q":{"ha":938,"x_min":71,"x_max":850,"o":"m 392 -3 q 226 37 299 -3 q 112 148 153 76 q 71 311 71 219 q 123 517 71 424 q 264 666 175 611 q 458 721 353 721 q 667 653 581 721 q 774 472 753 585 l 822 718 l 850 718 l 653 -269 l 625 -269 l 715 178 q 576 44 661 92 q 392 -3 490 -3 m 394 25 q 574 76 492 25 q 703 213 656 126 q 751 403 751 300 q 714 553 751 488 q 609 656 676 619 q 456 693 542 693 q 276 642 358 693 q 147 505 194 592 q 99 315 99 418 q 136 165 99 231 q 241 62 174 99 q 394 25 308 25 z "},"r":{"ha":471,"x_min":82,"x_max":526,"o":"m 214 524 q 345 666 265 615 q 526 718 425 717 l 524 690 q 315 610 403 688 q 189 394 226 532 l 110 0 l 82 0 l 225 718 l 253 718 l 214 524 z "},"ŕ":{"ha":471,"x_min":82,"x_max":526,"o":"m 214 524 q 345 666 265 615 q 526 718 425 717 l 524 690 q 315 610 403 688 q 189 394 226 532 l 110 0 l 82 0 l 225 718 l 253 718 l 214 524 m 483 1026 l 510 1013 l 331 867 l 294 874 l 483 1026 z "},"ř":{"ha":471,"x_min":82,"x_max":526,"o":"m 214 524 q 345 666 265 615 q 526 718 425 717 l 524 690 q 315 610 403 688 q 189 394 226 532 l 110 0 l 82 0 l 225 718 l 253 718 l 214 524 m 483 1019 l 519 1019 l 354 867 l 310 867 l 203 1019 l 239 1019 l 336 892 l 483 1019 z "},"ŗ":{"ha":471,"x_min":-26,"x_max":526,"o":"m 214 524 q 345 666 265 615 q 526 718 425 717 l 524 690 q 315 610 403 688 q 189 394 226 532 l 110 0 l 82 0 l 225 718 l 253 718 l 214 524 m 63 -90 l 99 -90 l -1 -297 l -26 -297 l 63 -90 z "},"ȑ":{"ha":471,"x_min":82,"x_max":526,"o":"m 214 524 q 345 666 265 615 q 526 718 425 717 l 524 690 q 315 610 403 688 q 189 394 226 532 l 110 0 l 82 0 l 225 718 l 253 718 l 214 524 m 181 1026 l 290 874 l 257 867 l 154 1011 l 181 1026 m 346 1026 l 456 874 l 422 867 l 319 1011 l 346 1026 z "},"ṛ":{"ha":471,"x_min":31,"x_max":526,"o":"m 214 524 q 345 666 265 615 q 526 718 425 717 l 524 690 q 315 610 403 688 q 189 394 226 532 l 110 0 l 82 0 l 225 718 l 253 718 l 214 524 m 75 -111 q 96 -120 88 -111 q 104 -142 104 -129 q 90 -171 104 -158 q 60 -183 76 -183 q 39 -174 47 -183 q 31 -153 31 -165 q 44 -124 31 -136 q 75 -111 58 -111 z "},"ȓ":{"ha":471,"x_min":82,"x_max":526,"o":"m 214 524 q 345 666 265 615 q 526 718 425 717 l 524 690 q 315 610 403 688 q 189 394 226 532 l 110 0 l 82 0 l 225 718 l 253 718 l 214 524 m 449 863 q 450 882 450 869 q 424 953 450 925 q 354 981 397 981 q 265 947 306 981 q 213 863 224 913 l 185 863 q 249 967 199 925 q 358 1008 299 1008 q 445 975 411 1008 q 479 889 479 942 q 476 863 479 879 l 449 863 z "},"ṟ":{"ha":471,"x_min":-85,"x_max":526,"o":"m 214 524 q 345 666 265 615 q 526 718 425 717 l 524 690 q 315 610 403 688 q 189 394 226 532 l 110 0 l 82 0 l 225 718 l 253 718 l 214 524 m -79 -125 l 222 -125 l 217 -153 l -85 -153 l -79 -125 z "}}}
